<svg id="kity_svg_6" xmlns="http://www.w3.org/2000/svg" xmlns:xlink="http://www.w3.org/1999/xlink" version="1.1" width="2174" height="650" style="background: rgb(251, 251, 251); visibility: visible;" viewBox="0 0 2174 650"><defs id="kity_defs_7"><linearGradient id="kity_linearGradient_17" x1="0" y1="0" x2="0" y2="1"><stop id="kity_stop_18" offset="0" stop-color="rgb(255, 255, 255)"></stop><stop id="kity_stop_19" offset="1" stop-color="rgb(204, 204, 204)"></stop></linearGradient><marker id="kity_marker_2" orient="auto" refX="6" refY="0" viewBox="-7 -7 14 14" markerWidth="7" markerHeight="7" markerUnits="userSpaceOnUse"><path id="kity_path_3" fill="rgb(115, 161, 191)" stroke="none" d="M6,0A6,6,0,1,1,-6,0A6,6,0,1,1,6,0"></path></marker></defs><g id="kity_g_8"><g id="minder1" text-rendering="optimize-speed"><g id="minder_connect_group1"><path id="kity_path_31" fill="none" stroke="rgb(191, 147, 115)" stroke-width="1" d="M923.5000114366412,72.50000291317701v10h-813.5V90.50000291317701"></path><path id="kity_path_33" fill="none" stroke="rgb(191, 147, 115)" stroke-width="1" d="M40.500011436641216,122.50000291317701V143.500002913177L48.500011436641216,143.500002913177"></path><path id="kity_path_35" fill="none" stroke="rgb(191, 147, 115)" stroke-width="1" d="M68.50001143664122,152.500002913177V169.500002913177L76.50001143664122,169.500002913177"></path><path id="kity_path_37" fill="none" stroke="rgb(191, 147, 115)" stroke-width="1" d="M68.50001143664122,152.500002913177V195.500002913177L76.50001143664122,195.500002913177"></path><path id="kity_path_39" fill="none" stroke="rgb(191, 147, 115)" stroke-width="1" d="M40.500011436641216,122.50000291317701V221.500002913177L48.500011436641216,221.500002913177"></path><path id="kity_path_41" fill="none" stroke="rgb(191, 147, 115)" stroke-width="1" d="M68.50001143664122,230.500002913177V247.500002913177L76.50001143664122,247.500002913177"></path><path id="kity_path_43" fill="none" stroke="rgb(191, 147, 115)" stroke-width="1" d="M68.50001143664122,230.500002913177V273.500002913177L76.50001143664122,273.500002913177"></path><path id="kity_path_45" fill="none" stroke="rgb(191, 147, 115)" stroke-width="1" d="M68.50001143664122,230.500002913177V299.500002913177L76.50001143664122,299.500002913177"></path><path id="kity_path_47" fill="none" stroke="rgb(191, 147, 115)" stroke-width="1" d="M96.50001143664122,308.500002913177V325.500002913177L104.50001143664122,325.500002913177"></path><path id="kity_path_49" fill="none" stroke="rgb(191, 147, 115)" stroke-width="1" d="M124.50001143664122,334.500002913177V351.500002913177L132.50001143664122,351.500002913177"></path><path id="kity_path_51" fill="none" stroke="rgb(191, 147, 115)" stroke-width="1" d="M96.50001143664122,308.500002913177V377.500002913177L104.50001143664122,377.500002913177"></path><path id="kity_path_53" fill="none" stroke="rgb(191, 147, 115)" stroke-width="1" d="M68.50001143664122,230.500002913177V403.500002913177L76.50001143664122,403.500002913177"></path><path id="kity_path_55" fill="none" stroke="rgb(191, 147, 115)" stroke-width="1" d="M96.50001143664122,412.500002913177V447.500002913177L104.50001143664122,447.500002913177"></path><path id="kity_path_57" fill="none" stroke="rgb(191, 147, 115)" stroke-width="1" d="M40.500011436641216,122.50000291317701V491.500002913177L48.500011436641216,491.500002913177"></path><path id="kity_path_59" fill="none" stroke="rgb(191, 147, 115)" stroke-width="1" d="M68.50001143664122,500.500002913177V517.500002913177L76.50001143664122,517.500002913177"></path><path id="kity_path_61" fill="none" stroke="rgb(191, 147, 115)" stroke-width="1" d="M68.50001143664122,500.500002913177V543.500002913177L76.50001143664122,543.500002913177"></path><path id="kity_path_63" fill="none" stroke="rgb(191, 147, 115)" stroke-width="1" d="M96.50001143664122,552.500002913177V569.500002913177L104.50001143664122,569.500002913177"></path><path id="kity_path_65" fill="none" stroke="rgb(191, 147, 115)" stroke-width="1" d="M96.50001143664122,552.500002913177V595.500002913177L104.50001143664122,595.500002913177"></path><path id="kity_path_67" fill="none" stroke="rgb(191, 147, 115)" stroke-width="1" d="M923.5000114366412,72.50000291317701v10h-267.5V90.50000291317701"></path><path id="kity_path_69" fill="none" stroke="rgb(191, 147, 115)" stroke-width="1" d="M543.5000114366412,122.50000291317701V143.500002913177L551.5000114366412,143.500002913177"></path><path id="kity_path_71" fill="none" stroke="rgb(191, 147, 115)" stroke-width="1" d="M571.5000114366412,152.500002913177V178.500002913177L579.5000114366412,178.500002913177"></path><path id="kity_path_73" fill="none" stroke="rgb(191, 147, 115)" stroke-width="1" d="M543.5000114366412,122.50000291317701V213.500002913177L551.5000114366412,213.500002913177"></path><path id="kity_path_75" fill="none" stroke="rgb(191, 147, 115)" stroke-width="1" d="M571.5000114366412,222.500002913177V239.500002913177L579.5000114366412,239.500002913177"></path><path id="kity_path_77" fill="none" stroke="rgb(191, 147, 115)" stroke-width="1" d="M543.5000114366412,122.50000291317701V265.500002913177L551.5000114366412,265.500002913177"></path><path id="kity_path_79" fill="none" stroke="rgb(191, 147, 115)" stroke-width="1" d="M571.5000114366412,274.500002913177V300.500002913177L579.5000114366412,300.500002913177"></path><path id="kity_path_81" fill="none" stroke="rgb(191, 147, 115)" stroke-width="1" d="M571.5000114366412,274.500002913177V335.500002913177L579.5000114366412,335.500002913177"></path><path id="kity_path_83" fill="none" stroke="rgb(191, 147, 115)" stroke-width="1" d="M599.5000114366412,344.500002913177V370.500002913177L607.5000114366412,370.500002913177"></path><path id="kity_path_85" fill="none" stroke="rgb(191, 147, 115)" stroke-width="1" d="M923.5000114366412,72.50000291317701v10h68V90.50000291317701"></path><path id="kity_path_87" fill="none" stroke="rgb(191, 147, 115)" stroke-width="1" d="M963.5000114366412,122.50000291317701V143.500002913177L971.5000114366412,143.500002913177"></path><path id="kity_path_89" fill="none" stroke="rgb(191, 147, 115)" stroke-width="1" d="M991.5000114366412,152.500002913177V169.500002913177L999.5000114366412,169.500002913177"></path><path id="kity_path_91" fill="none" stroke="rgb(191, 147, 115)" stroke-width="1" d="M991.5000114366412,152.500002913177V195.500002913177L999.5000114366412,195.500002913177"></path><path id="kity_path_93" fill="none" stroke="rgb(191, 147, 115)" stroke-width="1" d="M991.5000114366412,152.500002913177V221.500002913177L999.5000114366412,221.500002913177"></path><path id="kity_path_95" fill="none" stroke="rgb(191, 147, 115)" stroke-width="1" d="M1019.5000114366412,230.500002913177V247.500002913177L1027.5000114366412,247.500002913177"></path><path id="kity_path_97" fill="none" stroke="rgb(191, 147, 115)" stroke-width="1" d="M963.5000114366412,122.50000291317701V273.500002913177L971.5000114366412,273.500002913177"></path><path id="kity_path_99" fill="none" stroke="rgb(191, 147, 115)" stroke-width="1" d="M991.5000114366412,282.500002913177V308.500002913177L999.5000114366412,308.500002913177"></path><path id="kity_path_101" fill="none" stroke="rgb(191, 147, 115)" stroke-width="1" d="M991.5000114366412,282.500002913177V352.500002913177L999.5000114366412,352.500002913177"></path><path id="kity_path_103" fill="none" stroke="rgb(191, 147, 115)" stroke-width="1" d="M1019.5000114366412,370.500002913177V387.500002913177L1027.5000114366412,387.500002913177"></path><path id="kity_path_105" fill="none" stroke="rgb(191, 147, 115)" stroke-width="1" d="M1019.5000114366412,370.500002913177V413.500002913177L1027.5000114366412,413.500002913177"></path><path id="kity_path_107" fill="none" stroke="rgb(191, 147, 115)" stroke-width="1" d="M963.5000114366412,122.50000291317701V439.500002913177L971.5000114366412,439.500002913177"></path><path id="kity_path_109" fill="none" stroke="rgb(191, 147, 115)" stroke-width="1" d="M991.5000114366412,448.500002913177V465.500002913177L999.5000114366412,465.500002913177"></path><path id="kity_path_111" fill="none" stroke="rgb(191, 147, 115)" stroke-width="1" d="M991.5000114366412,448.500002913177V491.500002913177L999.5000114366412,491.500002913177"></path><path id="kity_path_113" fill="none" stroke="rgb(191, 147, 115)" stroke-width="1" d="M1019.5000114366412,500.500002913177V517.500002913177L1027.5000114366412,517.500002913177"></path><path id="kity_path_115" fill="none" stroke="rgb(191, 147, 115)" stroke-width="1" d="M1019.5000114366412,500.500002913177V543.500002913177L1027.5000114366412,543.500002913177"></path><path id="kity_path_117" fill="none" stroke="rgb(191, 147, 115)" stroke-width="1" d="M991.5000114366412,448.500002913177V569.500002913177L999.5000114366412,569.500002913177"></path><path id="kity_path_119" fill="none" stroke="rgb(191, 147, 115)" stroke-width="1" d="M1019.5000114366412,578.500002913177V595.500002913177L1027.5000114366412,595.500002913177"></path><path id="kity_path_121" fill="none" stroke="rgb(191, 147, 115)" stroke-width="1" d="M1019.5000114366412,578.500002913177V621.500002913177L1027.5000114366412,621.500002913177"></path><path id="kity_path_123" fill="none" stroke="rgb(191, 147, 115)" stroke-width="1" d="M923.5000114366412,72.50000291317701v10h588.5V90.50000291317701"></path><path id="kity_path_125" fill="none" stroke="rgb(191, 147, 115)" stroke-width="1" d="M1448.5000114366412,122.50000291317701V143.500002913177L1456.5000114366412,143.500002913177"></path><path id="kity_path_127" fill="none" stroke="rgb(191, 147, 115)" stroke-width="1" d="M1476.5000114366412,152.500002913177V169.500002913177L1484.5000114366412,169.500002913177"></path><path id="kity_path_129" fill="none" stroke="rgb(191, 147, 115)" stroke-width="1" d="M1448.5000114366412,122.50000291317701V195.500002913177L1456.5000114366412,195.500002913177"></path><path id="kity_path_131" fill="none" stroke="rgb(191, 147, 115)" stroke-width="1" d="M1448.5000114366412,122.50000291317701V230.500002913177L1456.5000114366412,230.500002913177"></path><path id="kity_path_133" fill="none" stroke="rgb(191, 147, 115)" stroke-width="1" d="M923.5000114366412,72.50000291317701v10h910.5V95.50000291317701"></path><path id="kity_path_135" fill="none" stroke="rgb(191, 147, 115)" stroke-width="1" d="M1792.5000114366412,127.50000291317701V148.500002913177L1800.5000114366412,148.500002913177"></path><path id="kity_path_137" fill="none" stroke="rgb(191, 147, 115)" stroke-width="1" d="M1820.5000114366412,157.500002913177V174.500002913177L1828.5000114366412,174.500002913177"></path><path id="kity_path_139" fill="none" stroke="rgb(191, 147, 115)" stroke-width="1" d="M1820.5000114366412,157.500002913177V200.500002913177L1828.5000114366412,200.500002913177"></path><path id="kity_path_141" fill="none" stroke="rgb(191, 147, 115)" stroke-width="1" d="M1848.5000114366412,209.500002913177V226.500002913177L1856.5000114366412,226.500002913177"></path><path id="kity_path_143" fill="none" stroke="rgb(191, 147, 115)" stroke-width="1" d="M1792.5000114366412,127.50000291317701V252.500002913177L1800.5000114366412,252.500002913177"></path><path id="kity_path_145" fill="none" stroke="rgb(191, 147, 115)" stroke-width="1" d="M1820.5000114366412,261.500002913177V278.500002913177L1828.5000114366412,278.500002913177"></path><path id="kity_path_147" fill="none" stroke="rgb(191, 147, 115)" stroke-width="1" d="M1848.5000114366412,287.500002913177V304.500002913177L1856.5000114366412,304.500002913177"></path><path id="kity_path_149" fill="none" stroke="rgb(191, 147, 115)" stroke-width="1" d="M1848.5000114366412,287.500002913177V330.500002913177L1856.5000114366412,330.500002913177"></path><path id="kity_path_151" fill="none" stroke="rgb(191, 147, 115)" stroke-width="1" d="M1848.5000114366412,287.500002913177V356.500002913177L1856.5000114366412,356.500002913177"></path><path id="kity_path_153" fill="none" stroke="rgb(191, 147, 115)" stroke-width="1" d="M1848.5000114366412,287.500002913177V382.500002913177L1856.5000114366412,382.500002913177"></path><path id="kity_path_155" fill="none" stroke="rgb(191, 147, 115)" stroke-width="1" d="M1792.5000114366412,127.50000291317701V408.500002913177L1800.5000114366412,408.500002913177"></path></g><g id="minder_node1"><path id="node_outline1" fill="#e8c009" stroke="rgb(191, 147, 115)" d="M750.5000114366412,20.500002913177013h345a5,5,0,0,1,5,5v42a5,5,0,0,1,-5,5h-345a5,5,0,0,1,-5,-5v-42a5,5,0,0,1,5,-5z" stroke-width="3"></path><g id="node_text1" fill="white"><text id="kity_text_22" text-rendering="inherit" font-size="16" dy=".8em" y="24.100002877414227" font-weight="bold" x="757.5000114366412">科技、娱乐、设计</text><text id="kity_text_290" text-rendering="inherit" font-size="16" dy=".8em" font-weight="bold" y="48.10000287741423" x="757.5000114366412">https://tumaorou.github.io/TED/TED.svg</text></g></g><g id="kity_g_12"><path id="kity_path_13" fill="none" stroke="none" d="M757.5000114366412,46.50000291317701h0v0h0z"></path></g><g id="kity_g_14"><path id="kity_path_15" fill="none" stroke="none" d="M757.5000114366412,46.50000291317701h0v0h0z"></path><path id="kity_path_16" fill="none" stroke="none"></path></g><g id="minder_node2"><g id="node_expander18" style="cursor: pointer;"><path id="kity_path_431" fill="white" stroke="gray" d="M115.50000178068876,83.50000346451998A6,6,0,1,1,103.50000178068876,83.50000346451998A6,6,0,1,1,115.50000178068876,83.50000346451998"></path><path id="kity_path_432" fill="none" stroke="gray" d="M105.00000178068876,83.50000346451998L114.00000178068876,83.50000346451998"></path></g><path id="node_outline19" fill="#e8c009" stroke="rgb(191, 147, 115)" d="M23.50000112503767,90.50000380724669h172a3,3,0,0,1,3,3v26a3,3,0,0,1,-3,3h-172a3,3,0,0,1,-3,-3v-26a3,3,0,0,1,3,-3z" stroke-width="1"></path><g id="node_text19" fill="#ffffff"><text id="kity_text_193" text-rendering="inherit" font-size="14" dy=".8em" font-weight="bold" y="97.40000377595425" x="65.50000112503767">区块链与应用平台</text></g><g id="node_priority1"><path id="kity_path_293" fill="#4720C4" stroke="none" d="M41.00000075995922,110.00000366568565c0,3.866,3.134,7,7,7h6c3.866,0,7,-3.134,7,-7V104.00000366568565H41.00000075995922V110.00000366568565z"></path><path id="kity_path_294" fill="#A464FF" stroke="none" d="M61.00000075995922,107.00000366568565c0,3.866,-3.134,7,-7,7H48.00000075995922c-3.866,0,-7,-3.134,-7,-7V104.00000366568565c0,-3.866,3.134,-7,7,-7h6c3.866,0,7,3.134,7,7V107.00000366568565z" opacity="0.8"></path><text id="kity_text_295" text-rendering="geometricPrecision" x="50.00000075250864" y="106.50000365823507" text-anchor="middle" font-style="italic" font-size="12" fill="white" dy="5">5</text></g></g><g id="minder_node3"><g id="node_expander3" style="cursor: pointer;"><path id="kity_path_386" fill="white" stroke="gray" d="M48.50000078231096,143.50000435858965A6,6,0,1,1,36.50000078231096,143.50000435858965A6,6,0,1,1,48.50000078231096,143.50000435858965"></path><path id="kity_path_387" fill="none" stroke="gray" d="M38.00000078231096,143.50000435858965L47.00000078231096,143.50000435858965"></path></g><path id="node_outline4" fill="#e8c009" stroke="none" d="M53.500000946223736,134.50000435858965h105a5,5,0,0,1,5,5v8a5,5,0,0,1,-5,5h-105a5,5,0,0,1,-5,-5v-8a5,5,0,0,1,5,-5z"></path><g id="node_text4" fill="#ffffff"><text id="kity_text_161" text-rendering="inherit" font-size="12" dy=".8em" font-weight="bold" y="135.70000433176756" x="53.500000946223736">区块链 Blockchain</text></g></g><g id="minder_node4"><g id="node_expander1" display="none" style="cursor: pointer;"><path id="kity_path_380" fill="white" stroke="gray" d="M76.50000119954348,169.50000474601984A6,6,0,1,1,64.50000119954348,169.50000474601984A6,6,0,1,1,76.50000119954348,169.50000474601984"></path><path id="kity_path_381" fill="none" stroke="gray"></path></g><path id="node_outline2" fill="none" stroke="none" d="M81.50000136345625,160.50000474601984h277a5,5,0,0,1,5,5v8a5,5,0,0,1,-5,5h-277a5,5,0,0,1,-5,-5v-8a5,5,0,0,1,5,-5z"></path><g id="node_text2" fill="black"><text id="kity_text_157" text-rendering="inherit" font-size="12" dy=".8em" y="161.70000471919775" x="81.50000136345625">区块链能够保护隐私，比传统平台更加安全便捷可靠</text></g></g><g id="minder_node5"><g id="node_expander2" display="none" style="cursor: pointer;"><path id="kity_path_383" fill="white" stroke="gray" d="M76.50000119954348,195.50000513345003A6,6,0,1,1,64.50000119954348,195.50000513345003A6,6,0,1,1,76.50000119954348,195.50000513345003"></path><path id="kity_path_384" fill="none" stroke="gray"></path></g><path id="node_outline3" fill="none" stroke="none" d="M81.50000136345625,186.50000513345003h421a5,5,0,0,1,5,5v8a5,5,0,0,1,-5,5h-421a5,5,0,0,1,-5,-5v-8a5,5,0,0,1,5,-5z"></path><g id="node_text3" fill="black"><text id="kity_text_159" text-rendering="inherit" font-size="12" dy=".8em" y="187.70000510662794" x="81.50000136345625">区块链夺回我们资产的控制权，令我们拥有我们自己的身份并且进行负责的管理</text></g></g><g id="minder_node6"><g id="node_expander12" style="cursor: pointer;"><path id="kity_path_413" fill="white" stroke="gray" d="M48.50000078231096,221.50000552088022A6,6,0,1,1,36.50000078231096,221.50000552088022A6,6,0,1,1,48.50000078231096,221.50000552088022"></path><path id="kity_path_414" fill="none" stroke="gray" d="M38.00000078231096,221.50000552088022L47.00000078231096,221.50000552088022"></path></g><path id="node_outline13" fill="#e8c009" stroke="none" d="M53.500000946223736,212.50000552088022h69a5,5,0,0,1,5,5v8a5,5,0,0,1,-5,5h-69a5,5,0,0,1,-5,-5v-8a5,5,0,0,1,5,-5z"></path><g id="node_text13" fill="#ffffff"><text id="kity_text_181" text-rendering="inherit" font-size="12" dy=".8em" font-weight="bold" y="213.70000549405813" x="53.500000946223736">人工智能 AI&#xa0;</text></g></g><g id="minder_node7"><g id="node_expander4" display="none" style="cursor: pointer;"><path id="kity_path_389" fill="white" stroke="gray" d="M76.50000119954348,247.5000059083104A6,6,0,1,1,64.50000119954348,247.5000059083104A6,6,0,1,1,76.50000119954348,247.5000059083104"></path><path id="kity_path_390" fill="none" stroke="gray"></path></g><path id="node_outline5" fill="none" stroke="none" d="M81.50000136345625,238.5000059083104h337a5,5,0,0,1,5,5v8a5,5,0,0,1,-5,5h-337a5,5,0,0,1,-5,-5v-8a5,5,0,0,1,5,-5z"></path><g id="node_text5" fill="black"><text id="kity_text_163" text-rendering="inherit" font-size="12" dy=".8em" y="239.70000588148832" x="81.50000136345625">为人类服务的人工智能：专有算法、机器学习透明化；隐私安全</text></g></g><g id="minder_node8"><g id="node_expander5" display="none" style="cursor: pointer;"><path id="kity_path_392" fill="white" stroke="gray" d="M76.50000119954348,273.5000062957406A6,6,0,1,1,64.50000119954348,273.5000062957406A6,6,0,1,1,76.50000119954348,273.5000062957406"></path><path id="kity_path_393" fill="none" stroke="gray"></path></g><path id="node_outline6" fill="none" stroke="none" d="M81.50000136345625,264.5000062957406h290a5,5,0,0,1,5,5v8a5,5,0,0,1,-5,5h-290a5,5,0,0,1,-5,-5v-8a5,5,0,0,1,5,-5z"></path><g id="node_text6" fill="black"><text id="kity_text_165" text-rendering="inherit" font-size="12" dy=".8em" y="265.7000062689185" x="81.50000136345625">人机共生：人与机器正确地合作，减少操作界面的摩擦</text></g></g><g id="minder_node9"><g id="node_expander9" style="cursor: pointer;"><path id="kity_path_404" fill="white" stroke="gray" d="M76.50000119954348,299.5000066831708A6,6,0,1,1,64.50000119954348,299.5000066831708A6,6,0,1,1,76.50000119954348,299.5000066831708"></path><path id="kity_path_405" fill="none" stroke="gray" d="M66.00000119954348,299.5000066831708L75.00000119954348,299.5000066831708"></path></g><path id="node_outline10" fill="#e8c009" stroke="none" d="M81.50000136345625,290.5000066831708h72a5,5,0,0,1,5,5v8a5,5,0,0,1,-5,5h-72a5,5,0,0,1,-5,-5v-8a5,5,0,0,1,5,-5z"></path><g id="node_text10" fill="#ffffff"><text id="kity_text_173" text-rendering="inherit" font-size="12" dy=".8em" font-weight="bold" y="291.7000066563487" x="81.50000136345625">机器学习 ML</text></g></g><g id="minder_node10"><g id="node_expander7" style="cursor: pointer;"><path id="kity_path_398" fill="white" stroke="gray" d="M104.50000161677599,325.500007070601A6,6,0,1,1,92.50000161677599,325.500007070601A6,6,0,1,1,104.50000161677599,325.500007070601"></path><path id="kity_path_399" fill="none" stroke="gray" d="M94.00000161677599,325.500007070601L103.00000161677599,325.500007070601"></path></g><path id="node_outline8" fill="none" stroke="none" d="M109.50000178068876,316.500007070601h25a5,5,0,0,1,5,5v8a5,5,0,0,1,-5,5h-25a5,5,0,0,1,-5,-5v-8a5,5,0,0,1,5,-5z"></path><g id="node_text8" fill="black"><text id="kity_text_169" text-rendering="inherit" font-size="12" dy=".8em" y="317.7000070437789" x="109.50000178068876">危害</text></g></g><g id="minder_node11"><g id="node_expander6" display="none" style="cursor: pointer;"><path id="kity_path_395" fill="white" stroke="gray" d="M132.5000020340085,351.5000074580312A6,6,0,1,1,120.5000020340085,351.5000074580312A6,6,0,1,1,132.5000020340085,351.5000074580312"></path><path id="kity_path_396" fill="none" stroke="gray"></path></g><path id="node_outline7" fill="none" stroke="none" d="M137.50000219792128,342.5000074580312h158a5,5,0,0,1,5,5v8a5,5,0,0,1,-5,5h-158a5,5,0,0,1,-5,-5v-8a5,5,0,0,1,5,-5z"></path><g id="node_text7" fill="black"><text id="kity_text_167" text-rendering="inherit" font-size="12" dy=".8em" y="343.7000074312091" x="137.50000219792128">潜在的偏见以及不透明的算法</text></g></g><g id="minder_node12"><g id="node_expander8" display="none" style="cursor: pointer;"><path id="kity_path_401" fill="white" stroke="gray" d="M104.50000161677599,377.50000784546137A6,6,0,1,1,92.50000161677599,377.50000784546137A6,6,0,1,1,104.50000161677599,377.50000784546137"></path><path id="kity_path_402" fill="none" stroke="gray"></path></g><path id="node_outline9" fill="none" stroke="none" d="M109.50000178068876,368.50000784546137h265a5,5,0,0,1,5,5v8a5,5,0,0,1,-5,5h-265a5,5,0,0,1,-5,-5v-8a5,5,0,0,1,5,-5z"></path><g id="node_text9" fill="black"><text id="kity_text_171" text-rendering="inherit" font-size="12" dy=".8em" y="369.7000078186393" x="109.50000178068876">对算法的公开透明，人工智能不是“伦理免责卡”</text></g></g><g id="minder_node13"><g id="node_expander11" style="cursor: pointer;"><path id="kity_path_410" fill="white" stroke="gray" d="M76.50000119954348,403.50000823289156A6,6,0,1,1,64.50000119954348,403.50000823289156A6,6,0,1,1,76.50000119954348,403.50000823289156"></path><path id="kity_path_411" fill="none" stroke="gray" d="M66.00000119954348,403.50000823289156L75.00000119954348,403.50000823289156"></path></g><path id="node_outline12" fill="#e8c009" stroke="none" d="M81.50000136345625,394.50000823289156h207a5,5,0,0,1,5,5v8a5,5,0,0,1,-5,5h-207a5,5,0,0,1,-5,-5v-8a5,5,0,0,1,5,-5z"></path><g id="node_text12" fill="#ffffff"><text id="kity_text_179" text-rendering="inherit" font-size="12" dy=".8em" font-weight="bold" y="395.70000820606947" x="81.50000136345625">推荐系统&#xa0;Recommendation System</text></g></g><g id="minder_node14"><g id="node_expander10" display="none" style="cursor: pointer;"><path id="kity_path_407" fill="white" stroke="gray" d="M104.50000161677599,447.50000888854265A6,6,0,1,1,92.50000161677599,447.50000888854265A6,6,0,1,1,104.50000161677599,447.50000888854265"></path><path id="kity_path_408" fill="none" stroke="gray"></path></g><path id="node_outline11" fill="none" stroke="none" d="M109.50000178068876,420.50000888854265h229a5,5,0,0,1,5,5v44a5,5,0,0,1,-5,5h-229a5,5,0,0,1,-5,-5v-44a5,5,0,0,1,5,-5z"></path><g id="node_text11" fill="black"><text id="kity_text_175" text-rendering="inherit" font-size="12" dy=".8em" y="421.70000886172056" x="109.50000178068876">根据用户的历史行为、社交关系、兴趣点、</text><text id="kity_text_176" text-rendering="inherit" font-size="12" dy=".8em" y="439.70000886172056" x="109.50000178068876">所处上下文环境等信息去判断用户</text><text id="kity_text_177" text-rendering="inherit" font-size="12" dy=".8em" y="457.70000886172056" x="109.50000178068876">当前需要或感兴趣的物品/服务的一类应用</text></g></g><g id="minder_node15"><g id="node_expander17" style="cursor: pointer;"><path id="kity_path_428" fill="white" stroke="gray" d="M48.50000078231096,491.50000954419374A6,6,0,1,1,36.50000078231096,491.50000954419374A6,6,0,1,1,48.50000078231096,491.50000954419374"></path><path id="kity_path_429" fill="none" stroke="gray" d="M38.00000078231096,491.50000954419374L47.00000078231096,491.50000954419374"></path></g><path id="node_outline18" fill="none" stroke="none" d="M53.500000946223736,482.50000954419374h26a5,5,0,0,1,5,5v8a5,5,0,0,1,-5,5h-26a5,5,0,0,1,-5,-5v-8a5,5,0,0,1,5,-5z"></path><g id="node_text18" fill="black"><text id="kity_text_191" text-rendering="inherit" font-size="12" dy=".8em" y="483.70000951737165" x="53.500000946223736">道德</text></g></g><g id="minder_node16"><g id="node_expander13" display="none" style="cursor: pointer;"><path id="kity_path_416" fill="white" stroke="gray" d="M76.50000119954348,517.5000099316239A6,6,0,1,1,64.50000119954348,517.5000099316239A6,6,0,1,1,76.50000119954348,517.5000099316239"></path><path id="kity_path_417" fill="none" stroke="gray"></path></g><path id="node_outline14" fill="none" stroke="none" d="M81.50000136345625,508.50000993162394h97a5,5,0,0,1,5,5v8a5,5,0,0,1,-5,5h-97a5,5,0,0,1,-5,-5v-8a5,5,0,0,1,5,-5z"></path><g id="node_text14" fill="black"><text id="kity_text_183" text-rendering="inherit" font-size="12" dy=".8em" y="509.70000990480185" x="81.50000136345625">用户提高网络素养</text></g></g><g id="minder_node17"><g id="node_expander16" style="cursor: pointer;"><path id="kity_path_425" fill="white" stroke="gray" d="M76.50000119954348,543.5000103190541A6,6,0,1,1,64.50000119954348,543.5000103190541A6,6,0,1,1,76.50000119954348,543.5000103190541"></path><path id="kity_path_426" fill="none" stroke="gray" d="M66.00000119954348,543.5000103190541L75.00000119954348,543.5000103190541"></path></g><path id="node_outline17" fill="none" stroke="none" d="M81.50000136345625,534.5000103190541h85a5,5,0,0,1,5,5v8a5,5,0,0,1,-5,5h-85a5,5,0,0,1,-5,-5v-8a5,5,0,0,1,5,-5z"></path><g id="node_text17" fill="black"><text id="kity_text_189" text-rendering="inherit" font-size="12" dy=".8em" y="535.700010292232" x="81.50000136345625">平台提升责任感</text></g></g><g id="minder_node18"><g id="node_expander14" display="none" style="cursor: pointer;"><path id="kity_path_419" fill="white" stroke="gray" d="M104.50000161677599,569.5000107064843A6,6,0,1,1,92.50000161677599,569.5000107064843A6,6,0,1,1,104.50000161677599,569.5000107064843"></path><path id="kity_path_420" fill="none" stroke="gray"></path></g><path id="node_outline15" fill="none" stroke="none" d="M109.50000178068876,560.5000107064843h49a5,5,0,0,1,5,5v8a5,5,0,0,1,-5,5h-49a5,5,0,0,1,-5,-5v-8a5,5,0,0,1,5,-5z"></path><g id="node_text15" fill="black"><text id="kity_text_185" text-rendering="inherit" font-size="12" dy=".8em" y="561.7000106796622" x="109.50000178068876">算法透明</text></g></g><g id="minder_node19"><g id="node_expander15" display="none" style="cursor: pointer;"><path id="kity_path_422" fill="white" stroke="gray" d="M104.50000161677599,595.5000110939145A6,6,0,1,1,92.50000161677599,595.5000110939145A6,6,0,1,1,104.50000161677599,595.5000110939145"></path><path id="kity_path_423" fill="none" stroke="gray"></path></g><path id="node_outline16" fill="none" stroke="none" d="M109.50000178068876,586.5000110939145h61a5,5,0,0,1,5,5v8a5,5,0,0,1,-5,5h-61a5,5,0,0,1,-5,-5v-8a5,5,0,0,1,5,-5z"></path><g id="node_text16" fill="black"><text id="kity_text_187" text-rendering="inherit" font-size="12" dy=".8em" y="587.7000110670924" x="109.50000178068876">为用户服务</text></g></g><g id="minder_node20"><g id="node_expander27" style="cursor: pointer;"><path id="kity_path_458" fill="white" stroke="gray" d="M661.5000099167228,83.50000346451998A6,6,0,1,1,649.5000099167228,83.50000346451998A6,6,0,1,1,661.5000099167228,83.50000346451998"></path><path id="kity_path_459" fill="none" stroke="gray" d="M651.0000099167228,83.50000346451998L660.0000099167228,83.50000346451998"></path></g><path id="node_outline28" fill="#e8c009" stroke="rgb(191, 147, 115)" d="M526.5000086203218,90.50000380724669h258a3,3,0,0,1,3,3v26a3,3,0,0,1,-3,3h-258a3,3,0,0,1,-3,-3v-26a3,3,0,0,1,3,-3z" stroke-width="1"></path><g id="node_text28" fill="#ffffff"><text id="kity_text_214" text-rendering="inherit" font-size="14" dy=".8em" font-weight="bold" y="97.40000377595425" x="568.5000086203218">情感化设计&#xa0;Emotional Design</text></g><g id="node_priority2"><path id="kity_path_298" fill="#4720C4" stroke="none" d="M544.0000082552433,110.00000366568565c0,3.866,3.134,7,7,7h6c3.866,0,7,-3.134,7,-7V104.00000366568565H544.0000082552433V110.00000366568565z"></path><path id="kity_path_299" fill="#A464FF" stroke="none" d="M564.0000082552433,107.00000366568565c0,3.866,-3.134,7,-7,7H551.0000082552433c-3.866,0,-7,-3.134,-7,-7V104.00000366568565c0,-3.866,3.134,-7,7,-7h6c3.866,0,7,3.134,7,7V107.00000366568565z" opacity="0.8"></path><text id="kity_text_300" text-rendering="geometricPrecision" x="553.0000082477927" y="106.50000365823507" text-anchor="middle" font-style="italic" font-size="12" fill="white" dy="5">5</text></g></g><g id="minder_node21"><g id="node_expander20" style="cursor: pointer;"><path id="kity_path_437" fill="white" stroke="gray" d="M551.500008277595,143.50000435858965A6,6,0,1,1,539.500008277595,143.50000435858965A6,6,0,1,1,551.500008277595,143.50000435858965"></path><path id="kity_path_438" fill="none" stroke="gray" d="M541.000008277595,143.50000435858965L550.000008277595,143.50000435858965"></path></g><path id="node_outline21" fill="#e8c009" stroke="none" d="M556.5000084415078,134.50000435858965h91a5,5,0,0,1,5,5v8a5,5,0,0,1,-5,5h-91a5,5,0,0,1,-5,-5v-8a5,5,0,0,1,5,-5z"></path><g id="node_text21" fill="#ffffff"><text id="kity_text_198" text-rendering="inherit" font-size="12" dy=".8em" font-weight="bold" y="135.70000433176756" x="556.5000084415078">幸福 Happiness</text></g></g><g id="minder_node22"><g id="node_expander19" display="none" style="cursor: pointer;"><path id="kity_path_434" fill="white" stroke="gray" d="M579.5000086948276,178.5000048801303A6,6,0,1,1,567.5000086948276,178.5000048801303A6,6,0,1,1,579.5000086948276,178.5000048801303"></path><path id="kity_path_435" fill="none" stroke="gray"></path></g><path id="node_outline20" fill="#e8c009" stroke="none" d="M584.5000088587403,160.5000048801303h121a5,5,0,0,1,5,5v26a5,5,0,0,1,-5,5h-121a5,5,0,0,1,-5,-5v-26a5,5,0,0,1,5,-5z"></path><g id="node_text20" fill="#ffffff"><text id="kity_text_195" text-rendering="inherit" font-size="12" dy=".8em" font-weight="bold" y="161.7000048533082" x="584.5000088587403">积极心理学&#xa0;</text><text id="kity_text_196" text-rendering="inherit" font-size="12" dy=".8em" font-weight="bold" y="179.7000048533082" x="584.5000088587403">Positive Psychology</text></g></g><g id="minder_node23"><g id="node_expander22" style="cursor: pointer;"><path id="kity_path_443" fill="white" stroke="gray" d="M551.500008277595,213.50000540167093A6,6,0,1,1,539.500008277595,213.50000540167093A6,6,0,1,1,551.500008277595,213.50000540167093"></path><path id="kity_path_444" fill="none" stroke="gray" d="M541.000008277595,213.50000540167093L550.000008277595,213.50000540167093"></path></g><path id="node_outline23" fill="#e8c009" stroke="none" d="M556.5000084415078,204.50000540167093h70a5,5,0,0,1,5,5v8a5,5,0,0,1,-5,5h-70a5,5,0,0,1,-5,-5v-8a5,5,0,0,1,5,-5z"></path><g id="node_text23" fill="#ffffff"><text id="kity_text_202" text-rendering="inherit" font-size="12" dy=".8em" font-weight="bold" y="205.70000537484884" x="556.5000084415078">幽默&#xa0;Humor</text></g></g><g id="minder_node24"><g id="node_expander21" display="none" style="cursor: pointer;"><path id="kity_path_440" fill="white" stroke="gray" d="M579.5000086948276,239.50000578910112A6,6,0,1,1,567.5000086948276,239.50000578910112A6,6,0,1,1,579.5000086948276,239.50000578910112"></path><path id="kity_path_441" fill="none" stroke="gray"></path></g><path id="node_outline22" fill="none" stroke="none" d="M584.5000088587403,230.50000578910112h84a5,5,0,0,1,5,5v8a5,5,0,0,1,-5,5h-84a5,5,0,0,1,-5,-5v-8a5,5,0,0,1,5,-5z"></path><g id="node_text22" fill="black"><text id="kity_text_200" text-rendering="inherit" font-size="12" dy=".8em" y="231.70000576227903" x="584.5000088587403">用幽默揭示真相</text></g></g><g id="minder_node25"><g id="node_expander26" style="cursor: pointer;"><path id="kity_path_455" fill="white" stroke="gray" d="M551.500008277595,265.5000061765313A6,6,0,1,1,539.500008277595,265.5000061765313A6,6,0,1,1,551.500008277595,265.5000061765313"></path><path id="kity_path_456" fill="none" stroke="gray" d="M541.000008277595,265.5000061765313L550.000008277595,265.5000061765313"></path></g><path id="node_outline27" fill="#e8c009" stroke="none" d="M556.5000084415078,256.5000061765313h79a5,5,0,0,1,5,5v8a5,5,0,0,1,-5,5h-79a5,5,0,0,1,-5,-5v-8a5,5,0,0,1,5,-5z"></path><g id="node_text27" fill="#ffffff"><text id="kity_text_212" text-rendering="inherit" font-size="12" dy=".8em" font-weight="bold" y="257.7000061497092" x="556.5000084415078">情绪 Emotion</text></g></g><g id="minder_node26"><g id="node_expander23" display="none" style="cursor: pointer;"><path id="kity_path_446" fill="white" stroke="gray" d="M579.5000086948276,300.50000669807196A6,6,0,1,1,567.5000086948276,300.50000669807196A6,6,0,1,1,579.5000086948276,300.50000669807196"></path><path id="kity_path_447" fill="none" stroke="gray"></path></g><path id="node_outline24" fill="none" stroke="none" d="M584.5000088587403,282.50000669807196h301a5,5,0,0,1,5,5v26a5,5,0,0,1,-5,5h-301a5,5,0,0,1,-5,-5v-26a5,5,0,0,1,5,-5z"></path><g id="node_text24" fill="black"><text id="kity_text_204" text-rendering="inherit" font-size="12" dy=".8em" y="283.70000667124987" x="584.5000088587403">情绪并不是人类天生就具有的，而是根据后天经验构建的</text><text id="kity_text_205" text-rendering="inherit" font-size="12" dy=".8em" y="301.70000667124987" x="584.5000088587403">&#xa0;处在对的情绪里，我们能完成任何事</text></g></g><g id="minder_node27"><g id="node_expander25" style="cursor: pointer;"><path id="kity_path_452" fill="white" stroke="gray" d="M579.5000086948276,335.5000072196126A6,6,0,1,1,567.5000086948276,335.5000072196126A6,6,0,1,1,579.5000086948276,335.5000072196126"></path><path id="kity_path_453" fill="none" stroke="gray" d="M569.0000086948276,335.5000072196126L578.0000086948276,335.5000072196126"></path></g><path id="node_outline26" fill="none" stroke="none" d="M584.5000088587403,326.5000072196126h73a5,5,0,0,1,5,5v8a5,5,0,0,1,-5,5h-73a5,5,0,0,1,-5,-5v-8a5,5,0,0,1,5,-5z"></path><g id="node_text26" fill="black"><text id="kity_text_210" text-rendering="inherit" font-size="12" dy=".8em" y="327.7000071927905" x="584.5000088587403">如何对待情绪</text></g></g><g id="minder_node28"><g id="node_expander24" display="none" style="cursor: pointer;"><path id="kity_path_449" fill="white" stroke="gray" d="M607.5000091120601,370.50000774115324A6,6,0,1,1,595.5000091120601,370.50000774115324A6,6,0,1,1,607.5000091120601,370.50000774115324"></path><path id="kity_path_450" fill="none" stroke="gray"></path></g><path id="node_outline25" fill="none" stroke="none" d="M612.5000092759728,352.50000774115324h310a5,5,0,0,1,5,5v26a5,5,0,0,1,-5,5h-310a5,5,0,0,1,-5,-5v-26a5,5,0,0,1,5,-5z"></path><g id="node_text25" fill="black"><text id="kity_text_207" text-rendering="inherit" font-size="12" dy=".8em" y="353.70000771433115" x="612.5000092759728">1.情绪没有好坏之分，我们要积极面对所谓的“坏情绪” </text><text id="kity_text_208" text-rendering="inherit" font-size="12" dy=".8em" y="371.70000771433115" x="612.5000092759728">2.我们要从情绪中挖掘出有价值的信息，而不是被情绪控制</text></g></g><g id="minder_node29"><g id="node_expander46" style="cursor: pointer;"><path id="kity_path_515" fill="white" stroke="gray" d="M997.0000149160624,83.50000346451998A6,6,0,1,1,985.0000149160624,83.50000346451998A6,6,0,1,1,997.0000149160624,83.50000346451998"></path><path id="kity_path_516" fill="none" stroke="gray" d="M986.5000149160624,83.50000346451998L995.5000149160624,83.50000346451998"></path></g><path id="node_outline47" fill="#e8c009" stroke="rgb(191, 147, 115)" d="M946.5000148788095,90.50000380724669h89a3,3,0,0,1,3,3v26a3,3,0,0,1,-3,3h-89a3,3,0,0,1,-3,-3v-26a3,3,0,0,1,3,-3z" stroke-width="1"></path><g id="node_text47" fill="#ffffff"><text id="kity_text_254" text-rendering="inherit" font-size="14" dy=".8em" font-weight="bold" y="97.40000377595425" x="988.5000148788095">偏见</text></g><g id="node_priority3"><path id="kity_path_303" fill="#4720C4" stroke="none" d="M964.000014513731,110.00000366568565c0,3.866,3.134,7,7,7h6c3.866,0,7,-3.134,7,-7V104.00000366568565H964.000014513731V110.00000366568565z"></path><path id="kity_path_304" fill="#A464FF" stroke="none" d="M984.000014513731,107.00000366568565c0,3.866,-3.134,7,-7,7H971.000014513731c-3.866,0,-7,-3.134,-7,-7V104.00000366568565c0,-3.866,3.134,-7,7,-7h6c3.866,0,7,3.134,7,7V107.00000366568565z" opacity="0.8"></path><text id="kity_text_305" text-rendering="geometricPrecision" x="973.0000145062804" y="106.50000365823507" text-anchor="middle" font-style="italic" font-size="12" fill="white" dy="5">5</text></g></g><g id="minder_node30"><g id="node_expander32" style="cursor: pointer;"><path id="kity_path_473" fill="white" stroke="gray" d="M971.5000145360827,143.50000435858965A6,6,0,1,1,959.5000145360827,143.50000435858965A6,6,0,1,1,971.5000145360827,143.50000435858965"></path><path id="kity_path_474" fill="none" stroke="gray" d="M961.0000145360827,143.50000435858965L970.0000145360827,143.50000435858965"></path></g><path id="node_outline33" fill="#e8c009" stroke="none" d="M976.5000146999955,134.50000435858965h60a5,5,0,0,1,5,5v8a5,5,0,0,1,-5,5h-60a5,5,0,0,1,-5,-5v-8a5,5,0,0,1,5,-5z"></path><g id="node_text33" fill="#ffffff"><text id="kity_text_224" text-rendering="inherit" font-size="12" dy=".8em" font-weight="bold" y="135.70000433176756" x="976.5000146999955">编码 Code</text></g></g><g id="minder_node31"><g id="node_expander28" display="none" style="cursor: pointer;"><path id="kity_path_461" fill="white" stroke="gray" d="M999.5000149533153,169.50000474601984A6,6,0,1,1,987.5000149533153,169.50000474601984A6,6,0,1,1,999.5000149533153,169.50000474601984"></path><path id="kity_path_462" fill="none" stroke="gray"></path></g><path id="node_outline29" fill="none" stroke="none" d="M1004.500015117228,160.50000474601984h253a5,5,0,0,1,5,5v8a5,5,0,0,1,-5,5h-253a5,5,0,0,1,-5,-5v-8a5,5,0,0,1,5,-5z"></path><g id="node_text29" fill="black"><text id="kity_text_216" text-rendering="inherit" font-size="12" dy=".8em" y="161.70000471919775" x="1004.500015117228">写代码不分性别也并非无趣，是改变世界的方式</text></g></g><g id="minder_node32"><g id="node_expander29" display="none" style="cursor: pointer;"><path id="kity_path_464" fill="white" stroke="gray" d="M999.5000149533153,195.50000513345003A6,6,0,1,1,987.5000149533153,195.50000513345003A6,6,0,1,1,999.5000149533153,195.50000513345003"></path><path id="kity_path_465" fill="none" stroke="gray"></path></g><path id="node_outline30" fill="none" stroke="none" d="M1004.500015117228,186.50000513345003h217a5,5,0,0,1,5,5v8a5,5,0,0,1,-5,5h-217a5,5,0,0,1,-5,-5v-8a5,5,0,0,1,5,-5z"></path><g id="node_text30" fill="black"><text id="kity_text_218" text-rendering="inherit" font-size="12" dy=".8em" y="187.70000510662794" x="1004.500015117228">黑客编程一直是健康民主的重要组成部分</text></g></g><g id="minder_node33"><g id="node_expander31" style="cursor: pointer;"><path id="kity_path_470" fill="white" stroke="gray" d="M999.5000149533153,221.50000552088022A6,6,0,1,1,987.5000149533153,221.50000552088022A6,6,0,1,1,999.5000149533153,221.50000552088022"></path><path id="kity_path_471" fill="none" stroke="gray" d="M989.0000149533153,221.50000552088022L998.0000149533153,221.50000552088022"></path></g><path id="node_outline32" fill="none" stroke="none" d="M1004.500015117228,212.50000552088022h145a5,5,0,0,1,5,5v8a5,5,0,0,1,-5,5h-145a5,5,0,0,1,-5,-5v-8a5,5,0,0,1,5,-5z"></path><g id="node_text32" fill="black"><text id="kity_text_222" text-rendering="inherit" font-size="12" dy=".8em" y="213.70000549405813" x="1004.500015117228">好的骇客可以塑造好的公民</text></g></g><g id="minder_node34"><g id="node_expander30" display="none" style="cursor: pointer;"><path id="kity_path_467" fill="white" stroke="gray" d="M1027.5000153705478,247.5000059083104A6,6,0,1,1,1015.5000153705478,247.5000059083104A6,6,0,1,1,1027.5000153705478,247.5000059083104"></path><path id="kity_path_468" fill="none" stroke="gray"></path></g><path id="node_outline31" fill="none" stroke="none" d="M1032.5000155344605,238.5000059083104h375a5,5,0,0,1,5,5v8a5,5,0,0,1,-5,5h-375a5,5,0,0,1,-5,-5v-8a5,5,0,0,1,5,-5z"></path><g id="node_text31" fill="black"><text id="kity_text_220" text-rendering="inherit" font-size="12" dy=".8em" y="239.70000588148832" x="1032.5000155344605">eg：骇客帮助政府解决问题，公民因此而享受参与政府互动的新途径等</text></g></g><g id="minder_node35"><g id="node_expander37" style="cursor: pointer;"><path id="kity_path_488" fill="white" stroke="gray" d="M971.5000145360827,273.5000062957406A6,6,0,1,1,959.5000145360827,273.5000062957406A6,6,0,1,1,971.5000145360827,273.5000062957406"></path><path id="kity_path_489" fill="none" stroke="gray" d="M961.0000145360827,273.5000062957406L970.0000145360827,273.5000062957406"></path></g><path id="node_outline38" fill="#e8c009" stroke="none" d="M976.5000146999955,264.5000062957406h129a5,5,0,0,1,5,5v8a5,5,0,0,1,-5,5h-129a5,5,0,0,1,-5,-5v-8a5,5,0,0,1,5,-5z"></path><g id="node_text38" fill="#ffffff"><text id="kity_text_236" text-rendering="inherit" font-size="12" dy=".8em" font-weight="bold" y="265.7000062689185" x="976.5000146999955">过滤气泡&#xa0;Filter bubble</text></g></g><g id="minder_node36"><g id="node_expander33" display="none" style="cursor: pointer;"><path id="kity_path_476" fill="white" stroke="gray" d="M999.5000149533153,308.50000681728125A6,6,0,1,1,987.5000149533153,308.50000681728125A6,6,0,1,1,999.5000149533153,308.50000681728125"></path><path id="kity_path_477" fill="none" stroke="gray"></path></g><path id="node_outline34" fill="none" stroke="none" d="M1004.500015117228,290.50000681728125h241a5,5,0,0,1,5,5v26a5,5,0,0,1,-5,5h-241a5,5,0,0,1,-5,-5v-26a5,5,0,0,1,5,-5z"></path><g id="node_text34" fill="black"><text id="kity_text_226" text-rendering="inherit" font-size="12" dy=".8em" y="291.70000679045916" x="1004.500015117228">相同的观点会不断重复，异己观点会被过滤，</text><text id="kity_text_227" text-rendering="inherit" font-size="12" dy=".8em" y="309.70000679045916" x="1004.500015117228">导致群体产生偏见</text></g></g><g id="minder_node37"><g id="node_expander36" style="cursor: pointer;"><path id="kity_path_485" fill="white" stroke="gray" d="M999.5000149533153,352.50000747293234A6,6,0,1,1,987.5000149533153,352.50000747293234A6,6,0,1,1,999.5000149533153,352.50000747293234"></path><path id="kity_path_486" fill="none" stroke="gray" d="M989.0000149533153,352.50000747293234L998.0000149533153,352.50000747293234"></path></g><path id="node_outline37" fill="#e8c009" stroke="none" d="M1004.500015117228,334.50000747293234h152a5,5,0,0,1,5,5v26a5,5,0,0,1,-5,5h-152a5,5,0,0,1,-5,-5v-26a5,5,0,0,1,5,-5z"></path><g id="node_text37" fill="#ffffff"><text id="kity_text_233" text-rendering="inherit" font-size="12" dy=".8em" font-weight="bold" y="335.70000744611025" x="1004.500015117228">信息可视化&#xa0;</text><text id="kity_text_234" text-rendering="inherit" font-size="12" dy=".8em" font-weight="bold" y="353.70000744611025" x="1004.500015117228">Information visualization</text></g></g><g id="minder_node38"><g id="node_expander34" display="none" style="cursor: pointer;"><path id="kity_path_479" fill="white" stroke="gray" d="M1027.5000153705478,387.500007994473A6,6,0,1,1,1015.5000153705478,387.500007994473A6,6,0,1,1,1027.5000153705478,387.500007994473"></path><path id="kity_path_480" fill="none" stroke="gray"></path></g><path id="node_outline35" fill="none" stroke="none" d="M1032.5000155344605,378.500007994473h146a5,5,0,0,1,5,5v8a5,5,0,0,1,-5,5h-146a5,5,0,0,1,-5,-5v-8a5,5,0,0,1,5,-5z"></path><g id="node_text35" fill="black"><text id="kity_text_229" text-rendering="inherit" font-size="12" dy=".8em" y="379.7000079676509" x="1032.5000155344605">让公众易于读懂数据的意义</text></g></g><g id="minder_node39"><g id="node_expander35" display="none" style="cursor: pointer;"><path id="kity_path_482" fill="white" stroke="gray" d="M1027.5000153705478,413.50000838190317A6,6,0,1,1,1015.5000153705478,413.50000838190317A6,6,0,1,1,1027.5000153705478,413.50000838190317"></path><path id="kity_path_483" fill="none" stroke="gray"></path></g><path id="node_outline36" fill="none" stroke="none" d="M1032.5000155344605,404.50000838190317h205a5,5,0,0,1,5,5v8a5,5,0,0,1,-5,5h-205a5,5,0,0,1,-5,-5v-8a5,5,0,0,1,5,-5z"></path><g id="node_text36" fill="black"><text id="kity_text_231" text-rendering="inherit" font-size="12" dy=".8em" y="405.7000083550811" x="1032.5000155344605">打破偏见，让更多的人知道真实的情况</text></g></g><g id="minder_node40"><g id="node_expander45" style="cursor: pointer;"><path id="kity_path_512" fill="white" stroke="gray" d="M971.5000145360827,439.50000876933336A6,6,0,1,1,959.5000145360827,439.50000876933336A6,6,0,1,1,971.5000145360827,439.50000876933336"></path><path id="kity_path_513" fill="none" stroke="gray" d="M961.0000145360827,439.50000876933336L970.0000145360827,439.50000876933336"></path></g><path id="node_outline46" fill="#e8c009" stroke="none" d="M976.5000146999955,430.50000876933336h90a5,5,0,0,1,5,5v8a5,5,0,0,1,-5,5h-90a5,5,0,0,1,-5,-5v-8a5,5,0,0,1,5,-5z"></path><g id="node_text46" fill="#ffffff"><text id="kity_text_252" text-rendering="inherit" font-size="12" dy=".8em" font-weight="bold" y="431.7000087425113" x="976.5000146999955">大数据 Big data</text></g></g><g id="minder_node41"><g id="node_expander38" display="none" style="cursor: pointer;"><path id="kity_path_491" fill="white" stroke="gray" d="M999.5000149533153,465.50000915676355A6,6,0,1,1,987.5000149533153,465.50000915676355A6,6,0,1,1,999.5000149533153,465.50000915676355"></path><path id="kity_path_492" fill="none" stroke="gray"></path></g><path id="node_outline39" fill="none" stroke="none" d="M1004.500015117228,456.50000915676355h133a5,5,0,0,1,5,5v8a5,5,0,0,1,-5,5h-133a5,5,0,0,1,-5,-5v-8a5,5,0,0,1,5,-5z"></path><g id="node_text39" fill="black"><text id="kity_text_238" text-rendering="inherit" font-size="12" dy=".8em" y="457.70000912994146" x="1004.500015117228">数据本身并可能带有偏见</text></g></g><g id="minder_node42"><g id="node_expander41" style="cursor: pointer;"><path id="kity_path_500" fill="white" stroke="gray" d="M999.5000149533153,491.50000954419374A6,6,0,1,1,987.5000149533153,491.50000954419374A6,6,0,1,1,999.5000149533153,491.50000954419374"></path><path id="kity_path_501" fill="none" stroke="gray" d="M989.0000149533153,491.50000954419374L998.0000149533153,491.50000954419374"></path></g><path id="node_outline42" fill="none" stroke="none" d="M1004.500015117228,482.50000954419374h160a5,5,0,0,1,5,5v8a5,5,0,0,1,-5,5h-160a5,5,0,0,1,-5,-5v-8a5,5,0,0,1,5,-5z"></path><g id="node_text42" fill="black"><text id="kity_text_244" text-rendering="inherit" font-size="12" dy=".8em" y="483.70000951737165" x="1004.500015117228">作为公民， 如何应对大数据？</text></g></g><g id="minder_node43"><g id="node_expander39" display="none" style="cursor: pointer;"><path id="kity_path_494" fill="white" stroke="gray" d="M1027.5000153705478,517.5000099316239A6,6,0,1,1,1015.5000153705478,517.5000099316239A6,6,0,1,1,1027.5000153705478,517.5000099316239"></path><path id="kity_path_495" fill="none" stroke="gray"></path></g><path id="node_outline40" fill="none" stroke="none" d="M1032.5000155344605,508.50000993162394h217a5,5,0,0,1,5,5v8a5,5,0,0,1,-5,5h-217a5,5,0,0,1,-5,-5v-8a5,5,0,0,1,5,-5z"></path><g id="node_text40" fill="black"><text id="kity_text_240" text-rendering="inherit" font-size="12" dy=".8em" y="509.70000990480185" x="1032.5000155344605">有责任花更多时间来锻炼批判性思维能力</text></g></g><g id="minder_node44"><g id="node_expander40" display="none" style="cursor: pointer;"><path id="kity_path_497" fill="white" stroke="gray" d="M1027.5000153705478,543.5000103190541A6,6,0,1,1,1015.5000153705478,543.5000103190541A6,6,0,1,1,1027.5000153705478,543.5000103190541"></path><path id="kity_path_498" fill="none" stroke="gray"></path></g><path id="node_outline41" fill="none" stroke="none" d="M1032.5000155344605,534.5000103190541h98a5,5,0,0,1,5,5v8a5,5,0,0,1,-5,5h-98a5,5,0,0,1,-5,-5v-8a5,5,0,0,1,5,-5z"></path><g id="node_text41" fill="black"><text id="kity_text_242" text-rendering="inherit" font-size="12" dy=".8em" y="535.700010292232" x="1032.5000155344605">利用数据了解自己</text></g></g><g id="minder_node45"><g id="node_expander44" style="cursor: pointer;"><path id="kity_path_509" fill="white" stroke="gray" d="M999.5000149533153,569.5000107064843A6,6,0,1,1,987.5000149533153,569.5000107064843A6,6,0,1,1,999.5000149533153,569.5000107064843"></path><path id="kity_path_510" fill="none" stroke="gray" d="M989.0000149533153,569.5000107064843L998.0000149533153,569.5000107064843"></path></g><path id="node_outline45" fill="none" stroke="none" d="M1004.500015117228,560.5000107064843h73a5,5,0,0,1,5,5v8a5,5,0,0,1,-5,5h-73a5,5,0,0,1,-5,-5v-8a5,5,0,0,1,5,-5z"></path><g id="node_text45" fill="black"><text id="kity_text_250" text-rendering="inherit" font-size="12" dy=".8em" y="561.7000106796622" x="1004.500015117228">防止数据独裁</text></g></g><g id="minder_node46"><g id="node_expander42" display="none" style="cursor: pointer;"><path id="kity_path_503" fill="white" stroke="gray" d="M1027.5000153705478,595.5000110939145A6,6,0,1,1,1015.5000153705478,595.5000110939145A6,6,0,1,1,1027.5000153705478,595.5000110939145"></path><path id="kity_path_504" fill="none" stroke="gray"></path></g><path id="node_outline43" fill="none" stroke="none" d="M1032.5000155344605,586.5000110939145h86a5,5,0,0,1,5,5v8a5,5,0,0,1,-5,5h-86a5,5,0,0,1,-5,-5v-8a5,5,0,0,1,5,-5z"></path><g id="node_text43" fill="black"><text id="kity_text_246" text-rendering="inherit" font-size="12" dy=".8em" y="587.7000110670924" x="1032.5000155344605">分布式数据处理</text></g></g><g id="minder_node47"><g id="node_expander43" display="none" style="cursor: pointer;"><path id="kity_path_506" fill="white" stroke="gray" d="M1027.5000153705478,621.5000114813447A6,6,0,1,1,1015.5000153705478,621.5000114813447A6,6,0,1,1,1027.5000153705478,621.5000114813447"></path><path id="kity_path_507" fill="none" stroke="gray"></path></g><path id="node_outline44" fill="none" stroke="none" d="M1032.5000155344605,612.5000114813447h50a5,5,0,0,1,5,5v8a5,5,0,0,1,-5,5h-50a5,5,0,0,1,-5,-5v-8a5,5,0,0,1,5,-5z"></path><g id="node_text44" fill="black"><text id="kity_text_248" text-rendering="inherit" font-size="12" dy=".8em" y="613.7000114545226" x="1032.5000155344605">分享数据</text></g></g><g id="minder_node48"><g id="node_expander51" style="cursor: pointer;"><path id="kity_path_530" fill="white" stroke="gray" d="M1517.5000226721168,83.50000346451998A6,6,0,1,1,1505.5000226721168,83.50000346451998A6,6,0,1,1,1517.5000226721168,83.50000346451998"></path><path id="kity_path_531" fill="none" stroke="gray" d="M1507.0000226721168,83.50000346451998L1516.0000226721168,83.50000346451998"></path></g><path id="node_outline52" fill="#e8c009" stroke="rgb(191, 147, 115)" d="M1431.5000221058726,90.50000380724669h160a3,3,0,0,1,3,3v26a3,3,0,0,1,-3,3h-160a3,3,0,0,1,-3,-3v-26a3,3,0,0,1,3,-3z" stroke-width="1"></path><g id="node_text52" fill="#ffffff"><text id="kity_text_265" text-rendering="inherit" font-size="14" dy=".8em" font-weight="bold" y="97.40000377595425" x="1473.5000221058726">上瘾&#xa0;Addiction</text></g><g id="node_priority4"><path id="kity_path_308" fill="#4720C4" stroke="none" d="M1449.0000217407942,110.00000366568565c0,3.866,3.134,7,7,7h6c3.866,0,7,-3.134,7,-7V104.00000366568565H1449.0000217407942V110.00000366568565z"></path><path id="kity_path_309" fill="#A464FF" stroke="none" d="M1469.0000217407942,107.00000366568565c0,3.866,-3.134,7,-7,7H1456.0000217407942c-3.866,0,-7,-3.134,-7,-7V104.00000366568565c0,-3.866,3.134,-7,7,-7h6c3.866,0,7,3.134,7,7V107.00000366568565z" opacity="0.8"></path><text id="kity_text_310" text-rendering="geometricPrecision" x="1458.0000217333436" y="106.50000365823507" text-anchor="middle" font-style="italic" font-size="12" fill="white" dy="5">5</text></g></g><g id="minder_node49"><g id="node_expander48" style="cursor: pointer;"><path id="kity_path_521" fill="white" stroke="gray" d="M1456.500021763146,143.50000435858965A6,6,0,1,1,1444.500021763146,143.50000435858965A6,6,0,1,1,1456.500021763146,143.50000435858965"></path><path id="kity_path_522" fill="none" stroke="gray" d="M1446.000021763146,143.50000435858965L1455.000021763146,143.50000435858965"></path></g><path id="node_outline49" fill="#e8c009" stroke="none" d="M1461.5000219270587,134.50000435858965h99a5,5,0,0,1,5,5v8a5,5,0,0,1,-5,5h-99a5,5,0,0,1,-5,-5v-8a5,5,0,0,1,5,-5z"></path><g id="node_text49" fill="#ffffff"><text id="kity_text_258" text-rendering="inherit" font-size="12" dy=".8em" font-weight="bold" y="135.70000433176756" x="1461.5000219270587">注意力&#xa0;Attention</text></g></g><g id="minder_node50"><g id="node_expander47" display="none" style="cursor: pointer;"><path id="kity_path_518" fill="white" stroke="gray" d="M1484.5000221803784,169.50000474601984A6,6,0,1,1,1472.5000221803784,169.50000474601984A6,6,0,1,1,1484.5000221803784,169.50000474601984"></path><path id="kity_path_519" fill="none" stroke="gray"></path></g><path id="node_outline48" fill="none" stroke="none" d="M1489.5000223442912,160.50000474601984h193a5,5,0,0,1,5,5v8a5,5,0,0,1,-5,5h-193a5,5,0,0,1,-5,-5v-8a5,5,0,0,1,5,-5z"></path><g id="node_text48" fill="black"><text id="kity_text_256" text-rendering="inherit" font-size="12" dy=".8em" y="161.70000471919775" x="1489.5000223442912">用户的注意力成为被科技竞争的对象</text></g></g><g id="minder_node51"><g id="node_expander49" display="none" style="cursor: pointer;"><path id="kity_path_524" fill="white" stroke="gray" d="M1456.500021763146,195.50000513345003A6,6,0,1,1,1444.500021763146,195.50000513345003A6,6,0,1,1,1456.500021763146,195.50000513345003"></path><path id="kity_path_525" fill="none" stroke="gray"></path></g><path id="node_outline50" fill="none" stroke="none" d="M1461.5000219270587,186.50000513345003h109a5,5,0,0,1,5,5v8a5,5,0,0,1,-5,5h-109a5,5,0,0,1,-5,-5v-8a5,5,0,0,1,5,-5z"></path><g id="node_text50" fill="black"><text id="kity_text_260" text-rendering="inherit" font-size="12" dy=".8em" y="187.70000510662794" x="1461.5000219270587">联系是上瘾的对立面</text></g></g><g id="minder_node52"><g id="node_expander50" display="none" style="cursor: pointer;"><path id="kity_path_527" fill="white" stroke="gray" d="M1456.500021763146,230.50000565499067A6,6,0,1,1,1444.500021763146,230.50000565499067A6,6,0,1,1,1456.500021763146,230.50000565499067"></path><path id="kity_path_528" fill="none" stroke="gray"></path></g><path id="node_outline51" fill="none" stroke="none" d="M1461.5000219270587,212.50000565499067h193a5,5,0,0,1,5,5v26a5,5,0,0,1,-5,5h-193a5,5,0,0,1,-5,-5v-26a5,5,0,0,1,5,-5z"></path><g id="node_text51" fill="black"><text id="kity_text_262" text-rendering="inherit" font-size="12" dy=".8em" y="213.70000562816858" x="1461.5000219270587">与外界失联，缺少和外界健康的依赖</text><text id="kity_text_263" text-rendering="inherit" font-size="12" dy=".8em" y="231.70000562816858" x="1461.5000219270587">是上瘾的导致因素。</text></g></g><g id="minder_node53"><g id="node_expander63" style="cursor: pointer;"><path id="kity_path_566" fill="white" stroke="gray" d="M1839.5000274702907,88.50000353902578A6,6,0,1,1,1827.5000274702907,88.50000353902578A6,6,0,1,1,1839.5000274702907,88.50000353902578"></path><path id="kity_path_567" fill="none" stroke="gray" d="M1829.0000274702907,88.50000353902578L1838.0000274702907,88.50000353902578"></path></g><path id="node_outline64" fill="#e8c009" stroke="rgb(191, 147, 115)" d="M1775.500027231872,95.50000388175249h116a3,3,0,0,1,3,3v26a3,3,0,0,1,-3,3h-116a3,3,0,0,1,-3,-3v-26a3,3,0,0,1,3,-3z" stroke-width="1"></path><g id="node_text64" fill="#ffffff"><text id="kity_text_289" text-rendering="inherit" font-size="14" dy=".8em" font-weight="bold" y="102.40000385046005" x="1817.500027231872">系统思维</text></g><g id="node_priority5"><path id="kity_path_313" fill="#4720C4" stroke="none" d="M1793.0000268667936,115.00000374019146c0,3.866,3.134,7,7,7h6c3.866,0,7,-3.134,7,-7V109.00000374019146H1793.0000268667936V115.00000374019146z"></path><path id="kity_path_314" fill="#A464FF" stroke="none" d="M1813.0000268667936,112.00000374019146c0,3.866,-3.134,7,-7,7H1800.0000268667936c-3.866,0,-7,-3.134,-7,-7V109.00000374019146c0,-3.866,3.134,-7,7,-7h6c3.866,0,7,3.134,7,7V112.00000374019146z" opacity="0.8"></path><text id="kity_text_315" text-rendering="geometricPrecision" x="1802.000026859343" y="111.50000373274088" text-anchor="middle" font-style="italic" font-size="12" fill="white" dy="5">5</text></g></g><g id="minder_node54"><g id="node_expander55" style="cursor: pointer;"><path id="kity_path_542" fill="white" stroke="gray" d="M1800.5000268891454,148.50000443309546A6,6,0,1,1,1788.5000268891454,148.50000443309546A6,6,0,1,1,1800.5000268891454,148.50000443309546"></path><path id="kity_path_543" fill="none" stroke="gray" d="M1790.0000268891454,148.50000443309546L1799.0000268891454,148.50000443309546"></path></g><path id="node_outline56" fill="#e8c009" stroke="none" d="M1805.5000270530581,139.50000443309546h70a5,5,0,0,1,5,5v8a5,5,0,0,1,-5,5h-70a5,5,0,0,1,-5,-5v-8a5,5,0,0,1,5,-5z"></path><g id="node_text56" fill="#ffffff"><text id="kity_text_273" text-rendering="inherit" font-size="12" dy=".8em" font-weight="bold" y="140.70000440627337" x="1805.5000270530581">&#xa0;权力 power</text></g></g><g id="minder_node55"><g id="node_expander52" display="none" style="cursor: pointer;"><path id="kity_path_533" fill="white" stroke="gray" d="M1828.500027306378,174.50000482052565A6,6,0,1,1,1816.500027306378,174.50000482052565A6,6,0,1,1,1828.500027306378,174.50000482052565"></path><path id="kity_path_534" fill="none" stroke="gray"></path></g><path id="node_outline53" fill="none" stroke="none" d="M1833.5000274702907,165.50000482052565h316a5,5,0,0,1,5,5v8a5,5,0,0,1,-5,5h-316a5,5,0,0,1,-5,-5v-8a5,5,0,0,1,5,-5z"></path><g id="node_text53" fill="black"><text id="kity_text_267" text-rendering="inherit" font-size="12" dy=".8em" y="166.70000479370356" x="1833.5000274702907">权力是属于制定游戏规则的人，他有能力让别人服从规则。&#xa0;</text></g></g><g id="minder_node56"><g id="node_expander54" style="cursor: pointer;"><path id="kity_path_539" fill="white" stroke="gray" d="M1828.500027306378,200.50000520795584A6,6,0,1,1,1816.500027306378,200.50000520795584A6,6,0,1,1,1828.500027306378,200.50000520795584"></path><path id="kity_path_540" fill="none" stroke="gray" d="M1818.000027306378,200.50000520795584L1827.000027306378,200.50000520795584"></path></g><path id="node_outline55" fill="none" stroke="none" d="M1833.5000274702907,191.50000520795584h124a5,5,0,0,1,5,5v8a5,5,0,0,1,-5,5h-124a5,5,0,0,1,-5,-5v-8a5,5,0,0,1,5,-5z"></path><g id="node_text55" fill="black"><text id="kity_text_271" text-rendering="inherit" font-size="12" dy=".8em" y="192.70000518113375" x="1833.5000274702907">&#xa0;如何在生活中更有权力</text></g></g><g id="minder_node57"><g id="node_expander53" display="none" style="cursor: pointer;"><path id="kity_path_536" fill="white" stroke="gray" d="M1856.5000277236104,226.50000559538603A6,6,0,1,1,1844.5000277236104,226.50000559538603A6,6,0,1,1,1856.5000277236104,226.50000559538603"></path><path id="kity_path_537" fill="none" stroke="gray"></path></g><path id="node_outline54" fill="none" stroke="none" d="M1861.5000278875232,217.50000559538603h169a5,5,0,0,1,5,5v8a5,5,0,0,1,-5,5h-169a5,5,0,0,1,-5,-5v-8a5,5,0,0,1,5,-5z"></path><g id="node_text54" fill="black"><text id="kity_text_269" text-rendering="inherit" font-size="12" dy=".8em" y="218.70000556856394" x="1861.5000278875232">拥有阅读权力和书写权力的能力</text></g></g><g id="minder_node58"><g id="node_expander61" style="cursor: pointer;"><path id="kity_path_560" fill="white" stroke="gray" d="M1800.5000268891454,252.50000598281622A6,6,0,1,1,1788.5000268891454,252.50000598281622A6,6,0,1,1,1800.5000268891454,252.50000598281622"></path><path id="kity_path_561" fill="none" stroke="gray" d="M1790.0000268891454,252.50000598281622L1799.0000268891454,252.50000598281622"></path></g><path id="node_outline62" fill="none" stroke="none" d="M1805.5000270530581,243.50000598281622h110a5,5,0,0,1,5,5v8a5,5,0,0,1,-5,5h-110a5,5,0,0,1,-5,-5v-8a5,5,0,0,1,5,-5z"></path><g id="node_text62" fill="black"><text id="kity_text_285" text-rendering="inherit" font-size="12" dy=".8em" y="244.70000595599413" x="1805.5000270530581">环境与可持续化设计</text></g></g><g id="minder_node59"><g id="node_expander60" style="cursor: pointer;"><path id="kity_path_557" fill="white" stroke="gray" d="M1828.500027306378,278.5000063702464A6,6,0,1,1,1816.500027306378,278.5000063702464A6,6,0,1,1,1828.500027306378,278.5000063702464"></path><path id="kity_path_558" fill="none" stroke="gray" d="M1818.000027306378,278.5000063702464L1827.000027306378,278.5000063702464"></path></g><path id="node_outline61" fill="none" stroke="none" d="M1833.5000274702907,269.5000063702464h49a5,5,0,0,1,5,5v8a5,5,0,0,1,-5,5h-49a5,5,0,0,1,-5,-5v-8a5,5,0,0,1,5,-5z"></path><g id="node_text61" fill="black"><text id="kity_text_283" text-rendering="inherit" font-size="12" dy=".8em" y="270.7000063434243" x="1833.5000274702907">绿色城市</text></g></g><g id="minder_node60"><g id="node_expander56" display="none" style="cursor: pointer;"><path id="kity_path_545" fill="white" stroke="gray" d="M1856.5000277236104,304.5000067576766A6,6,0,1,1,1844.5000277236104,304.5000067576766A6,6,0,1,1,1856.5000277236104,304.5000067576766"></path><path id="kity_path_546" fill="none" stroke="gray"></path></g><path id="node_outline57" fill="none" stroke="none" d="M1861.5000278875232,295.5000067576766h61a5,5,0,0,1,5,5v8a5,5,0,0,1,-5,5h-61a5,5,0,0,1,-5,-5v-8a5,5,0,0,1,5,-5z"></path><g id="node_text57" fill="black"><text id="kity_text_275" text-rendering="inherit" font-size="12" dy=".8em" y="296.7000067308545" x="1861.5000278875232">蛙跳式发展</text></g></g><g id="minder_node61"><g id="node_expander57" display="none" style="cursor: pointer;"><path id="kity_path_548" fill="white" stroke="gray" d="M1856.5000277236104,330.5000071451068A6,6,0,1,1,1844.5000277236104,330.5000071451068A6,6,0,1,1,1856.5000277236104,330.5000071451068"></path><path id="kity_path_549" fill="none" stroke="gray"></path></g><path id="node_outline58" fill="none" stroke="none" d="M1861.5000278875232,321.5000071451068h50a5,5,0,0,1,5,5v8a5,5,0,0,1,-5,5h-50a5,5,0,0,1,-5,-5v-8a5,5,0,0,1,5,-5z"></path><g id="node_text58" fill="black"><text id="kity_text_277" text-rendering="inherit" font-size="12" dy=".8em" y="322.7000071182847" x="1861.5000278875232">合作工具</text></g></g><g id="minder_node62"><g id="node_expander58" display="none" style="cursor: pointer;"><path id="kity_path_551" fill="white" stroke="gray" d="M1856.5000277236104,356.500007532537A6,6,0,1,1,1844.5000277236104,356.500007532537A6,6,0,1,1,1856.5000277236104,356.500007532537"></path><path id="kity_path_552" fill="none" stroke="gray"></path></g><path id="node_outline59" fill="none" stroke="none" d="M1861.5000278875232,347.500007532537h74a5,5,0,0,1,5,5v8a5,5,0,0,1,-5,5h-74a5,5,0,0,1,-5,-5v-8a5,5,0,0,1,5,-5z"></path><g id="node_text59" fill="black"><text id="kity_text_279" text-rendering="inherit" font-size="12" dy=".8em" y="348.7000075057149" x="1861.5000278875232">重塑新的政治</text></g></g><g id="minder_node63"><g id="node_expander59" display="none" style="cursor: pointer;"><path id="kity_path_554" fill="white" stroke="gray" d="M1856.5000277236104,382.5000079199672A6,6,0,1,1,1844.5000277236104,382.5000079199672A6,6,0,1,1,1856.5000277236104,382.5000079199672"></path><path id="kity_path_555" fill="none" stroke="gray"></path></g><path id="node_outline60" fill="none" stroke="none" d="M1861.5000278875232,373.5000079199672h72a5,5,0,0,1,5,5v8a5,5,0,0,1,-5,5h-72a5,5,0,0,1,-5,-5v-8a5,5,0,0,1,5,-5z"></path><g id="node_text60" fill="black"><text id="kity_text_281" text-rendering="inherit" font-size="12" dy=".8em" y="374.7000078931451" x="1861.5000278875232">“严肃游戏”</text></g></g><g id="minder_node64"><g id="node_expander62" display="none" style="cursor: pointer;"><path id="kity_path_563" fill="white" stroke="gray" d="M1800.5000268891454,408.50000830739737A6,6,0,1,1,1788.5000268891454,408.50000830739737A6,6,0,1,1,1800.5000268891454,408.50000830739737"></path><path id="kity_path_564" fill="none" stroke="gray"></path></g><path id="node_outline63" fill="none" stroke="none" d="M1805.5000270530581,399.50000830739737h277a5,5,0,0,1,5,5v8a5,5,0,0,1,-5,5h-277a5,5,0,0,1,-5,-5v-8a5,5,0,0,1,5,-5z"></path><g id="node_text63" fill="black"><text id="kity_text_287" text-rendering="inherit" font-size="12" dy=".8em" y="400.7000082805753" x="1805.5000270530581">考虑产品的生命周期，更多的关注用户的使用情况。</text></g></g></g></g></svg>