<svg id="kity_svg_6" xmlns="http://www.w3.org/2000/svg" xmlns:xlink="http://www.w3.org/1999/xlink" version="1.1" width="1641" height="598" style="background: rgb(251, 251, 251); visibility: visible;" viewBox="0 0 1641 598"><defs id="kity_defs_7"><linearGradient id="kity_linearGradient_17" x1="0" y1="0" x2="0" y2="1"><stop id="kity_stop_18" offset="0" stop-color="rgb(255, 255, 255)"></stop><stop id="kity_stop_19" offset="1" stop-color="rgb(204, 204, 204)"></stop></linearGradient><marker id="kity_marker_2" orient="auto" refX="6" refY="0" viewBox="-7 -7 14 14" markerWidth="7" markerHeight="7" markerUnits="userSpaceOnUse"><path id="kity_path_3" fill="rgb(115, 161, 191)" stroke="none" d="M6,0A6,6,0,1,1,-6,0A6,6,0,1,1,6,0"></path></marker></defs><g id="kity_g_8"><g id="minder1" text-rendering="optimize-speed"><g id="minder_connect_group1"><path id="kity_path_31" fill="none" stroke="rgb(115, 161, 191)" stroke-width="1" d="M669.5000089630485,72.50000172108412v10h-587.5V90.50000172108412"></path><path id="kity_path_33" fill="none" stroke="rgb(115, 161, 191)" stroke-width="1" d="M40.50000896304846,122.50000172108412V143.50000172108412L48.50000896304846,143.50000172108412"></path><path id="kity_path_35" fill="none" stroke="rgb(115, 161, 191)" stroke-width="1" d="M40.50000896304846,122.50000172108412V169.50000172108412L48.50000896304846,169.50000172108412"></path><path id="kity_path_37" fill="none" stroke="rgb(115, 161, 191)" stroke-width="1" d="M40.50000896304846,122.50000172108412V195.50000172108412L48.50000896304846,195.50000172108412"></path><path id="kity_path_39" fill="none" stroke="rgb(115, 161, 191)" stroke-width="1" d="M68.50000896304846,204.50000172108412V221.50000172108412L76.50000896304846,221.50000172108412"></path><path id="kity_path_41" fill="none" stroke="rgb(115, 161, 191)" stroke-width="1" d="M68.50000896304846,204.50000172108412V247.50000172108412L76.50000896304846,247.50000172108412"></path><path id="kity_path_43" fill="none" stroke="rgb(115, 161, 191)" stroke-width="1" d="M40.50000896304846,122.50000172108412V273.5000017210841L48.50000896304846,273.5000017210841"></path><path id="kity_path_45" fill="none" stroke="rgb(115, 161, 191)" stroke-width="1" d="M68.50000896304846,282.5000017210841V299.5000017210841L76.50000896304846,299.5000017210841"></path><path id="kity_path_47" fill="none" stroke="rgb(115, 161, 191)" stroke-width="1" d="M96.50000896304846,308.5000017210841V325.5000017210841L104.50000896304846,325.5000017210841"></path><path id="kity_path_49" fill="none" stroke="rgb(115, 161, 191)" stroke-width="1" d="M96.50000896304846,308.5000017210841V351.5000017210841L104.50000896304846,351.5000017210841"></path><path id="kity_path_51" fill="none" stroke="rgb(115, 161, 191)" stroke-width="1" d="M96.50000896304846,308.5000017210841V377.5000017210841L104.50000896304846,377.5000017210841"></path><path id="kity_path_53" fill="none" stroke="rgb(115, 161, 191)" stroke-width="1" d="M68.50000896304846,282.5000017210841V403.5000017210841L76.50000896304846,403.5000017210841"></path><path id="kity_path_55" fill="none" stroke="rgb(115, 161, 191)" stroke-width="1" d="M96.50000896304846,412.5000017210841V429.5000017210841L104.50000896304846,429.5000017210841"></path><path id="kity_path_57" fill="none" stroke="rgb(115, 161, 191)" stroke-width="1" d="M96.50000896304846,412.5000017210841V455.5000017210841L104.50000896304846,455.5000017210841"></path><path id="kity_path_59" fill="none" stroke="rgb(115, 161, 191)" stroke-width="1" d="M669.5000089630485,72.50000172108412v10h-424V90.50000172108412"></path><path id="kity_path_61" fill="none" stroke="rgb(115, 161, 191)" stroke-width="1" d="M211.50000896304846,122.50000172108412V143.50000172108412L219.50000896304846,143.50000172108412"></path><path id="kity_path_63" fill="none" stroke="rgb(115, 161, 191)" stroke-width="1" d="M239.50000896304846,152.50000172108412V169.50000172108412L247.50000896304846,169.50000172108412"></path><path id="kity_path_65" fill="none" stroke="rgb(115, 161, 191)" stroke-width="1" d="M239.50000896304846,152.50000172108412V195.50000172108412L247.50000896304846,195.50000172108412"></path><path id="kity_path_67" fill="none" stroke="rgb(115, 161, 191)" stroke-width="1" d="M211.50000896304846,122.50000172108412V221.50000172108412L219.50000896304846,221.50000172108412"></path><path id="kity_path_69" fill="none" stroke="rgb(115, 161, 191)" stroke-width="1" d="M239.50000896304846,230.50000172108412V247.50000172108412L247.50000896304846,247.50000172108412"></path><path id="kity_path_71" fill="none" stroke="rgb(115, 161, 191)" stroke-width="1" d="M239.50000896304846,230.50000172108412V273.5000017210841L247.50000896304846,273.5000017210841"></path><path id="kity_path_73" fill="none" stroke="rgb(115, 161, 191)" stroke-width="1" d="M211.50000896304846,122.50000172108412V299.5000017210841L219.50000896304846,299.5000017210841"></path><path id="kity_path_75" fill="none" stroke="rgb(115, 161, 191)" stroke-width="1" d="M239.50000896304846,308.5000017210841V325.5000017210841L247.50000896304846,325.5000017210841"></path><path id="kity_path_77" fill="none" stroke="rgb(115, 161, 191)" stroke-width="1" d="M267.50000896304846,334.5000017210841V351.5000017210841L275.50000896304846,351.5000017210841"></path><path id="kity_path_79" fill="none" stroke="rgb(115, 161, 191)" stroke-width="1" d="M267.50000896304846,334.5000017210841V377.5000017210841L275.50000896304846,377.5000017210841"></path><path id="kity_path_81" fill="none" stroke="rgb(115, 161, 191)" stroke-width="1" d="M239.50000896304846,308.5000017210841V403.5000017210841L247.50000896304846,403.5000017210841"></path><path id="kity_path_83" fill="none" stroke="rgb(115, 161, 191)" stroke-width="1" d="M211.50000896304846,122.50000172108412V429.5000017210841L219.50000896304846,429.5000017210841"></path><path id="kity_path_85" fill="none" stroke="rgb(115, 161, 191)" stroke-width="1" d="M239.50000896304846,438.5000017210841V455.5000017210841L247.50000896304846,455.5000017210841"></path><path id="kity_path_87" fill="none" stroke="rgb(115, 161, 191)" stroke-width="1" d="M239.50000896304846,438.5000017210841V499.5000017210841L247.50000896304846,499.5000017210841"></path><path id="kity_path_89" fill="none" stroke="rgb(115, 161, 191)" stroke-width="1" d="M211.50000896304846,122.50000172108412V543.5000017210841L219.50000896304846,543.5000017210841"></path><path id="kity_path_91" fill="none" stroke="rgb(115, 161, 191)" stroke-width="1" d="M239.50000896304846,552.5000017210841V569.5000017210841L247.50000896304846,569.5000017210841"></path><path id="kity_path_93" fill="none" stroke="rgb(115, 161, 191)" stroke-width="1" d="M669.5000089630485,72.50000172108412v10h121V90.50000172108412"></path><path id="kity_path_95" fill="none" stroke="rgb(115, 161, 191)" stroke-width="1" d="M742.5000089630485,122.50000172108412V143.50000172108412L750.5000089630485,143.50000172108412"></path><path id="kity_path_97" fill="none" stroke="rgb(115, 161, 191)" stroke-width="1" d="M770.5000089630485,152.50000172108412V169.50000172108412L778.5000089630485,169.50000172108412"></path><path id="kity_path_99" fill="none" stroke="rgb(115, 161, 191)" stroke-width="1" d="M770.5000089630485,152.50000172108412V195.50000172108412L778.5000089630485,195.50000172108412"></path><path id="kity_path_101" fill="none" stroke="rgb(115, 161, 191)" stroke-width="1" d="M742.5000089630485,122.50000172108412V221.50000172108412L750.5000089630485,221.50000172108412"></path><path id="kity_path_103" fill="none" stroke="rgb(115, 161, 191)" stroke-width="1" d="M770.5000089630485,230.50000172108412V247.50000172108412L778.5000089630485,247.50000172108412"></path><path id="kity_path_105" fill="none" stroke="rgb(115, 161, 191)" stroke-width="1" d="M770.5000089630485,230.50000172108412V273.5000017210841L778.5000089630485,273.5000017210841"></path><path id="kity_path_107" fill="none" stroke="rgb(115, 161, 191)" stroke-width="1" d="M770.5000089630485,230.50000172108412V299.5000017210841L778.5000089630485,299.5000017210841"></path><path id="kity_path_109" fill="none" stroke="rgb(115, 161, 191)" stroke-width="1" d="M770.5000089630485,230.50000172108412V325.5000017210841L778.5000089630485,325.5000017210841"></path><path id="kity_path_111" fill="none" stroke="rgb(115, 161, 191)" stroke-width="1" d="M742.5000089630485,122.50000172108412V351.5000017210841L750.5000089630485,351.5000017210841"></path><path id="kity_path_113" fill="none" stroke="rgb(115, 161, 191)" stroke-width="1" d="M742.5000089630485,122.50000172108412V377.5000017210841L750.5000089630485,377.5000017210841"></path><path id="kity_path_115" fill="none" stroke="rgb(115, 161, 191)" stroke-width="1" d="M669.5000089630485,72.50000172108412v10h286.5V90.50000172108412"></path><path id="kity_path_117" fill="none" stroke="rgb(115, 161, 191)" stroke-width="1" d="M928.5000089630485,122.50000172108412V143.50000172108412L936.5000089630485,143.50000172108412"></path><path id="kity_path_119" fill="none" stroke="rgb(115, 161, 191)" stroke-width="1" d="M956.5000089630485,152.50000172108412V169.50000172108412L964.5000089630485,169.50000172108412"></path><path id="kity_path_121" fill="none" stroke="rgb(115, 161, 191)" stroke-width="1" d="M928.5000089630485,122.50000172108412V195.50000172108412L936.5000089630485,195.50000172108412"></path><path id="kity_path_123" fill="none" stroke="rgb(115, 161, 191)" stroke-width="1" d="M928.5000089630485,122.50000172108412V230.50000172108412L936.5000089630485,230.50000172108412"></path><path id="kity_path_125" fill="none" stroke="rgb(115, 161, 191)" stroke-width="1" d="M669.5000089630485,72.50000172108412v10h582V90.50000172108412"></path><path id="kity_path_127" fill="none" stroke="rgb(115, 161, 191)" stroke-width="1" d="M1203.5000089630485,122.50000172108412V143.50000172108412L1211.5000089630485,143.50000172108412"></path><path id="kity_path_129" fill="none" stroke="rgb(115, 161, 191)" stroke-width="1" d="M1231.5000089630485,152.50000172108412V169.50000172108412L1239.5000089630485,169.50000172108412"></path><path id="kity_path_131" fill="none" stroke="rgb(115, 161, 191)" stroke-width="1" d="M1231.5000089630485,152.50000172108412V195.50000172108412L1239.5000089630485,195.50000172108412"></path><path id="kity_path_133" fill="none" stroke="rgb(115, 161, 191)" stroke-width="1" d="M1231.5000089630485,152.50000172108412V221.50000172108412L1239.5000089630485,221.50000172108412"></path><path id="kity_path_135" fill="none" stroke="rgb(115, 161, 191)" stroke-width="1" d="M1231.5000089630485,152.50000172108412V247.50000172108412L1239.5000089630485,247.50000172108412"></path><path id="kity_path_137" fill="none" stroke="rgb(115, 161, 191)" stroke-width="1" d="M1231.5000089630485,152.50000172108412V282.5000017210841L1239.5000089630485,282.5000017210841"></path><path id="kity_path_139" fill="none" stroke="rgb(115, 161, 191)" stroke-width="1" d="M1203.5000089630485,122.50000172108412V317.5000017210841L1211.5000089630485,317.5000017210841"></path><path id="kity_path_141" fill="none" stroke="rgb(115, 161, 191)" stroke-width="1" d="M1231.5000089630485,326.5000017210841V343.5000017210841L1239.5000089630485,343.5000017210841"></path><path id="kity_path_143" fill="none" stroke="rgb(115, 161, 191)" stroke-width="1" d="M1203.5000089630485,122.50000172108412V369.5000017210841L1211.5000089630485,369.5000017210841"></path><path id="kity_path_145" fill="none" stroke="rgb(115, 161, 191)" stroke-width="1" d="M1231.5000089630485,378.5000017210841V395.5000017210841L1239.5000089630485,395.5000017210841"></path><path id="kity_path_147" fill="none" stroke="rgb(115, 161, 191)" stroke-width="1" d="M1231.5000089630485,378.5000017210841V421.5000017210841L1239.5000089630485,421.5000017210841"></path><path id="kity_path_149" fill="none" stroke="rgb(115, 161, 191)" stroke-width="1" d="M1231.5000089630485,378.5000017210841V447.5000017210841L1239.5000089630485,447.5000017210841"></path><path id="kity_path_151" fill="none" stroke="rgb(115, 161, 191)" stroke-width="1" d="M1231.5000089630485,378.5000017210841V473.5000017210841L1239.5000089630485,473.5000017210841"></path><path id="kity_path_153" fill="none" stroke="rgb(115, 161, 191)" stroke-width="1" d="M1203.5000089630485,122.50000172108412V499.5000017210841L1211.5000089630485,499.5000017210841"></path></g><g id="minder_node1"><path id="node_outline1" fill="#92d050" stroke="rgb(115, 161, 191)" d="M496.50000896304846,20.500001721084118h345a5,5,0,0,1,5,5v42a5,5,0,0,1,-5,5h-345a5,5,0,0,1,-5,-5v-42a5,5,0,0,1,5,-5z" stroke-width="3"></path><g id="node_text1" fill="white"><text id="kity_text_22" text-rendering="inherit" font-size="16" dy=".8em" y="24.10000168532133" font-weight="bold" x="503.50000896304846">科技、娱乐、设计</text><text id="kity_text_282" text-rendering="inherit" font-size="16" dy=".8em" font-weight="bold" y="48.10000168532133" x="503.50000896304846">https://tumaorou.github.io/TED/TED.svg</text></g></g><g id="kity_g_12"><path id="kity_path_13" fill="none" stroke="none" d="M503.50000896304846,46.50000172108412h0v0h0z"></path></g><g id="kity_g_14"><path id="kity_path_15" fill="none" stroke="none" d="M503.50000896304846,46.50000172108412h0v0h0z"></path><path id="kity_path_16" fill="none" stroke="none"></path></g><g id="minder_node2"><g id="node_expander14" style="cursor: pointer;"><path id="kity_path_410" fill="white" stroke="gray" d="M87.50000267475843,83.50000227242708A6,6,0,1,1,75.50000267475843,83.50000227242708A6,6,0,1,1,87.50000267475843,83.50000227242708"></path><path id="kity_path_411" fill="none" stroke="gray" d="M77.00000267475843,83.50000227242708L86.00000267475843,83.50000227242708"></path></g><path id="node_outline15" fill="#92d050" stroke="rgb(115, 161, 191)" d="M23.500002436339855,90.50000261515379h116a3,3,0,0,1,3,3v26a3,3,0,0,1,-3,3h-116a3,3,0,0,1,-3,-3v-26a3,3,0,0,1,3,-3z" stroke-width="1"></path><g id="node_text15" fill="#ffffff"><text id="kity_text_181" text-rendering="inherit" font-size="14" dy=".8em" y="97.40000258386135" font-weight="bold" x="65.50000243633986">用户研究</text></g><g id="node_priority1"><path id="kity_path_285" fill="#840023" stroke="none" d="M41.000002071261406,110.00000247359276c0,3.866,3.134,7,7,7h6c3.866,0,7,-3.134,7,-7V104.00000247359276H41.000002071261406V110.00000247359276z"></path><path id="kity_path_286" fill="#FF1200" stroke="none" d="M61.000002071261406,107.00000247359276c0,3.866,-3.134,7,-7,7H48.000002071261406c-3.866,0,-7,-3.134,-7,-7V104.00000247359276c0,-3.866,3.134,-7,7,-7h6c3.866,0,7,3.134,7,7V107.00000247359276z" opacity="0.8"></path><text id="kity_text_287" text-rendering="geometricPrecision" x="50.000002063810825" y="106.50000246614218" text-anchor="middle" font-style="italic" font-size="12" fill="white" dy="5">1</text></g></g><g id="minder_node3"><g id="node_expander1" style="cursor: pointer;" display="none"><path id="kity_path_371" fill="white" stroke="gray" d="M48.50000209361315,143.50000316649675A6,6,0,1,1,36.50000209361315,143.50000316649675A6,6,0,1,1,48.50000209361315,143.50000316649675"></path><path id="kity_path_372" fill="none" stroke="gray"></path></g><path id="node_outline2" fill="#92d050" stroke="none" d="M53.50000225752592,134.50000316649675h50a5,5,0,0,1,5,5v8a5,5,0,0,1,-5,5h-50a5,5,0,0,1,-5,-5v-8a5,5,0,0,1,5,-5z"></path><g id="node_text2" fill="#ffffff"><text id="kity_text_155" text-rendering="inherit" font-size="12" dy=".8em" font-weight="bold" y="135.70000313967466" x="53.50000225752592">交互设计</text></g></g><g id="minder_node4"><g id="node_expander2" style="cursor: pointer;" display="none"><path id="kity_path_374" fill="white" stroke="gray" d="M48.50000209361315,169.50000355392694A6,6,0,1,1,36.50000209361315,169.50000355392694A6,6,0,1,1,48.50000209361315,169.50000355392694"></path><path id="kity_path_375" fill="none" stroke="gray"></path></g><path id="node_outline3" fill="#92d050" stroke="none" d="M53.50000225752592,160.50000355392694h73a5,5,0,0,1,5,5v8a5,5,0,0,1,-5,5h-73a5,5,0,0,1,-5,-5v-8a5,5,0,0,1,5,-5z"></path><g id="node_text3" fill="#ffffff"><text id="kity_text_157" text-rendering="inherit" font-size="12" dy=".8em" font-weight="bold" y="161.70000352710485" x="53.50000225752592">用户体验设计</text></g></g><g id="minder_node5"><g id="node_expander5" style="cursor: pointer;"><path id="kity_path_383" fill="white" stroke="gray" d="M48.50000209361315,195.50000394135714A6,6,0,1,1,36.50000209361315,195.50000394135714A6,6,0,1,1,48.50000209361315,195.50000394135714"></path><path id="kity_path_384" fill="none" stroke="gray" d="M38.00000209361315,195.50000394135714L47.00000209361315,195.50000394135714"></path></g><path id="node_outline6" fill="none" stroke="none" d="M53.50000225752592,186.50000394135714h25a5,5,0,0,1,5,5v8a5,5,0,0,1,-5,5h-25a5,5,0,0,1,-5,-5v-8a5,5,0,0,1,5,-5z"></path><g id="node_text6" fill="black"><text id="kity_text_163" text-rendering="inherit" font-size="12" dy=".8em" font-weight="bold" y="187.70000391453505" x="53.50000225752592">目标</text></g></g><g id="minder_node6"><g id="node_expander3" style="cursor: pointer;" display="none"><path id="kity_path_377" fill="white" stroke="gray" d="M76.50000251084566,221.50000432878733A6,6,0,1,1,64.50000251084566,221.50000432878733A6,6,0,1,1,76.50000251084566,221.50000432878733"></path><path id="kity_path_378" fill="none" stroke="gray"></path></g><path id="node_outline4" fill="none" stroke="none" d="M81.50000267475843,212.50000432878733h84a5,5,0,0,1,5,5v8a5,5,0,0,1,-5,5h-84a5,5,0,0,1,-5,-5v-8a5,5,0,0,1,5,-5z"></path><g id="node_text4" fill="black"><text id="kity_text_159" text-rendering="inherit" font-size="12" dy=".8em" y="213.70000430196524" x="81.50000267475843">明确用户需求点</text></g></g><g id="minder_node7"><g id="node_expander4" style="cursor: pointer;" display="none"><path id="kity_path_380" fill="white" stroke="gray" d="M76.50000251084566,247.50000471621752A6,6,0,1,1,64.50000251084566,247.50000471621752A6,6,0,1,1,76.50000251084566,247.50000471621752"></path><path id="kity_path_381" fill="none" stroke="gray"></path></g><path id="node_outline5" fill="none" stroke="none" d="M81.50000267475843,238.50000471621752h74a5,5,0,0,1,5,5v8a5,5,0,0,1,-5,5h-74a5,5,0,0,1,-5,-5v-8a5,5,0,0,1,5,-5z"></path><g id="node_text5" fill="black"><text id="kity_text_161" text-rendering="inherit" font-size="12" dy=".8em" y="239.70000468939543" x="81.50000267475843">发现产品问题</text></g></g><g id="minder_node8"><g id="node_expander13" style="cursor: pointer;"><path id="kity_path_407" fill="white" stroke="gray" d="M48.50000209361315,273.5000051036477A6,6,0,1,1,36.50000209361315,273.5000051036477A6,6,0,1,1,48.50000209361315,273.5000051036477"></path><path id="kity_path_408" fill="none" stroke="gray" d="M38.00000209361315,273.5000051036477L47.00000209361315,273.5000051036477"></path></g><path id="node_outline14" fill="none" stroke="none" d="M53.50000225752592,264.5000051036477h26a5,5,0,0,1,5,5v8a5,5,0,0,1,-5,5h-26a5,5,0,0,1,-5,-5v-8a5,5,0,0,1,5,-5z"></path><g id="node_text14" fill="black"><text id="kity_text_179" text-rendering="inherit" font-size="12" dy=".8em" font-weight="bold" y="265.7000050768256" x="53.50000225752592">方法</text></g></g><g id="minder_node9"><g id="node_expander9" style="cursor: pointer;"><path id="kity_path_395" fill="white" stroke="gray" d="M76.50000251084566,299.5000054910779A6,6,0,1,1,64.50000251084566,299.5000054910779A6,6,0,1,1,76.50000251084566,299.5000054910779"></path><path id="kity_path_396" fill="none" stroke="gray" d="M66.00000251084566,299.5000054910779L75.00000251084566,299.5000054910779"></path></g><path id="node_outline10" fill="none" stroke="none" d="M81.50000267475843,290.5000054910779h26a5,5,0,0,1,5,5v8a5,5,0,0,1,-5,5h-26a5,5,0,0,1,-5,-5v-8a5,5,0,0,1,5,-5z"></path><g id="node_text10" fill="black"><text id="kity_text_171" text-rendering="inherit" font-size="12" dy=".8em" y="291.7000054642558" x="81.50000267475843">定性</text></g></g><g id="minder_node10"><g id="node_expander6" style="cursor: pointer;" display="none"><path id="kity_path_386" fill="white" stroke="gray" d="M104.50000292807817,325.5000058785081A6,6,0,1,1,92.50000292807817,325.5000058785081A6,6,0,1,1,104.50000292807817,325.5000058785081"></path><path id="kity_path_387" fill="none" stroke="gray"></path></g><path id="node_outline7" fill="none" stroke="none" d="M109.50000309199095,316.5000058785081h50a5,5,0,0,1,5,5v8a5,5,0,0,1,-5,5h-50a5,5,0,0,1,-5,-5v-8a5,5,0,0,1,5,-5z"></path><g id="node_text7" fill="black"><text id="kity_text_165" text-rendering="inherit" font-size="12" dy=".8em" y="317.700005851686" x="109.50000309199095">焦点小组</text></g></g><g id="minder_node11"><g id="node_expander7" style="cursor: pointer;" display="none"><path id="kity_path_389" fill="white" stroke="gray" d="M104.50000292807817,351.5000062659383A6,6,0,1,1,92.50000292807817,351.5000062659383A6,6,0,1,1,104.50000292807817,351.5000062659383"></path><path id="kity_path_390" fill="none" stroke="gray"></path></g><path id="node_outline8" fill="none" stroke="none" d="M109.50000309199095,342.5000062659383h61a5,5,0,0,1,5,5v8a5,5,0,0,1,-5,5h-61a5,5,0,0,1,-5,-5v-8a5,5,0,0,1,5,-5z"></path><g id="node_text8" fill="black"><text id="kity_text_167" text-rendering="inherit" font-size="12" dy=".8em" y="343.7000062391162" x="109.50000309199095">可用性测试</text></g></g><g id="minder_node12"><g id="node_expander8" style="cursor: pointer;" display="none"><path id="kity_path_392" fill="white" stroke="gray" d="M104.50000292807817,377.5000066533685A6,6,0,1,1,92.50000292807817,377.5000066533685A6,6,0,1,1,104.50000292807817,377.5000066533685"></path><path id="kity_path_393" fill="none" stroke="gray"></path></g><path id="node_outline9" fill="none" stroke="none" d="M109.50000309199095,368.5000066533685h49a5,5,0,0,1,5,5v8a5,5,0,0,1,-5,5h-49a5,5,0,0,1,-5,-5v-8a5,5,0,0,1,5,-5z"></path><g id="node_text9" fill="black"><text id="kity_text_169" text-rendering="inherit" font-size="12" dy=".8em" y="369.7000066265464" x="109.50000309199095">用户访谈</text></g></g><g id="minder_node13"><g id="node_expander12" style="cursor: pointer;"><path id="kity_path_404" fill="white" stroke="gray" d="M76.50000251084566,403.50000704079866A6,6,0,1,1,64.50000251084566,403.50000704079866A6,6,0,1,1,76.50000251084566,403.50000704079866"></path><path id="kity_path_405" fill="none" stroke="gray" d="M66.00000251084566,403.50000704079866L75.00000251084566,403.50000704079866"></path></g><path id="node_outline13" fill="none" stroke="none" d="M81.50000267475843,394.50000704079866h26a5,5,0,0,1,5,5v8a5,5,0,0,1,-5,5h-26a5,5,0,0,1,-5,-5v-8a5,5,0,0,1,5,-5z"></path><g id="node_text13" fill="black"><text id="kity_text_177" text-rendering="inherit" font-size="12" dy=".8em" y="395.7000070139766" x="81.50000267475843">定量</text></g></g><g id="minder_node14"><g id="node_expander10" style="cursor: pointer;" display="none"><path id="kity_path_398" fill="white" stroke="gray" d="M104.50000292807817,429.50000742822886A6,6,0,1,1,92.50000292807817,429.50000742822886A6,6,0,1,1,104.50000292807817,429.50000742822886"></path><path id="kity_path_399" fill="none" stroke="gray"></path></g><path id="node_outline11" fill="none" stroke="none" d="M109.50000309199095,420.50000742822886h47a5,5,0,0,1,5,5v8a5,5,0,0,1,-5,5h-47a5,5,0,0,1,-5,-5v-8a5,5,0,0,1,5,-5z"></path><g id="node_text11" fill="black"><text id="kity_text_173" text-rendering="inherit" font-size="12" dy=".8em" y="421.70000740140676" x="109.50000309199095">A/B测试</text></g></g><g id="minder_node15"><g id="node_expander11" style="cursor: pointer;" display="none"><path id="kity_path_401" fill="white" stroke="gray" d="M104.50000292807817,455.50000781565905A6,6,0,1,1,92.50000292807817,455.50000781565905A6,6,0,1,1,104.50000292807817,455.50000781565905"></path><path id="kity_path_402" fill="none" stroke="gray"></path></g><path id="node_outline12" fill="none" stroke="none" d="M109.50000309199095,446.50000781565905h49a5,5,0,0,1,5,5v8a5,5,0,0,1,-5,5h-49a5,5,0,0,1,-5,-5v-8a5,5,0,0,1,5,-5z"></path><g id="node_text12" fill="black"><text id="kity_text_175" text-rendering="inherit" font-size="12" dy=".8em" y="447.70000778883696" x="109.50000309199095">问卷调查</text></g></g><g id="minder_node16"><g id="node_expander31" style="cursor: pointer;"><path id="kity_path_461" fill="white" stroke="gray" d="M251.0000051110983,83.50000227242708A6,6,0,1,1,239.0000051110983,83.50000227242708A6,6,0,1,1,251.0000051110983,83.50000227242708"></path><path id="kity_path_462" fill="none" stroke="gray" d="M240.5000051110983,83.50000227242708L249.5000051110983,83.50000227242708"></path></g><path id="node_outline32" fill="#92d050" stroke="rgb(115, 161, 191)" d="M194.50000498443842,90.50000261515379h101a3,3,0,0,1,3,3v26a3,3,0,0,1,-3,3h-101a3,3,0,0,1,-3,-3v-26a3,3,0,0,1,3,-3z" stroke-width="1"></path><g id="node_text32" fill="#ffffff"><text id="kity_text_217" text-rendering="inherit" font-size="14" dy=".8em" y="97.40000258386135" font-weight="bold" x="236.50000498443842">大数据</text></g><g id="node_priority2"><path id="kity_path_290" fill="#840023" stroke="none" d="M212.00000461935997,110.00000247359276c0,3.866,3.134,7,7,7h6c3.866,0,7,-3.134,7,-7V104.00000247359276H212.00000461935997V110.00000247359276z"></path><path id="kity_path_291" fill="#FF1200" stroke="none" d="M232.00000461935997,107.00000247359276c0,3.866,-3.134,7,-7,7H219.00000461935997c-3.866,0,-7,-3.134,-7,-7V104.00000247359276c0,-3.866,3.134,-7,7,-7h6c3.866,0,7,3.134,7,7V107.00000247359276z" opacity="0.8"></path><text id="kity_text_292" text-rendering="geometricPrecision" x="221.0000046119094" y="106.50000246614218" text-anchor="middle" font-style="italic" font-size="12" fill="white" dy="5">1</text></g></g><g id="minder_node17"><g id="node_expander17" style="cursor: pointer;"><path id="kity_path_419" fill="white" stroke="gray" d="M219.5000046417117,143.50000316649675A6,6,0,1,1,207.5000046417117,143.50000316649675A6,6,0,1,1,219.5000046417117,143.50000316649675"></path><path id="kity_path_420" fill="none" stroke="gray" d="M209.0000046417117,143.50000316649675L218.0000046417117,143.50000316649675"></path></g><path id="node_outline18" fill="none" stroke="none" d="M224.50000480562449,134.50000316649675h160a5,5,0,0,1,5,5v8a5,5,0,0,1,-5,5h-160a5,5,0,0,1,-5,-5v-8a5,5,0,0,1,5,-5z"></path><g id="node_text18" fill="black"><text id="kity_text_187" text-rendering="inherit" font-size="12" dy=".8em" font-weight="bold" y="135.70000313967466" x="224.50000480562449">作为公民， 如何应对大数据？</text></g></g><g id="minder_node18"><g id="node_expander15" style="cursor: pointer;" display="none"><path id="kity_path_413" fill="white" stroke="gray" d="M247.50000505894423,169.50000355392694A6,6,0,1,1,235.50000505894423,169.50000355392694A6,6,0,1,1,247.50000505894423,169.50000355392694"></path><path id="kity_path_414" fill="none" stroke="gray"></path></g><path id="node_outline16" fill="none" stroke="none" d="M252.500005222857,160.50000355392694h217a5,5,0,0,1,5,5v8a5,5,0,0,1,-5,5h-217a5,5,0,0,1,-5,-5v-8a5,5,0,0,1,5,-5z"></path><g id="node_text16" fill="black"><text id="kity_text_183" text-rendering="inherit" font-size="12" dy=".8em" y="161.70000352710485" x="252.500005222857">有责任花更多时间来锻炼批判性思维能力</text></g></g><g id="minder_node19"><g id="node_expander16" style="cursor: pointer;" display="none"><path id="kity_path_416" fill="white" stroke="gray" d="M247.50000505894423,195.50000394135714A6,6,0,1,1,235.50000505894423,195.50000394135714A6,6,0,1,1,247.50000505894423,195.50000394135714"></path><path id="kity_path_417" fill="none" stroke="gray"></path></g><path id="node_outline17" fill="none" stroke="none" d="M252.500005222857,186.50000394135714h98a5,5,0,0,1,5,5v8a5,5,0,0,1,-5,5h-98a5,5,0,0,1,-5,-5v-8a5,5,0,0,1,5,-5z"></path><g id="node_text17" fill="black"><text id="kity_text_185" text-rendering="inherit" font-size="12" dy=".8em" y="187.70000391453505" x="252.500005222857">利用数据了解自己</text></g></g><g id="minder_node20"><g id="node_expander20" style="cursor: pointer;"><path id="kity_path_428" fill="white" stroke="gray" d="M219.5000046417117,221.50000432878733A6,6,0,1,1,207.5000046417117,221.50000432878733A6,6,0,1,1,219.5000046417117,221.50000432878733"></path><path id="kity_path_429" fill="none" stroke="gray" d="M209.0000046417117,221.50000432878733L218.0000046417117,221.50000432878733"></path></g><path id="node_outline21" fill="none" stroke="none" d="M224.50000480562449,212.50000432878733h73a5,5,0,0,1,5,5v8a5,5,0,0,1,-5,5h-73a5,5,0,0,1,-5,-5v-8a5,5,0,0,1,5,-5z"></path><g id="node_text21" fill="black"><text id="kity_text_193" text-rendering="inherit" font-size="12" dy=".8em" font-weight="bold" y="213.70000430196524" x="224.50000480562449">防止数据独裁</text></g></g><g id="minder_node21"><g id="node_expander18" style="cursor: pointer;" display="none"><path id="kity_path_422" fill="white" stroke="gray" d="M247.50000505894423,247.50000471621752A6,6,0,1,1,235.50000505894423,247.50000471621752A6,6,0,1,1,247.50000505894423,247.50000471621752"></path><path id="kity_path_423" fill="none" stroke="gray"></path></g><path id="node_outline19" fill="none" stroke="none" d="M252.500005222857,238.50000471621752h86a5,5,0,0,1,5,5v8a5,5,0,0,1,-5,5h-86a5,5,0,0,1,-5,-5v-8a5,5,0,0,1,5,-5z"></path><g id="node_text19" fill="black"><text id="kity_text_189" text-rendering="inherit" font-size="12" dy=".8em" y="239.70000468939543" x="252.500005222857">分布式数据处理</text></g></g><g id="minder_node22"><g id="node_expander19" style="cursor: pointer;" display="none"><path id="kity_path_425" fill="white" stroke="gray" d="M247.50000505894423,273.5000051036477A6,6,0,1,1,235.50000505894423,273.5000051036477A6,6,0,1,1,247.50000505894423,273.5000051036477"></path><path id="kity_path_426" fill="none" stroke="gray"></path></g><path id="node_outline20" fill="none" stroke="none" d="M252.500005222857,264.5000051036477h50a5,5,0,0,1,5,5v8a5,5,0,0,1,-5,5h-50a5,5,0,0,1,-5,-5v-8a5,5,0,0,1,5,-5z"></path><g id="node_text20" fill="black"><text id="kity_text_191" text-rendering="inherit" font-size="12" dy=".8em" y="265.7000050768256" x="252.500005222857">分享数据</text></g></g><g id="minder_node23"><g id="node_expander25" style="cursor: pointer;"><path id="kity_path_443" fill="white" stroke="gray" d="M219.5000046417117,299.5000054910779A6,6,0,1,1,207.5000046417117,299.5000054910779A6,6,0,1,1,219.5000046417117,299.5000054910779"></path><path id="kity_path_444" fill="none" stroke="gray" d="M209.0000046417117,299.5000054910779L218.0000046417117,299.5000054910779"></path></g><path id="node_outline26" fill="#92d050" stroke="none" d="M224.50000480562449,290.5000054910779h52a5,5,0,0,1,5,5v8a5,5,0,0,1,-5,5h-52a5,5,0,0,1,-5,-5v-8a5,5,0,0,1,5,-5z"></path><g id="node_text26" fill="#ffffff"><text id="kity_text_203" text-rendering="inherit" font-size="12" dy=".8em" font-weight="bold" y="291.7000054642558" x="224.50000480562449">机器学习&#xa0;</text></g></g><g id="minder_node24"><g id="node_expander23" style="cursor: pointer;"><path id="kity_path_437" fill="white" stroke="gray" d="M247.50000505894423,325.5000058785081A6,6,0,1,1,235.50000505894423,325.5000058785081A6,6,0,1,1,247.50000505894423,325.5000058785081"></path><path id="kity_path_438" fill="none" stroke="gray" d="M237.00000505894423,325.5000058785081L246.00000505894423,325.5000058785081"></path></g><path id="node_outline24" fill="none" stroke="none" d="M252.500005222857,316.5000058785081h25a5,5,0,0,1,5,5v8a5,5,0,0,1,-5,5h-25a5,5,0,0,1,-5,-5v-8a5,5,0,0,1,5,-5z"></path><g id="node_text24" fill="black"><text id="kity_text_199" text-rendering="inherit" font-size="12" dy=".8em" font-weight="bold" y="317.700005851686" x="252.500005222857">危害</text></g></g><g id="minder_node25"><g id="node_expander21" style="cursor: pointer;" display="none"><path id="kity_path_431" fill="white" stroke="gray" d="M275.50000547617674,351.5000062659383A6,6,0,1,1,263.50000547617674,351.5000062659383A6,6,0,1,1,275.50000547617674,351.5000062659383"></path><path id="kity_path_432" fill="none" stroke="gray"></path></g><path id="node_outline22" fill="none" stroke="none" d="M280.5000056400895,342.5000062659383h158a5,5,0,0,1,5,5v8a5,5,0,0,1,-5,5h-158a5,5,0,0,1,-5,-5v-8a5,5,0,0,1,5,-5z"></path><g id="node_text22" fill="black"><text id="kity_text_195" text-rendering="inherit" font-size="12" dy=".8em" y="343.7000062391162" x="280.5000056400895">潜在的偏见以及不透明的算法</text></g></g><g id="minder_node26"><g id="node_expander22" style="cursor: pointer;" display="none"><path id="kity_path_434" fill="white" stroke="gray" d="M275.50000547617674,377.5000066533685A6,6,0,1,1,263.50000547617674,377.5000066533685A6,6,0,1,1,275.50000547617674,377.5000066533685"></path><path id="kity_path_435" fill="none" stroke="gray"></path></g><path id="node_outline23" fill="none" stroke="none" d="M280.5000056400895,368.5000066533685h421a5,5,0,0,1,5,5v8a5,5,0,0,1,-5,5h-421a5,5,0,0,1,-5,-5v-8a5,5,0,0,1,5,-5z"></path><g id="node_text23" fill="black"><text id="kity_text_197" text-rendering="inherit" font-size="12" dy=".8em" y="369.7000066265464" x="280.5000056400895">区块链夺回我们资产的控制权，令我们拥有我们自己的身份并且进行负责的管理</text></g></g><g id="minder_node27"><g id="node_expander24" style="cursor: pointer;" display="none"><path id="kity_path_440" fill="white" stroke="gray" d="M247.50000505894423,403.50000704079866A6,6,0,1,1,235.50000505894423,403.50000704079866A6,6,0,1,1,247.50000505894423,403.50000704079866"></path><path id="kity_path_441" fill="none" stroke="gray"></path></g><path id="node_outline25" fill="none" stroke="none" d="M252.500005222857,394.50000704079866h266a5,5,0,0,1,5,5v8a5,5,0,0,1,-5,5h-266a5,5,0,0,1,-5,-5v-8a5,5,0,0,1,5,-5z"></path><g id="node_text25" fill="black"><text id="kity_text_201" text-rendering="inherit" font-size="12" dy=".8em" y="395.7000070139766" x="252.500005222857">数据本身并可能带有偏见，不能让机器做全部决策</text></g></g><g id="minder_node28"><g id="node_expander28" style="cursor: pointer;"><path id="kity_path_452" fill="white" stroke="gray" d="M219.5000046417117,429.50000742822886A6,6,0,1,1,207.5000046417117,429.50000742822886A6,6,0,1,1,219.5000046417117,429.50000742822886"></path><path id="kity_path_453" fill="none" stroke="gray" d="M209.0000046417117,429.50000742822886L218.0000046417117,429.50000742822886"></path></g><path id="node_outline29" fill="#92d050" stroke="none" d="M224.50000480562449,420.50000742822886h52a5,5,0,0,1,5,5v8a5,5,0,0,1,-5,5h-52a5,5,0,0,1,-5,-5v-8a5,5,0,0,1,5,-5z"></path><g id="node_text29" fill="#ffffff"><text id="kity_text_211" text-rendering="inherit" font-size="12" dy=".8em" font-weight="bold" y="421.70000740140676" x="224.50000480562449">推荐系统&#xa0;</text></g></g><g id="minder_node29"><g id="node_expander26" style="cursor: pointer;" display="none"><path id="kity_path_446" fill="white" stroke="gray" d="M247.50000505894423,455.50000781565905A6,6,0,1,1,235.50000505894423,455.50000781565905A6,6,0,1,1,247.50000505894423,455.50000781565905"></path><path id="kity_path_447" fill="none" stroke="gray"></path></g><path id="node_outline27" fill="none" stroke="none" d="M252.500005222857,446.50000781565905h265a5,5,0,0,1,5,5v8a5,5,0,0,1,-5,5h-265a5,5,0,0,1,-5,-5v-8a5,5,0,0,1,5,-5z"></path><g id="node_text27" fill="black"><text id="kity_text_205" text-rendering="inherit" font-size="12" dy=".8em" y="447.70000778883696" x="252.500005222857">对算法的公开透明，人工智能不是“伦理免责卡”</text></g></g><g id="minder_node30"><g id="node_expander27" style="cursor: pointer;" display="none"><path id="kity_path_449" fill="white" stroke="gray" d="M247.50000505894423,499.50000847131014A6,6,0,1,1,235.50000505894423,499.50000847131014A6,6,0,1,1,247.50000505894423,499.50000847131014"></path><path id="kity_path_450" fill="none" stroke="gray"></path></g><path id="node_outline28" fill="none" stroke="none" d="M252.500005222857,472.50000847131014h229a5,5,0,0,1,5,5v44a5,5,0,0,1,-5,5h-229a5,5,0,0,1,-5,-5v-44a5,5,0,0,1,5,-5z"></path><g id="node_text28" fill="black"><text id="kity_text_207" text-rendering="inherit" font-size="12" dy=".8em" y="473.70000844448805" x="252.500005222857">根据用户的历史行为、社交关系、兴趣点、</text><text id="kity_text_208" text-rendering="inherit" font-size="12" dy=".8em" y="491.70000844448805" x="252.500005222857">所处上下文环境等信息去判断用户</text><text id="kity_text_209" text-rendering="inherit" font-size="12" dy=".8em" y="509.70000844448805" x="252.500005222857">当前需要或感兴趣的物品/服务的一类应用</text></g></g><g id="minder_node31"><g id="node_expander30" style="cursor: pointer;"><path id="kity_path_458" fill="white" stroke="gray" d="M219.5000046417117,543.5000091269612A6,6,0,1,1,207.5000046417117,543.5000091269612A6,6,0,1,1,219.5000046417117,543.5000091269612"></path><path id="kity_path_459" fill="none" stroke="gray" d="M209.0000046417117,543.5000091269612L218.0000046417117,543.5000091269612"></path></g><path id="node_outline31" fill="#92d050" stroke="none" d="M224.50000480562449,534.5000091269612h37a5,5,0,0,1,5,5v8a5,5,0,0,1,-5,5h-37a5,5,0,0,1,-5,-5v-8a5,5,0,0,1,5,-5z"></path><g id="node_text31" fill="#ffffff"><text id="kity_text_215" text-rendering="inherit" font-size="12" dy=".8em" font-weight="bold" y="535.7000091001391" x="224.50000480562449">数字屑</text></g></g><g id="minder_node32"><g id="node_expander29" style="cursor: pointer;" display="none"><path id="kity_path_455" fill="white" stroke="gray" d="M247.50000505894423,569.5000095143914A6,6,0,1,1,235.50000505894423,569.5000095143914A6,6,0,1,1,247.50000505894423,569.5000095143914"></path><path id="kity_path_456" fill="none" stroke="gray"></path></g><path id="node_outline30" fill="none" stroke="none" d="M252.500005222857,560.5000095143914h277a5,5,0,0,1,5,5v8a5,5,0,0,1,-5,5h-277a5,5,0,0,1,-5,-5v-8a5,5,0,0,1,5,-5z"></path><g id="node_text30" fill="black"><text id="kity_text_213" text-rendering="inherit" font-size="12" dy=".8em" y="561.7000094875693" x="252.500005222857">数据废气是用户自己产生的，用户却没有渠道查看。</text></g></g><g id="minder_node33"><g id="node_expander42" style="cursor: pointer;"><path id="kity_path_494" fill="white" stroke="gray" d="M796.0000132322311,83.50000227242708A6,6,0,1,1,784.0000132322311,83.50000227242708A6,6,0,1,1,796.0000132322311,83.50000227242708"></path><path id="kity_path_495" fill="none" stroke="gray" d="M785.5000132322311,83.50000227242708L794.5000132322311,83.50000227242708"></path></g><path id="node_outline43" fill="#92d050" stroke="rgb(115, 161, 191)" d="M725.500012896955,90.50000261515379h129a3,3,0,0,1,3,3v26a3,3,0,0,1,-3,3h-129a3,3,0,0,1,-3,-3v-26a3,3,0,0,1,3,-3z" stroke-width="1"></path><g id="node_text43" fill="#ffffff"><text id="kity_text_239" text-rendering="inherit" font-size="14" dy=".8em" y="97.40000258386135" font-weight="bold" x="767.500012896955">设计心理学</text></g><g id="node_priority3"><path id="kity_path_295" fill="#840023" stroke="none" d="M743.0000125318766,110.00000247359276c0,3.866,3.134,7,7,7h6c3.866,0,7,-3.134,7,-7V104.00000247359276H743.0000125318766V110.00000247359276z"></path><path id="kity_path_296" fill="#FF1200" stroke="none" d="M763.0000125318766,107.00000247359276c0,3.866,-3.134,7,-7,7H750.0000125318766c-3.866,0,-7,-3.134,-7,-7V104.00000247359276c0,-3.866,3.134,-7,7,-7h6c3.866,0,7,3.134,7,7V107.00000247359276z" opacity="0.8"></path><text id="kity_text_297" text-rendering="geometricPrecision" x="752.000012524426" y="106.50000246614218" text-anchor="middle" font-style="italic" font-size="12" fill="white" dy="5">1</text></g></g><g id="minder_node34"><g id="node_expander34" style="cursor: pointer;"><path id="kity_path_470" fill="white" stroke="gray" d="M750.5000125542283,143.50000316649675A6,6,0,1,1,738.5000125542283,143.50000316649675A6,6,0,1,1,750.5000125542283,143.50000316649675"></path><path id="kity_path_471" fill="none" stroke="gray" d="M740.0000125542283,143.50000316649675L749.0000125542283,143.50000316649675"></path></g><path id="node_outline35" fill="none" stroke="none" d="M755.5000127181411,134.50000316649675h50a5,5,0,0,1,5,5v8a5,5,0,0,1,-5,5h-50a5,5,0,0,1,-5,-5v-8a5,5,0,0,1,5,-5z"></path><g id="node_text35" fill="black"><text id="kity_text_223" text-rendering="inherit" font-size="12" dy=".8em" font-weight="bold" y="135.70000313967466" x="755.5000127181411">好的设计</text></g></g><g id="minder_node35"><g id="node_expander32" style="cursor: pointer;" display="none"><path id="kity_path_464" fill="white" stroke="gray" d="M778.5000129714608,169.50000355392694A6,6,0,1,1,766.5000129714608,169.50000355392694A6,6,0,1,1,778.5000129714608,169.50000355392694"></path><path id="kity_path_465" fill="none" stroke="gray"></path></g><path id="node_outline33" fill="none" stroke="none" d="M783.5000131353736,160.50000355392694h37a5,5,0,0,1,5,5v8a5,5,0,0,1,-5,5h-37a5,5,0,0,1,-5,-5v-8a5,5,0,0,1,5,-5z"></path><g id="node_text33" fill="black"><text id="kity_text_219" text-rendering="inherit" font-size="12" dy=".8em" y="161.70000352710485" x="783.5000131353736">可观性</text></g></g><g id="minder_node36"><g id="node_expander33" style="cursor: pointer;" display="none"><path id="kity_path_467" fill="white" stroke="gray" d="M778.5000129714608,195.50000394135714A6,6,0,1,1,766.5000129714608,195.50000394135714A6,6,0,1,1,778.5000129714608,195.50000394135714"></path><path id="kity_path_468" fill="none" stroke="gray"></path></g><path id="node_outline34" fill="none" stroke="none" d="M783.5000131353736,186.50000394135714h37a5,5,0,0,1,5,5v8a5,5,0,0,1,-5,5h-37a5,5,0,0,1,-5,-5v-8a5,5,0,0,1,5,-5z"></path><g id="node_text34" fill="black"><text id="kity_text_221" text-rendering="inherit" font-size="12" dy=".8em" y="187.70000391453505" x="783.5000131353736">易懂性</text></g></g><g id="minder_node37"><g id="node_expander39" style="cursor: pointer;"><path id="kity_path_485" fill="white" stroke="gray" d="M750.5000125542283,221.50000432878733A6,6,0,1,1,738.5000125542283,221.50000432878733A6,6,0,1,1,750.5000125542283,221.50000432878733"></path><path id="kity_path_486" fill="none" stroke="gray" d="M740.0000125542283,221.50000432878733L749.0000125542283,221.50000432878733"></path></g><path id="node_outline40" fill="none" stroke="none" d="M755.5000127181411,212.50000432878733h132a5,5,0,0,1,5,5v8a5,5,0,0,1,-5,5h-132a5,5,0,0,1,-5,-5v-8a5,5,0,0,1,5,-5z"></path><g id="node_text40" fill="black"><text id="kity_text_233" text-rendering="inherit" font-size="12" dy=".8em" font-weight="bold" y="213.70000430196524" x="755.5000127181411">“以人为本”的设计思维</text></g></g><g id="minder_node38"><g id="node_expander35" style="cursor: pointer;" display="none"><path id="kity_path_473" fill="white" stroke="gray" d="M778.5000129714608,247.50000471621752A6,6,0,1,1,766.5000129714608,247.50000471621752A6,6,0,1,1,778.5000129714608,247.50000471621752"></path><path id="kity_path_474" fill="none" stroke="gray"></path></g><path id="node_outline36" fill="none" stroke="none" d="M783.5000131353736,238.50000471621752h25a5,5,0,0,1,5,5v8a5,5,0,0,1,-5,5h-25a5,5,0,0,1,-5,-5v-8a5,5,0,0,1,5,-5z"></path><g id="node_text36" fill="black"><text id="kity_text_225" text-rendering="inherit" font-size="12" dy=".8em" y="239.70000468939543" x="783.5000131353736">观察</text></g></g><g id="minder_node39"><g id="node_expander36" style="cursor: pointer;" display="none"><path id="kity_path_476" fill="white" stroke="gray" d="M778.5000129714608,273.5000051036477A6,6,0,1,1,766.5000129714608,273.5000051036477A6,6,0,1,1,778.5000129714608,273.5000051036477"></path><path id="kity_path_477" fill="none" stroke="gray"></path></g><path id="node_outline37" fill="none" stroke="none" d="M783.5000131353736,264.5000051036477h26a5,5,0,0,1,5,5v8a5,5,0,0,1,-5,5h-26a5,5,0,0,1,-5,-5v-8a5,5,0,0,1,5,-5z"></path><g id="node_text37" fill="black"><text id="kity_text_227" text-rendering="inherit" font-size="12" dy=".8em" y="265.7000050768256" x="783.5000131353736">创意</text></g></g><g id="minder_node40"><g id="node_expander37" style="cursor: pointer;" display="none"><path id="kity_path_479" fill="white" stroke="gray" d="M778.5000129714608,299.5000054910779A6,6,0,1,1,766.5000129714608,299.5000054910779A6,6,0,1,1,778.5000129714608,299.5000054910779"></path><path id="kity_path_480" fill="none" stroke="gray"></path></g><path id="node_outline38" fill="none" stroke="none" d="M783.5000131353736,290.5000054910779h25a5,5,0,0,1,5,5v8a5,5,0,0,1,-5,5h-25a5,5,0,0,1,-5,-5v-8a5,5,0,0,1,5,-5z"></path><g id="node_text38" fill="black"><text id="kity_text_229" text-rendering="inherit" font-size="12" dy=".8em" y="291.7000054642558" x="783.5000131353736">打样</text></g></g><g id="minder_node41"><g id="node_expander38" style="cursor: pointer;" display="none"><path id="kity_path_482" fill="white" stroke="gray" d="M778.5000129714608,325.5000058785081A6,6,0,1,1,766.5000129714608,325.5000058785081A6,6,0,1,1,778.5000129714608,325.5000058785081"></path><path id="kity_path_483" fill="none" stroke="gray"></path></g><path id="node_outline39" fill="none" stroke="none" d="M783.5000131353736,316.5000058785081h26a5,5,0,0,1,5,5v8a5,5,0,0,1,-5,5h-26a5,5,0,0,1,-5,-5v-8a5,5,0,0,1,5,-5z"></path><g id="node_text39" fill="black"><text id="kity_text_231" text-rendering="inherit" font-size="12" dy=".8em" y="317.700005851686" x="783.5000131353736">测试</text></g></g><g id="minder_node42"><g id="node_expander40" style="cursor: pointer;" display="none"><path id="kity_path_488" fill="white" stroke="gray" d="M750.5000125542283,351.5000062659383A6,6,0,1,1,738.5000125542283,351.5000062659383A6,6,0,1,1,750.5000125542283,351.5000062659383"></path><path id="kity_path_489" fill="none" stroke="gray"></path></g><path id="node_outline41" fill="#92d050" stroke="none" d="M755.5000127181411,342.5000062659383h60a5,5,0,0,1,5,5v8a5,5,0,0,1,-5,5h-60a5,5,0,0,1,-5,-5v-8a5,5,0,0,1,5,-5z"></path><g id="node_text41" fill="#ffffff"><text id="kity_text_235" text-rendering="inherit" font-size="12" dy=".8em" font-weight="bold" y="343.7000062391162" x="755.5000127181411">认知心理学</text></g></g><g id="minder_node43"><g id="node_expander41" style="cursor: pointer;" display="none"><path id="kity_path_491" fill="white" stroke="gray" d="M750.5000125542283,377.5000066533685A6,6,0,1,1,738.5000125542283,377.5000066533685A6,6,0,1,1,750.5000125542283,377.5000066533685"></path><path id="kity_path_492" fill="none" stroke="gray"></path></g><path id="node_outline42" fill="#92d050" stroke="none" d="M755.5000127181411,368.5000066533685h37a5,5,0,0,1,5,5v8a5,5,0,0,1,-5,5h-37a5,5,0,0,1,-5,-5v-8a5,5,0,0,1,5,-5z"></path><g id="node_text42" fill="#ffffff"><text id="kity_text_237" text-rendering="inherit" font-size="12" dy=".8em" font-weight="bold" y="369.7000066265464" x="755.5000127181411">行为学</text></g></g><g id="minder_node44"><g id="node_expander47" style="cursor: pointer;"><path id="kity_path_509" fill="white" stroke="gray" d="M961.5000156983733,83.50000227242708A6,6,0,1,1,949.5000156983733,83.50000227242708A6,6,0,1,1,961.5000156983733,83.50000227242708"></path><path id="kity_path_510" fill="none" stroke="gray" d="M951.0000156983733,83.50000227242708L960.0000156983733,83.50000227242708"></path></g><path id="node_outline48" fill="#92d050" stroke="rgb(115, 161, 191)" d="M911.500015668571,90.50000261515379h88a3,3,0,0,1,3,3v26a3,3,0,0,1,-3,3h-88a3,3,0,0,1,-3,-3v-26a3,3,0,0,1,3,-3z" stroke-width="1"></path><g id="node_text48" fill="#ffffff"><text id="kity_text_250" text-rendering="inherit" font-size="14" dy=".8em" y="97.40000258386135" font-weight="bold" x="953.500015668571">上瘾</text></g><g id="node_priority4"><path id="kity_path_300" fill="#840023" stroke="none" d="M929.0000153034925,110.00000247359276c0,3.866,3.134,7,7,7h6c3.866,0,7,-3.134,7,-7V104.00000247359276H929.0000153034925V110.00000247359276z"></path><path id="kity_path_301" fill="#FF1200" stroke="none" d="M949.0000153034925,107.00000247359276c0,3.866,-3.134,7,-7,7H936.0000153034925c-3.866,0,-7,-3.134,-7,-7V104.00000247359276c0,-3.866,3.134,-7,7,-7h6c3.866,0,7,3.134,7,7V107.00000247359276z" opacity="0.8"></path><text id="kity_text_302" text-rendering="geometricPrecision" x="938.000015296042" y="106.50000246614218" text-anchor="middle" font-style="italic" font-size="12" fill="white" dy="5">1</text></g></g><g id="minder_node45"><g id="node_expander44" style="cursor: pointer;"><path id="kity_path_500" fill="white" stroke="gray" d="M936.5000153258443,143.50000316649675A6,6,0,1,1,924.5000153258443,143.50000316649675A6,6,0,1,1,936.5000153258443,143.50000316649675"></path><path id="kity_path_501" fill="none" stroke="gray" d="M926.0000153258443,143.50000316649675L935.0000153258443,143.50000316649675"></path></g><path id="node_outline45" fill="#92d050" stroke="none" d="M941.5000154897571,134.50000316649675h40a5,5,0,0,1,5,5v8a5,5,0,0,1,-5,5h-40a5,5,0,0,1,-5,-5v-8a5,5,0,0,1,5,-5z"></path><g id="node_text45" fill="#ffffff"><text id="kity_text_243" text-rendering="inherit" font-size="12" dy=".8em" font-weight="bold" y="135.70000313967466" x="941.5000154897571">注意力&#xa0;</text></g></g><g id="minder_node46"><g id="node_expander43" style="cursor: pointer;" display="none"><path id="kity_path_497" fill="white" stroke="gray" d="M964.5000157430768,169.50000355392694A6,6,0,1,1,952.5000157430768,169.50000355392694A6,6,0,1,1,964.5000157430768,169.50000355392694"></path><path id="kity_path_498" fill="none" stroke="gray"></path></g><path id="node_outline44" fill="none" stroke="none" d="M969.5000159069896,160.50000355392694h193a5,5,0,0,1,5,5v8a5,5,0,0,1,-5,5h-193a5,5,0,0,1,-5,-5v-8a5,5,0,0,1,5,-5z"></path><g id="node_text44" fill="black"><text id="kity_text_241" text-rendering="inherit" font-size="12" dy=".8em" y="161.70000352710485" x="969.5000159069896">用户的注意力成为被科技竞争的对象</text></g></g><g id="minder_node47"><g id="node_expander45" style="cursor: pointer;" display="none"><path id="kity_path_503" fill="white" stroke="gray" d="M936.5000153258443,195.50000394135714A6,6,0,1,1,924.5000153258443,195.50000394135714A6,6,0,1,1,936.5000153258443,195.50000394135714"></path><path id="kity_path_504" fill="none" stroke="gray"></path></g><path id="node_outline46" fill="none" stroke="none" d="M941.5000154897571,186.50000394135714h109a5,5,0,0,1,5,5v8a5,5,0,0,1,-5,5h-109a5,5,0,0,1,-5,-5v-8a5,5,0,0,1,5,-5z"></path><g id="node_text46" fill="black"><text id="kity_text_245" text-rendering="inherit" font-size="12" dy=".8em" y="187.70000391453505" x="941.5000154897571">联系是上瘾的对立面</text></g></g><g id="minder_node48"><g id="node_expander46" style="cursor: pointer;" display="none"><path id="kity_path_506" fill="white" stroke="gray" d="M936.5000153258443,230.50000446289778A6,6,0,1,1,924.5000153258443,230.50000446289778A6,6,0,1,1,936.5000153258443,230.50000446289778"></path><path id="kity_path_507" fill="none" stroke="gray"></path></g><path id="node_outline47" fill="none" stroke="none" d="M941.5000154897571,212.50000446289778h193a5,5,0,0,1,5,5v26a5,5,0,0,1,-5,5h-193a5,5,0,0,1,-5,-5v-26a5,5,0,0,1,5,-5z"></path><g id="node_text47" fill="black"><text id="kity_text_247" text-rendering="inherit" font-size="12" dy=".8em" y="213.7000044360757" x="941.5000154897571">与外界失联，缺少和外界健康的依赖</text><text id="kity_text_248" text-rendering="inherit" font-size="12" dy=".8em" y="231.7000044360757" x="941.5000154897571">是上瘾的导致因素。</text></g></g><g id="minder_node49"><g id="node_expander62" style="cursor: pointer;"><path id="kity_path_554" fill="white" stroke="gray" d="M1257.0000201016665,83.50000227242708A6,6,0,1,1,1245.0000201016665,83.50000227242708A6,6,0,1,1,1257.0000201016665,83.50000227242708"></path><path id="kity_path_555" fill="none" stroke="gray" d="M1246.5000201016665,83.50000227242708L1255.5000201016665,83.50000227242708"></path></g><path id="node_outline63" fill="#92d050" stroke="rgb(115, 161, 191)" d="M1186.5000197663903,90.50000261515379h129a3,3,0,0,1,3,3v26a3,3,0,0,1,-3,3h-129a3,3,0,0,1,-3,-3v-26a3,3,0,0,1,3,-3z" stroke-width="1"></path><g id="node_text63" fill="#ffffff"><text id="kity_text_281" text-rendering="inherit" font-size="14" dy=".8em" y="97.40000258386135" font-weight="bold" x="1228.5000197663903">可持续设计</text></g><g id="node_priority5"><path id="kity_path_305" fill="#840023" stroke="none" d="M1204.0000194013119,110.00000247359276c0,3.866,3.134,7,7,7h6c3.866,0,7,-3.134,7,-7V104.00000247359276H1204.0000194013119V110.00000247359276z"></path><path id="kity_path_306" fill="#FF1200" stroke="none" d="M1224.0000194013119,107.00000247359276c0,3.866,-3.134,7,-7,7H1211.0000194013119c-3.866,0,-7,-3.134,-7,-7V104.00000247359276c0,-3.866,3.134,-7,7,-7h6c3.866,0,7,3.134,7,7V107.00000247359276z" opacity="0.8"></path><text id="kity_text_307" text-rendering="geometricPrecision" x="1213.0000193938613" y="106.50000246614218" text-anchor="middle" font-style="italic" font-size="12" fill="white" dy="5">1</text></g></g><g id="minder_node50"><g id="node_expander53" style="cursor: pointer;"><path id="kity_path_527" fill="white" stroke="gray" d="M1211.5000194236636,143.50000316649675A6,6,0,1,1,1199.5000194236636,143.50000316649675A6,6,0,1,1,1211.5000194236636,143.50000316649675"></path><path id="kity_path_528" fill="none" stroke="gray" d="M1201.0000194236636,143.50000316649675L1210.0000194236636,143.50000316649675"></path></g><path id="node_outline54" fill="none" stroke="none" d="M1216.5000195875764,134.50000316649675h68a5,5,0,0,1,5,5v8a5,5,0,0,1,-5,5h-68a5,5,0,0,1,-5,-5v-8a5,5,0,0,1,5,-5z"></path><g id="node_text54" fill="black"><text id="kity_text_263" text-rendering="inherit" font-size="12" dy=".8em" font-weight="bold" y="135.70000313967466" x="1216.5000195875764">5项变革策略</text></g></g><g id="minder_node51"><g id="node_expander48" style="cursor: pointer;" display="none"><path id="kity_path_512" fill="white" stroke="gray" d="M1239.5000198408961,169.50000355392694A6,6,0,1,1,1227.5000198408961,169.50000355392694A6,6,0,1,1,1239.5000198408961,169.50000355392694"></path><path id="kity_path_513" fill="none" stroke="gray"></path></g><path id="node_outline49" fill="none" stroke="none" d="M1244.500020004809,160.50000355392694h97a5,5,0,0,1,5,5v8a5,5,0,0,1,-5,5h-97a5,5,0,0,1,-5,-5v-8a5,5,0,0,1,5,-5z"></path><g id="node_text49" fill="black"><text id="kity_text_252" text-rendering="inherit" font-size="12" dy=".8em" y="161.70000352710485" x="1244.500020004809">建立全球能源民主</text></g></g><g id="minder_node52"><g id="node_expander49" style="cursor: pointer;" display="none"><path id="kity_path_515" fill="white" stroke="gray" d="M1239.5000198408961,195.50000394135714A6,6,0,1,1,1227.5000198408961,195.50000394135714A6,6,0,1,1,1239.5000198408961,195.50000394135714"></path><path id="kity_path_516" fill="none" stroke="gray"></path></g><path id="node_outline50" fill="none" stroke="none" d="M1244.500020004809,186.50000394135714h148a5,5,0,0,1,5,5v8a5,5,0,0,1,-5,5h-148a5,5,0,0,1,-5,-5v-8a5,5,0,0,1,5,-5z"></path><g id="node_text50" fill="black"><text id="kity_text_254" text-rendering="inherit" font-size="12" dy=".8em" y="187.70000391453505" x="1244.500020004809">可持续食物系统的 快速转变</text></g></g><g id="minder_node53"><g id="node_expander50" style="cursor: pointer;" display="none"><path id="kity_path_518" fill="white" stroke="gray" d="M1239.5000198408961,221.50000432878733A6,6,0,1,1,1227.5000198408961,221.50000432878733A6,6,0,1,1,1239.5000198408961,221.50000432878733"></path><path id="kity_path_519" fill="none" stroke="gray"></path></g><path id="node_outline51" fill="none" stroke="none" d="M1244.500020004809,212.50000432878733h73a5,5,0,0,1,5,5v8a5,5,0,0,1,-5,5h-73a5,5,0,0,1,-5,-5v-8a5,5,0,0,1,5,-5z"></path><g id="node_text51" fill="black"><text id="kity_text_256" text-rendering="inherit" font-size="12" dy=".8em" y="213.70000430196524" x="1244.500020004809">改变发展策略</text></g></g><g id="minder_node54"><g id="node_expander51" style="cursor: pointer;" display="none"><path id="kity_path_521" fill="white" stroke="gray" d="M1239.5000198408961,247.50000471621752A6,6,0,1,1,1227.5000198408961,247.50000471621752A6,6,0,1,1,1239.5000198408961,247.50000471621752"></path><path id="kity_path_522" fill="none" stroke="gray"></path></g><path id="node_outline52" fill="none" stroke="none" d="M1244.500020004809,238.50000471621752h73a5,5,0,0,1,5,5v8a5,5,0,0,1,-5,5h-73a5,5,0,0,1,-5,-5v-8a5,5,0,0,1,5,-5z"></path><g id="node_text52" fill="black"><text id="kity_text_258" text-rendering="inherit" font-size="12" dy=".8em" y="239.70000468939543" x="1244.500020004809">重新分配财富</text></g></g><g id="minder_node55"><g id="node_expander52" style="cursor: pointer;" display="none"><path id="kity_path_524" fill="white" stroke="gray" d="M1239.5000198408961,282.50000523775816A6,6,0,1,1,1227.5000198408961,282.50000523775816A6,6,0,1,1,1239.5000198408961,282.50000523775816"></path><path id="kity_path_525" fill="none" stroke="gray"></path></g><path id="node_outline53" fill="none" stroke="none" d="M1244.500020004809,264.50000523775816h217a5,5,0,0,1,5,5v26a5,5,0,0,1,-5,5h-217a5,5,0,0,1,-5,-5v-26a5,5,0,0,1,5,-5z"></path><g id="node_text53" fill="black"><text id="kity_text_260" text-rendering="inherit" font-size="12" dy=".8em" y="265.70000521093607" x="1244.500020004809">增加 更多投入到教育，健康，</text><text id="kity_text_261" text-rendering="inherit" font-size="12" dy=".8em" y="283.70000521093607" x="1244.500020004809"> 就业机会，节育，加大对全球女性的投资</text></g></g><g id="minder_node56"><g id="node_expander55" style="cursor: pointer;"><path id="kity_path_533" fill="white" stroke="gray" d="M1211.5000194236636,317.5000057592988A6,6,0,1,1,1199.5000194236636,317.5000057592988A6,6,0,1,1,1211.5000194236636,317.5000057592988"></path><path id="kity_path_534" fill="none" stroke="gray" d="M1201.0000194236636,317.5000057592988L1210.0000194236636,317.5000057592988"></path></g><path id="node_outline56" fill="#92d050" stroke="none" d="M1216.5000195875764,308.5000057592988h52a5,5,0,0,1,5,5v8a5,5,0,0,1,-5,5h-52a5,5,0,0,1,-5,-5v-8a5,5,0,0,1,5,-5z"></path><g id="node_text56" fill="#ffffff"><text id="kity_text_267" text-rendering="inherit" font-size="12" dy=".8em" font-weight="bold" y="309.7000057324767" x="1216.5000195875764">环境民俗&#xa0;</text></g></g><g id="minder_node57"><g id="node_expander54" style="cursor: pointer;" display="none"><path id="kity_path_530" fill="white" stroke="gray" d="M1239.5000198408961,343.500006146729A6,6,0,1,1,1227.5000198408961,343.500006146729A6,6,0,1,1,1239.5000198408961,343.500006146729"></path><path id="kity_path_531" fill="none" stroke="gray"></path></g><path id="node_outline55" fill="none" stroke="none" d="M1244.500020004809,334.500006146729h372a5,5,0,0,1,5,5v8a5,5,0,0,1,-5,5h-372a5,5,0,0,1,-5,-5v-8a5,5,0,0,1,5,-5z"></path><g id="node_text55" fill="black"><text id="kity_text_265" text-rendering="inherit" font-size="12" dy=".8em" y="335.7000061199069" x="1244.500020004809">想让产品更环保，不在于设计时使用绿色材料，而在于用户如何使用。</text></g></g><g id="minder_node58"><g id="node_expander60" style="cursor: pointer;"><path id="kity_path_548" fill="white" stroke="gray" d="M1211.5000194236636,369.5000065341592A6,6,0,1,1,1199.5000194236636,369.5000065341592A6,6,0,1,1,1211.5000194236636,369.5000065341592"></path><path id="kity_path_549" fill="none" stroke="gray" d="M1201.0000194236636,369.5000065341592L1210.0000194236636,369.5000065341592"></path></g><path id="node_outline61" fill="#92d050" stroke="none" d="M1216.5000195875764,360.5000065341592h49a5,5,0,0,1,5,5v8a5,5,0,0,1,-5,5h-49a5,5,0,0,1,-5,-5v-8a5,5,0,0,1,5,-5z"></path><g id="node_text61" fill="#ffffff"><text id="kity_text_277" text-rendering="inherit" font-size="12" dy=".8em" font-weight="bold" y="361.7000065073371" x="1216.5000195875764">绿色城市</text></g></g><g id="minder_node59"><g id="node_expander56" style="cursor: pointer;" display="none"><path id="kity_path_536" fill="white" stroke="gray" d="M1239.5000198408961,395.5000069215894A6,6,0,1,1,1227.5000198408961,395.5000069215894A6,6,0,1,1,1239.5000198408961,395.5000069215894"></path><path id="kity_path_537" fill="none" stroke="gray"></path></g><path id="node_outline57" fill="none" stroke="none" d="M1244.500020004809,386.5000069215894h61a5,5,0,0,1,5,5v8a5,5,0,0,1,-5,5h-61a5,5,0,0,1,-5,-5v-8a5,5,0,0,1,5,-5z"></path><g id="node_text57" fill="black"><text id="kity_text_269" text-rendering="inherit" font-size="12" dy=".8em" y="387.7000068947673" x="1244.500020004809">蛙跳式发展</text></g></g><g id="minder_node60"><g id="node_expander57" style="cursor: pointer;" display="none"><path id="kity_path_539" fill="white" stroke="gray" d="M1239.5000198408961,421.50000730901957A6,6,0,1,1,1227.5000198408961,421.50000730901957A6,6,0,1,1,1239.5000198408961,421.50000730901957"></path><path id="kity_path_540" fill="none" stroke="gray"></path></g><path id="node_outline58" fill="none" stroke="none" d="M1244.500020004809,412.50000730901957h50a5,5,0,0,1,5,5v8a5,5,0,0,1,-5,5h-50a5,5,0,0,1,-5,-5v-8a5,5,0,0,1,5,-5z"></path><g id="node_text58" fill="black"><text id="kity_text_271" text-rendering="inherit" font-size="12" dy=".8em" y="413.7000072821975" x="1244.500020004809">合作工具</text></g></g><g id="minder_node61"><g id="node_expander58" style="cursor: pointer;" display="none"><path id="kity_path_542" fill="white" stroke="gray" d="M1239.5000198408961,447.50000769644976A6,6,0,1,1,1227.5000198408961,447.50000769644976A6,6,0,1,1,1239.5000198408961,447.50000769644976"></path><path id="kity_path_543" fill="none" stroke="gray"></path></g><path id="node_outline59" fill="none" stroke="none" d="M1244.500020004809,438.50000769644976h74a5,5,0,0,1,5,5v8a5,5,0,0,1,-5,5h-74a5,5,0,0,1,-5,-5v-8a5,5,0,0,1,5,-5z"></path><g id="node_text59" fill="black"><text id="kity_text_273" text-rendering="inherit" font-size="12" dy=".8em" y="439.70000766962767" x="1244.500020004809">重塑新的政治</text></g></g><g id="minder_node62"><g id="node_expander59" style="cursor: pointer;" display="none"><path id="kity_path_545" fill="white" stroke="gray" d="M1239.5000198408961,473.50000808387995A6,6,0,1,1,1227.5000198408961,473.50000808387995A6,6,0,1,1,1239.5000198408961,473.50000808387995"></path><path id="kity_path_546" fill="none" stroke="gray"></path></g><path id="node_outline60" fill="none" stroke="none" d="M1244.500020004809,464.50000808387995h72a5,5,0,0,1,5,5v8a5,5,0,0,1,-5,5h-72a5,5,0,0,1,-5,-5v-8a5,5,0,0,1,5,-5z"></path><g id="node_text60" fill="black"><text id="kity_text_275" text-rendering="inherit" font-size="12" dy=".8em" y="465.70000805705786" x="1244.500020004809">“严肃游戏”</text></g></g><g id="minder_node63"><g id="node_expander61" style="cursor: pointer;" display="none"><path id="kity_path_551" fill="white" stroke="gray" d="M1211.5000194236636,499.50000847131014A6,6,0,1,1,1199.5000194236636,499.50000847131014A6,6,0,1,1,1211.5000194236636,499.50000847131014"></path><path id="kity_path_552" fill="none" stroke="gray"></path></g><path id="node_outline62" fill="none" stroke="none" d="M1216.5000195875764,490.50000847131014h277a5,5,0,0,1,5,5v8a5,5,0,0,1,-5,5h-277a5,5,0,0,1,-5,-5v-8a5,5,0,0,1,5,-5z"></path><g id="node_text62" fill="black"><text id="kity_text_279" text-rendering="inherit" font-size="12" dy=".8em" y="491.70000844448805" x="1216.5000195875764">考虑产品的生命周期，更多的关注用户的使用情况。</text></g></g></g></g></svg>