<svg id="kity_svg_6" xmlns="http://www.w3.org/2000/svg" xmlns:xlink="http://www.w3.org/1999/xlink" version="1.1" width="1915" height="650" style="background: rgb(251, 251, 251); visibility: visible;" viewBox="0 0 1915 650"><defs id="kity_defs_7"><linearGradient id="kity_linearGradient_17" x1="0" y1="0" x2="0" y2="1"><stop id="kity_stop_18" offset="0" stop-color="rgb(255, 255, 255)"></stop><stop id="kity_stop_19" offset="1" stop-color="rgb(204, 204, 204)"></stop></linearGradient><marker id="kity_marker_2" orient="auto" refX="6" refY="0" viewBox="-7 -7 14 14" markerWidth="7" markerHeight="7" markerUnits="userSpaceOnUse"><path id="kity_path_3" fill="rgb(115, 161, 191)" stroke="none" d="M6,0A6,6,0,1,1,-6,0A6,6,0,1,1,6,0"></path></marker></defs><g id="kity_g_8"><g id="minder1" text-rendering="optimize-speed"><g id="minder_connect_group1"><path id="kity_path_31" fill="none" stroke="rgb(191, 147, 115)" stroke-width="1" d="M957.5000114366412,72.49999933689833v10h-848.5V90.49999933689833"></path><path id="kity_path_33" fill="none" stroke="rgb(191, 147, 115)" stroke-width="1" d="M39.500011436641216,122.49999933689833V143.49999933689833L47.500011436641216,143.49999933689833"></path><path id="kity_path_35" fill="none" stroke="rgb(191, 147, 115)" stroke-width="1" d="M67.50001143664122,152.49999933689833V169.49999933689833L75.50001143664122,169.49999933689833"></path><path id="kity_path_39" fill="none" stroke="rgb(191, 147, 115)" stroke-width="1" d="M39.500011436641216,122.49999933689833V221.49999933689833L47.500011436641216,221.49999933689833"></path><path id="kity_path_41" fill="none" stroke="rgb(191, 147, 115)" stroke-width="1" d="M67.50001143664122,230.49999933689833V247.49999933689833L75.50001143664122,247.49999933689833"></path><path id="kity_path_43" fill="none" stroke="rgb(191, 147, 115)" stroke-width="1" d="M67.50001143664122,230.49999933689833V273.4999993368983L75.50001143664122,273.4999993368983"></path><path id="kity_path_45" fill="none" stroke="rgb(191, 147, 115)" stroke-width="1" d="M67.50001143664122,230.49999933689833V299.4999993368983L75.50001143664122,299.4999993368983"></path><path id="kity_path_47" fill="none" stroke="rgb(191, 147, 115)" stroke-width="1" d="M95.50001143664122,308.4999993368983V325.4999993368983L103.50001143664122,325.4999993368983"></path><path id="kity_path_49" fill="none" stroke="rgb(191, 147, 115)" stroke-width="1" d="M123.50001143664122,334.4999993368983V351.4999993368983L131.50001143664122,351.4999993368983"></path><path id="kity_path_51" fill="none" stroke="rgb(191, 147, 115)" stroke-width="1" d="M95.50001143664122,308.4999993368983V377.4999993368983L103.50001143664122,377.4999993368983"></path><path id="kity_path_53" fill="none" stroke="rgb(191, 147, 115)" stroke-width="1" d="M67.50001143664122,230.49999933689833V403.4999993368983L75.50001143664122,403.4999993368983"></path><path id="kity_path_55" fill="none" stroke="rgb(191, 147, 115)" stroke-width="1" d="M95.50001143664122,412.4999993368983V447.4999993368983L103.50001143664122,447.4999993368983"></path><path id="kity_path_57" fill="none" stroke="rgb(191, 147, 115)" stroke-width="1" d="M39.500011436641216,122.49999933689833V491.4999993368983L47.500011436641216,491.4999993368983"></path><path id="kity_path_59" fill="none" stroke="rgb(191, 147, 115)" stroke-width="1" d="M67.50001143664122,500.4999993368983V517.4999993368983L75.50001143664122,517.4999993368983"></path><path id="kity_path_61" fill="none" stroke="rgb(191, 147, 115)" stroke-width="1" d="M67.50001143664122,500.4999993368983V543.4999993368983L75.50001143664122,543.4999993368983"></path><path id="kity_path_63" fill="none" stroke="rgb(191, 147, 115)" stroke-width="1" d="M95.50001143664122,552.4999993368983V569.4999993368983L103.50001143664122,569.4999993368983"></path><path id="kity_path_65" fill="none" stroke="rgb(191, 147, 115)" stroke-width="1" d="M95.50001143664122,552.4999993368983V595.4999993368983L103.50001143664122,595.4999993368983"></path><path id="kity_path_67" fill="none" stroke="rgb(191, 147, 115)" stroke-width="1" d="M957.5000114366412,72.49999933689833v10h-302.5V90.49999933689833"></path><path id="kity_path_69" fill="none" stroke="rgb(191, 147, 115)" stroke-width="1" d="M542.5000114366412,122.49999933689833V143.49999933689833L550.5000114366412,143.49999933689833"></path><path id="kity_path_71" fill="none" stroke="rgb(191, 147, 115)" stroke-width="1" d="M570.5000114366412,152.49999933689833V178.49999933689833L578.5000114366412,178.49999933689833"></path><path id="kity_path_73" fill="none" stroke="rgb(191, 147, 115)" stroke-width="1" d="M542.5000114366412,122.49999933689833V213.49999933689833L550.5000114366412,213.49999933689833"></path><path id="kity_path_75" fill="none" stroke="rgb(191, 147, 115)" stroke-width="1" d="M570.5000114366412,222.49999933689833V239.49999933689833L578.5000114366412,239.49999933689833"></path><path id="kity_path_77" fill="none" stroke="rgb(191, 147, 115)" stroke-width="1" d="M542.5000114366412,122.49999933689833V265.4999993368983L550.5000114366412,265.4999993368983"></path><path id="kity_path_79" fill="none" stroke="rgb(191, 147, 115)" stroke-width="1" d="M570.5000114366412,274.4999993368983V300.4999993368983L578.5000114366412,300.4999993368983"></path><path id="kity_path_81" fill="none" stroke="rgb(191, 147, 115)" stroke-width="1" d="M570.5000114366412,274.4999993368983V335.4999993368983L578.5000114366412,335.4999993368983"></path><path id="kity_path_83" fill="none" stroke="rgb(191, 147, 115)" stroke-width="1" d="M598.5000114366412,344.4999993368983V370.4999993368983L606.5000114366412,370.4999993368983"></path><path id="kity_path_85" fill="none" stroke="rgb(191, 147, 115)" stroke-width="1" d="M957.5000114366412,72.49999933689833v10h33V90.49999933689833"></path><path id="kity_path_87" fill="none" stroke="rgb(191, 147, 115)" stroke-width="1" d="M962.5000114366412,122.49999933689833V143.49999933689833L970.5000114366412,143.49999933689833"></path><path id="kity_path_89" fill="none" stroke="rgb(191, 147, 115)" stroke-width="1" d="M990.5000114366412,152.49999933689833V169.49999933689833L998.5000114366412,169.49999933689833"></path><path id="kity_path_91" fill="none" stroke="rgb(191, 147, 115)" stroke-width="1" d="M990.5000114366412,152.49999933689833V195.49999933689833L998.5000114366412,195.49999933689833"></path><path id="kity_path_93" fill="none" stroke="rgb(191, 147, 115)" stroke-width="1" d="M990.5000114366412,152.49999933689833V221.49999933689833L998.5000114366412,221.49999933689833"></path><path id="kity_path_95" fill="none" stroke="rgb(191, 147, 115)" stroke-width="1" d="M1018.5000114366412,230.49999933689833V247.49999933689833L1026.5000114366412,247.49999933689833"></path><path id="kity_path_97" fill="none" stroke="rgb(191, 147, 115)" stroke-width="1" d="M962.5000114366412,122.49999933689833V273.4999993368983L970.5000114366412,273.4999993368983"></path><path id="kity_path_99" fill="none" stroke="rgb(191, 147, 115)" stroke-width="1" d="M990.5000114366412,282.4999993368983V308.4999993368983L998.5000114366412,308.4999993368983"></path><path id="kity_path_101" fill="none" stroke="rgb(191, 147, 115)" stroke-width="1" d="M990.5000114366412,282.4999993368983V352.4999993368983L998.5000114366412,352.4999993368983"></path><path id="kity_path_103" fill="none" stroke="rgb(191, 147, 115)" stroke-width="1" d="M1018.5000114366412,370.4999993368983V387.4999993368983L1026.5000114366412,387.4999993368983"></path><path id="kity_path_105" fill="none" stroke="rgb(191, 147, 115)" stroke-width="1" d="M1018.5000114366412,370.4999993368983V413.4999993368983L1026.5000114366412,413.4999993368983"></path><path id="kity_path_107" fill="none" stroke="rgb(191, 147, 115)" stroke-width="1" d="M962.5000114366412,122.49999933689833V439.4999993368983L970.5000114366412,439.4999993368983"></path><path id="kity_path_109" fill="none" stroke="rgb(191, 147, 115)" stroke-width="1" d="M990.5000114366412,448.4999993368983V465.4999993368983L998.5000114366412,465.4999993368983"></path><path id="kity_path_111" fill="none" stroke="rgb(191, 147, 115)" stroke-width="1" d="M990.5000114366412,448.4999993368983V491.4999993368983L998.5000114366412,491.4999993368983"></path><path id="kity_path_113" fill="none" stroke="rgb(191, 147, 115)" stroke-width="1" d="M1018.5000114366412,500.4999993368983V517.4999993368983L1026.5000114366412,517.4999993368983"></path><path id="kity_path_115" fill="none" stroke="rgb(191, 147, 115)" stroke-width="1" d="M1018.5000114366412,500.4999993368983V543.4999993368983L1026.5000114366412,543.4999993368983"></path><path id="kity_path_117" fill="none" stroke="rgb(191, 147, 115)" stroke-width="1" d="M990.5000114366412,448.4999993368983V569.4999993368983L998.5000114366412,569.4999993368983"></path><path id="kity_path_119" fill="none" stroke="rgb(191, 147, 115)" stroke-width="1" d="M1018.5000114366412,578.4999993368983V595.4999993368983L1026.5000114366412,595.4999993368983"></path><path id="kity_path_121" fill="none" stroke="rgb(191, 147, 115)" stroke-width="1" d="M1018.5000114366412,578.4999993368983V621.4999993368983L1026.5000114366412,621.4999993368983"></path><path id="kity_path_123" fill="none" stroke="rgb(191, 147, 115)" stroke-width="1" d="M957.5000114366412,72.49999933689833v10h553.5V90.49999933689833"></path><path id="kity_path_125" fill="none" stroke="rgb(191, 147, 115)" stroke-width="1" d="M1447.5000114366412,122.49999933689833V143.49999933689833L1455.5000114366412,143.49999933689833"></path><path id="kity_path_127" fill="none" stroke="rgb(191, 147, 115)" stroke-width="1" d="M1475.5000114366412,152.49999933689833V169.49999933689833L1483.5000114366412,169.49999933689833"></path><path id="kity_path_129" fill="none" stroke="rgb(191, 147, 115)" stroke-width="1" d="M1447.5000114366412,122.49999933689833V195.49999933689833L1455.5000114366412,195.49999933689833"></path><path id="kity_path_131" fill="none" stroke="rgb(191, 147, 115)" stroke-width="1" d="M1447.5000114366412,122.49999933689833V230.49999933689833L1455.5000114366412,230.49999933689833"></path><path id="kity_path_133" fill="none" stroke="rgb(191, 147, 115)" stroke-width="1" d="M957.5000114366412,72.49999933689833v10h841.5V90.49999933689833"></path><path id="kity_path_135" fill="none" stroke="rgb(191, 147, 115)" stroke-width="1" d="M1722.5000114366412,122.49999933689833V143.49999933689833L1730.5000114366412,143.49999933689833"></path><path id="kity_path_137" fill="none" stroke="rgb(191, 147, 115)" stroke-width="1" d="M1750.5000114366412,152.49999933689833V169.49999933689833L1758.5000114366412,169.49999933689833"></path><path id="kity_path_139" fill="none" stroke="rgb(191, 147, 115)" stroke-width="1" d="M1750.5000114366412,152.49999933689833V195.49999933689833L1758.5000114366412,195.49999933689833"></path><path id="kity_path_141" fill="none" stroke="rgb(191, 147, 115)" stroke-width="1" d="M1750.5000114366412,152.49999933689833V221.49999933689833L1758.5000114366412,221.49999933689833"></path><path id="kity_path_143" fill="none" stroke="rgb(191, 147, 115)" stroke-width="1" d="M1750.5000114366412,152.49999933689833V247.49999933689833L1758.5000114366412,247.49999933689833"></path><path id="kity_path_521" fill="none" stroke="rgb(191, 147, 115)" stroke-width="1" d="M67.50001143664122,152.49999933689833V195.49999933689833L75.50001143664122,195.49999933689833"></path></g><g id="minder_node1"><path id="node_outline1" fill="#e8c009" stroke="rgb(191, 147, 115)" d="M784.5000114366412,20.499999336898327h345a5,5,0,0,1,5,5v42a5,5,0,0,1,-5,5h-345a5,5,0,0,1,-5,-5v-42a5,5,0,0,1,5,-5z" stroke-width="3"></path><g id="node_text1" fill="white"><text id="kity_text_22" text-rendering="inherit" font-size="16" dy=".8em" y="24.09999930113554" font-weight="bold" x="791.5000114366412">科技、娱乐、设计</text><text id="kity_text_266" text-rendering="inherit" font-size="16" dy=".8em" font-weight="bold" y="48.09999930113554" x="791.5000114366412">https://tumaorou.github.io/TED/TED.svg</text></g></g><g id="kity_g_14" display="none"><path id="kity_path_15" fill="none" stroke="none" d="M791.5000114366412,46.49999933689833h0v0h0z"></path><path id="kity_path_16" fill="none" stroke="none"></path></g><g id="minder_node2"><g id="node_expander18" style="cursor: pointer;"><path id="kity_path_401" fill="white" stroke="gray" d="M114.50000125914812,83.49999988824129A6,6,0,1,1,102.50000125914812,83.49999988824129A6,6,0,1,1,114.50000125914812,83.49999988824129"></path><path id="kity_path_402" fill="none" stroke="gray" d="M104.00000125914812,83.49999988824129L113.00000125914812,83.49999988824129"></path></g><path id="node_outline19" fill="#e8c009" stroke="rgb(191, 147, 115)" d="M22.50000060349703,90.500000230968h172a3,3,0,0,1,3,3v26a3,3,0,0,1,-3,3h-172a3,3,0,0,1,-3,-3v-26a3,3,0,0,1,3,-3z" stroke-width="1"></path><g id="node_text19" fill="#ffffff"><text id="kity_text_181" text-rendering="inherit" font-size="14" dy=".8em" font-weight="bold" y="97.40000019967556" x="64.50000060349703">区块链与应用平台</text></g><g id="node_priority1"><path id="kity_path_269" fill="#4720C4" stroke="none" d="M40.00000023841858,110.00000008940697c0,3.866,3.134,7,7,7h6c3.866,0,7,-3.134,7,-7V104.00000008940697H40.00000023841858V110.00000008940697z"></path><path id="kity_path_270" fill="#A464FF" stroke="none" d="M60.00000023841858,107.00000008940697c0,3.866,-3.134,7,-7,7H47.00000023841858c-3.866,0,-7,-3.134,-7,-7V104.00000008940697c0,-3.866,3.134,-7,7,-7h6c3.866,0,7,3.134,7,7V107.00000008940697z" opacity="0.8"></path><text id="kity_text_271" text-rendering="geometricPrecision" x="49.000000230968" y="106.50000008195639" text-anchor="middle" font-style="italic" font-size="12" fill="white" dy="5">5</text></g></g><g id="minder_node3"><g id="node_expander3" style="cursor: pointer;"><path id="kity_path_356" fill="white" stroke="gray" d="M47.50000026077032,143.50000078231096A6,6,0,1,1,35.50000026077032,143.50000078231096A6,6,0,1,1,47.50000026077032,143.50000078231096"></path><path id="kity_path_357" fill="none" stroke="gray" d="M37.00000026077032,143.50000078231096L46.00000026077032,143.50000078231096"></path></g><path id="node_outline4" fill="#e8c009" stroke="none" d="M52.500000424683094,134.50000078231096h105a5,5,0,0,1,5,5v8a5,5,0,0,1,-5,5h-105a5,5,0,0,1,-5,-5v-8a5,5,0,0,1,5,-5z"></path><g id="node_text4" fill="#ffffff"><text id="kity_text_149" text-rendering="inherit" font-size="12" dy=".8em" font-weight="bold" y="135.70000075548887" x="52.500000424683094">区块链 Blockchain</text></g></g><g id="minder_node4"><g id="node_expander1" display="none" style="cursor: pointer;"><path id="kity_path_350" fill="white" stroke="gray" d="M75.50000067800283,169.50000116974115A6,6,0,1,1,63.500000678002834,169.50000116974115A6,6,0,1,1,75.50000067800283,169.50000116974115"></path><path id="kity_path_351" fill="none" stroke="gray"></path></g><path id="node_outline2" fill="none" stroke="none" d="M80.50000084191561,160.50000116974115h277a5,5,0,0,1,5,5v8a5,5,0,0,1,-5,5h-277a5,5,0,0,1,-5,-5v-8a5,5,0,0,1,5,-5z"></path><g id="node_text2" fill="black"><text id="kity_text_145" text-rendering="inherit" font-size="12" dy=".8em" y="161.70000114291906" x="80.50000084191561">区块链能够保护隐私，比传统平台更加安全便捷可靠</text></g></g><g id="minder_node6"><g id="node_expander12" style="cursor: pointer;"><path id="kity_path_383" fill="white" stroke="gray" d="M47.50000026077032,221.50000194460154A6,6,0,1,1,35.50000026077032,221.50000194460154A6,6,0,1,1,47.50000026077032,221.50000194460154"></path><path id="kity_path_384" fill="none" stroke="gray" d="M37.00000026077032,221.50000194460154L46.00000026077032,221.50000194460154"></path></g><path id="node_outline13" fill="#e8c009" stroke="none" d="M52.500000424683094,212.50000194460154h69a5,5,0,0,1,5,5v8a5,5,0,0,1,-5,5h-69a5,5,0,0,1,-5,-5v-8a5,5,0,0,1,5,-5z"></path><g id="node_text13" fill="#ffffff"><text id="kity_text_169" text-rendering="inherit" font-size="12" dy=".8em" font-weight="bold" y="213.70000191777945" x="52.500000424683094">人工智能 AI&#xa0;</text></g></g><g id="minder_node7"><g id="node_expander4" display="none" style="cursor: pointer;"><path id="kity_path_359" fill="white" stroke="gray" d="M75.50000067800283,247.50000233203173A6,6,0,1,1,63.500000678002834,247.50000233203173A6,6,0,1,1,75.50000067800283,247.50000233203173"></path><path id="kity_path_360" fill="none" stroke="gray"></path></g><path id="node_outline5" fill="none" stroke="none" d="M80.50000084191561,238.50000233203173h337a5,5,0,0,1,5,5v8a5,5,0,0,1,-5,5h-337a5,5,0,0,1,-5,-5v-8a5,5,0,0,1,5,-5z"></path><g id="node_text5" fill="black"><text id="kity_text_151" text-rendering="inherit" font-size="12" dy=".8em" y="239.70000230520964" x="80.50000084191561">为人类服务的人工智能：专有算法、机器学习透明化；隐私安全</text></g></g><g id="minder_node8"><g id="node_expander5" display="none" style="cursor: pointer;"><path id="kity_path_362" fill="white" stroke="gray" d="M75.50000067800283,273.5000027194619A6,6,0,1,1,63.500000678002834,273.5000027194619A6,6,0,1,1,75.50000067800283,273.5000027194619"></path><path id="kity_path_363" fill="none" stroke="gray"></path></g><path id="node_outline6" fill="none" stroke="none" d="M80.50000084191561,264.5000027194619h290a5,5,0,0,1,5,5v8a5,5,0,0,1,-5,5h-290a5,5,0,0,1,-5,-5v-8a5,5,0,0,1,5,-5z"></path><g id="node_text6" fill="black"><text id="kity_text_153" text-rendering="inherit" font-size="12" dy=".8em" y="265.7000026926398" x="80.50000084191561">人机共生：人与机器正确地合作，减少操作界面的摩擦</text></g></g><g id="minder_node9"><g id="node_expander9" style="cursor: pointer;"><path id="kity_path_374" fill="white" stroke="gray" d="M75.50000067800283,299.5000031068921A6,6,0,1,1,63.500000678002834,299.5000031068921A6,6,0,1,1,75.50000067800283,299.5000031068921"></path><path id="kity_path_375" fill="none" stroke="gray" d="M65.00000067800283,299.5000031068921L74.00000067800283,299.5000031068921"></path></g><path id="node_outline10" fill="#e8c009" stroke="none" d="M80.50000084191561,290.5000031068921h72a5,5,0,0,1,5,5v8a5,5,0,0,1,-5,5h-72a5,5,0,0,1,-5,-5v-8a5,5,0,0,1,5,-5z"></path><g id="node_text10" fill="#ffffff"><text id="kity_text_161" text-rendering="inherit" font-size="12" dy=".8em" font-weight="bold" y="291.70000308007" x="80.50000084191561">机器学习 ML</text></g></g><g id="minder_node10"><g id="node_expander7" style="cursor: pointer;"><path id="kity_path_368" fill="white" stroke="gray" d="M103.50000109523535,325.5000034943223A6,6,0,1,1,91.50000109523535,325.5000034943223A6,6,0,1,1,103.50000109523535,325.5000034943223"></path><path id="kity_path_369" fill="none" stroke="gray" d="M93.00000109523535,325.5000034943223L102.00000109523535,325.5000034943223"></path></g><path id="node_outline8" fill="none" stroke="none" d="M108.50000125914812,316.5000034943223h25a5,5,0,0,1,5,5v8a5,5,0,0,1,-5,5h-25a5,5,0,0,1,-5,-5v-8a5,5,0,0,1,5,-5z"></path><g id="node_text8" fill="black"><text id="kity_text_157" text-rendering="inherit" font-size="12" dy=".8em" y="317.7000034675002" x="108.50000125914812">危害</text></g></g><g id="minder_node11"><g id="node_expander6" display="none" style="cursor: pointer;"><path id="kity_path_365" fill="white" stroke="gray" d="M131.50000151246786,351.5000038817525A6,6,0,1,1,119.50000151246786,351.5000038817525A6,6,0,1,1,131.50000151246786,351.5000038817525"></path><path id="kity_path_366" fill="none" stroke="gray"></path></g><path id="node_outline7" fill="none" stroke="none" d="M136.50000167638063,342.5000038817525h158a5,5,0,0,1,5,5v8a5,5,0,0,1,-5,5h-158a5,5,0,0,1,-5,-5v-8a5,5,0,0,1,5,-5z"></path><g id="node_text7" fill="black"><text id="kity_text_155" text-rendering="inherit" font-size="12" dy=".8em" y="343.7000038549304" x="136.50000167638063">潜在的偏见以及不透明的算法</text></g></g><g id="minder_node12"><g id="node_expander8" display="none" style="cursor: pointer;"><path id="kity_path_371" fill="white" stroke="gray" d="M103.50000109523535,377.5000042691827A6,6,0,1,1,91.50000109523535,377.5000042691827A6,6,0,1,1,103.50000109523535,377.5000042691827"></path><path id="kity_path_372" fill="none" stroke="gray"></path></g><path id="node_outline9" fill="none" stroke="none" d="M108.50000125914812,368.5000042691827h265a5,5,0,0,1,5,5v8a5,5,0,0,1,-5,5h-265a5,5,0,0,1,-5,-5v-8a5,5,0,0,1,5,-5z"></path><g id="node_text9" fill="black"><text id="kity_text_159" text-rendering="inherit" font-size="12" dy=".8em" y="369.7000042423606" x="108.50000125914812">对算法的公开透明，人工智能不是“伦理免责卡”</text></g></g><g id="minder_node13"><g id="node_expander11" style="cursor: pointer;"><path id="kity_path_380" fill="white" stroke="gray" d="M75.50000067800283,403.5000046566129A6,6,0,1,1,63.500000678002834,403.5000046566129A6,6,0,1,1,75.50000067800283,403.5000046566129"></path><path id="kity_path_381" fill="none" stroke="gray" d="M65.00000067800283,403.5000046566129L74.00000067800283,403.5000046566129"></path></g><path id="node_outline12" fill="#e8c009" stroke="none" d="M80.50000084191561,394.5000046566129h207a5,5,0,0,1,5,5v8a5,5,0,0,1,-5,5h-207a5,5,0,0,1,-5,-5v-8a5,5,0,0,1,5,-5z"></path><g id="node_text12" fill="#ffffff"><text id="kity_text_167" text-rendering="inherit" font-size="12" dy=".8em" font-weight="bold" y="395.7000046297908" x="80.50000084191561">推荐系统&#xa0;Recommendation System</text></g></g><g id="minder_node14"><g id="node_expander10" display="none" style="cursor: pointer;"><path id="kity_path_377" fill="white" stroke="gray" d="M103.50000109523535,447.50000531226397A6,6,0,1,1,91.50000109523535,447.50000531226397A6,6,0,1,1,103.50000109523535,447.50000531226397"></path><path id="kity_path_378" fill="none" stroke="gray"></path></g><path id="node_outline11" fill="none" stroke="none" d="M108.50000125914812,420.50000531226397h229a5,5,0,0,1,5,5v44a5,5,0,0,1,-5,5h-229a5,5,0,0,1,-5,-5v-44a5,5,0,0,1,5,-5z"></path><g id="node_text11" fill="black"><text id="kity_text_163" text-rendering="inherit" font-size="12" dy=".8em" y="421.7000052854419" x="108.50000125914812">根据用户的历史行为、社交关系、兴趣点、</text><text id="kity_text_164" text-rendering="inherit" font-size="12" dy=".8em" y="439.7000052854419" x="108.50000125914812">所处上下文环境等信息去判断用户</text><text id="kity_text_165" text-rendering="inherit" font-size="12" dy=".8em" y="457.7000052854419" x="108.50000125914812">当前需要或感兴趣的物品/服务的一类应用</text></g></g><g id="minder_node15"><g id="node_expander17" style="cursor: pointer;"><path id="kity_path_398" fill="white" stroke="gray" d="M47.50000026077032,491.50000596791506A6,6,0,1,1,35.50000026077032,491.50000596791506A6,6,0,1,1,47.50000026077032,491.50000596791506"></path><path id="kity_path_399" fill="none" stroke="gray" d="M37.00000026077032,491.50000596791506L46.00000026077032,491.50000596791506"></path></g><path id="node_outline18" fill="none" stroke="none" d="M52.500000424683094,482.50000596791506h26a5,5,0,0,1,5,5v8a5,5,0,0,1,-5,5h-26a5,5,0,0,1,-5,-5v-8a5,5,0,0,1,5,-5z"></path><g id="node_text18" fill="black"><text id="kity_text_179" text-rendering="inherit" font-size="12" dy=".8em" y="483.70000594109297" x="52.500000424683094">道德</text></g></g><g id="minder_node16"><g id="node_expander13" display="none" style="cursor: pointer;"><path id="kity_path_386" fill="white" stroke="gray" d="M75.50000067800283,517.5000063553452A6,6,0,1,1,63.500000678002834,517.5000063553452A6,6,0,1,1,75.50000067800283,517.5000063553452"></path><path id="kity_path_387" fill="none" stroke="gray"></path></g><path id="node_outline14" fill="none" stroke="none" d="M80.50000084191561,508.50000635534525h97a5,5,0,0,1,5,5v8a5,5,0,0,1,-5,5h-97a5,5,0,0,1,-5,-5v-8a5,5,0,0,1,5,-5z"></path><g id="node_text14" fill="black"><text id="kity_text_171" text-rendering="inherit" font-size="12" dy=".8em" y="509.70000632852316" x="80.50000084191561">用户提高网络素养</text></g></g><g id="minder_node17"><g id="node_expander16" style="cursor: pointer;"><path id="kity_path_395" fill="white" stroke="gray" d="M75.50000067800283,543.5000067427754A6,6,0,1,1,63.500000678002834,543.5000067427754A6,6,0,1,1,75.50000067800283,543.5000067427754"></path><path id="kity_path_396" fill="none" stroke="gray" d="M65.00000067800283,543.5000067427754L74.00000067800283,543.5000067427754"></path></g><path id="node_outline17" fill="none" stroke="none" d="M80.50000084191561,534.5000067427754h85a5,5,0,0,1,5,5v8a5,5,0,0,1,-5,5h-85a5,5,0,0,1,-5,-5v-8a5,5,0,0,1,5,-5z"></path><g id="node_text17" fill="black"><text id="kity_text_177" text-rendering="inherit" font-size="12" dy=".8em" y="535.7000067159534" x="80.50000084191561">平台提升责任感</text></g></g><g id="minder_node18"><g id="node_expander14" display="none" style="cursor: pointer;"><path id="kity_path_389" fill="white" stroke="gray" d="M103.50000109523535,569.5000071302056A6,6,0,1,1,91.50000109523535,569.5000071302056A6,6,0,1,1,103.50000109523535,569.5000071302056"></path><path id="kity_path_390" fill="none" stroke="gray"></path></g><path id="node_outline15" fill="none" stroke="none" d="M108.50000125914812,560.5000071302056h49a5,5,0,0,1,5,5v8a5,5,0,0,1,-5,5h-49a5,5,0,0,1,-5,-5v-8a5,5,0,0,1,5,-5z"></path><g id="node_text15" fill="black"><text id="kity_text_173" text-rendering="inherit" font-size="12" dy=".8em" y="561.7000071033835" x="108.50000125914812">算法透明</text></g></g><g id="minder_node19"><g id="node_expander15" display="none" style="cursor: pointer;"><path id="kity_path_392" fill="white" stroke="gray" d="M103.50000109523535,595.5000075176358A6,6,0,1,1,91.50000109523535,595.5000075176358A6,6,0,1,1,103.50000109523535,595.5000075176358"></path><path id="kity_path_393" fill="none" stroke="gray"></path></g><path id="node_outline16" fill="none" stroke="none" d="M108.50000125914812,586.5000075176358h61a5,5,0,0,1,5,5v8a5,5,0,0,1,-5,5h-61a5,5,0,0,1,-5,-5v-8a5,5,0,0,1,5,-5z"></path><g id="node_text16" fill="black"><text id="kity_text_175" text-rendering="inherit" font-size="12" dy=".8em" y="587.7000074908137" x="108.50000125914812">为用户服务</text></g></g><g id="minder_node20"><g id="node_expander27" style="cursor: pointer;"><path id="kity_path_428" fill="white" stroke="gray" d="M660.5000093951821,83.49999988824129A6,6,0,1,1,648.5000093951821,83.49999988824129A6,6,0,1,1,660.5000093951821,83.49999988824129"></path><path id="kity_path_429" fill="none" stroke="gray" d="M650.0000093951821,83.49999988824129L659.0000093951821,83.49999988824129"></path></g><path id="node_outline28" fill="#e8c009" stroke="rgb(191, 147, 115)" d="M525.5000080987811,90.500000230968h258a3,3,0,0,1,3,3v26a3,3,0,0,1,-3,3h-258a3,3,0,0,1,-3,-3v-26a3,3,0,0,1,3,-3z" stroke-width="1"></path><g id="node_text28" fill="#ffffff"><text id="kity_text_202" text-rendering="inherit" font-size="14" dy=".8em" font-weight="bold" y="97.40000019967556" x="567.5000080987811">情感化设计&#xa0;Emotional Design</text></g><g id="node_priority2"><path id="kity_path_274" fill="#4720C4" stroke="none" d="M543.0000077337027,110.00000008940697c0,3.866,3.134,7,7,7h6c3.866,0,7,-3.134,7,-7V104.00000008940697H543.0000077337027V110.00000008940697z"></path><path id="kity_path_275" fill="#A464FF" stroke="none" d="M563.0000077337027,107.00000008940697c0,3.866,-3.134,7,-7,7H550.0000077337027c-3.866,0,-7,-3.134,-7,-7V104.00000008940697c0,-3.866,3.134,-7,7,-7h6c3.866,0,7,3.134,7,7V107.00000008940697z" opacity="0.8"></path><text id="kity_text_276" text-rendering="geometricPrecision" x="552.0000077262521" y="106.50000008195639" text-anchor="middle" font-style="italic" font-size="12" fill="white" dy="5">5</text></g></g><g id="minder_node21"><g id="node_expander20" style="cursor: pointer;"><path id="kity_path_407" fill="white" stroke="gray" d="M550.5000077560544,143.50000078231096A6,6,0,1,1,538.5000077560544,143.50000078231096A6,6,0,1,1,550.5000077560544,143.50000078231096"></path><path id="kity_path_408" fill="none" stroke="gray" d="M540.0000077560544,143.50000078231096L549.0000077560544,143.50000078231096"></path></g><path id="node_outline21" fill="#e8c009" stroke="none" d="M555.5000079199672,134.50000078231096h91a5,5,0,0,1,5,5v8a5,5,0,0,1,-5,5h-91a5,5,0,0,1,-5,-5v-8a5,5,0,0,1,5,-5z"></path><g id="node_text21" fill="#ffffff"><text id="kity_text_186" text-rendering="inherit" font-size="12" dy=".8em" font-weight="bold" y="135.70000075548887" x="555.5000079199672">幸福 Happiness</text></g></g><g id="minder_node22"><g id="node_expander19" display="none" style="cursor: pointer;"><path id="kity_path_404" fill="white" stroke="gray" d="M578.5000081732869,178.5000013038516A6,6,0,1,1,566.5000081732869,178.5000013038516A6,6,0,1,1,578.5000081732869,178.5000013038516"></path><path id="kity_path_405" fill="none" stroke="gray"></path></g><path id="node_outline20" fill="#e8c009" stroke="none" d="M583.5000083371997,160.5000013038516h121a5,5,0,0,1,5,5v26a5,5,0,0,1,-5,5h-121a5,5,0,0,1,-5,-5v-26a5,5,0,0,1,5,-5z"></path><g id="node_text20" fill="#ffffff"><text id="kity_text_183" text-rendering="inherit" font-size="12" dy=".8em" font-weight="bold" y="161.70000127702951" x="583.5000083371997">积极心理学&#xa0;</text><text id="kity_text_184" text-rendering="inherit" font-size="12" dy=".8em" font-weight="bold" y="179.70000127702951" x="583.5000083371997">Positive Psychology</text></g></g><g id="minder_node23"><g id="node_expander22" style="cursor: pointer;"><path id="kity_path_413" fill="white" stroke="gray" d="M550.5000077560544,213.50000182539225A6,6,0,1,1,538.5000077560544,213.50000182539225A6,6,0,1,1,550.5000077560544,213.50000182539225"></path><path id="kity_path_414" fill="none" stroke="gray" d="M540.0000077560544,213.50000182539225L549.0000077560544,213.50000182539225"></path></g><path id="node_outline23" fill="#e8c009" stroke="none" d="M555.5000079199672,204.50000182539225h70a5,5,0,0,1,5,5v8a5,5,0,0,1,-5,5h-70a5,5,0,0,1,-5,-5v-8a5,5,0,0,1,5,-5z" stroke-width="3"></path><g id="node_text23" fill="#ffffff"><text id="kity_text_190" text-rendering="inherit" font-size="12" dy=".8em" font-weight="bold" y="205.70000179857016" x="555.5000079199672">幽默&#xa0;Humor</text></g></g><g id="minder_node24"><g id="node_expander21" display="none" style="cursor: pointer;"><path id="kity_path_410" fill="white" stroke="gray" d="M578.5000081732869,239.50000221282244A6,6,0,1,1,566.5000081732869,239.50000221282244A6,6,0,1,1,578.5000081732869,239.50000221282244"></path><path id="kity_path_411" fill="none" stroke="gray"></path></g><path id="node_outline22" fill="none" stroke="none" d="M583.5000083371997,230.50000221282244h84a5,5,0,0,1,5,5v8a5,5,0,0,1,-5,5h-84a5,5,0,0,1,-5,-5v-8a5,5,0,0,1,5,-5z"></path><g id="node_text22" fill="black"><text id="kity_text_188" text-rendering="inherit" font-size="12" dy=".8em" y="231.70000218600035" x="583.5000083371997">用幽默揭示真相</text></g></g><g id="minder_node25"><g id="node_expander26" style="cursor: pointer;"><path id="kity_path_425" fill="white" stroke="gray" d="M550.5000077560544,265.5000026002526A6,6,0,1,1,538.5000077560544,265.5000026002526A6,6,0,1,1,550.5000077560544,265.5000026002526"></path><path id="kity_path_426" fill="none" stroke="gray" d="M540.0000077560544,265.5000026002526L549.0000077560544,265.5000026002526"></path></g><path id="node_outline27" fill="#e8c009" stroke="none" d="M555.5000079199672,256.5000026002526h79a5,5,0,0,1,5,5v8a5,5,0,0,1,-5,5h-79a5,5,0,0,1,-5,-5v-8a5,5,0,0,1,5,-5z"></path><g id="node_text27" fill="#ffffff"><text id="kity_text_200" text-rendering="inherit" font-size="12" dy=".8em" font-weight="bold" y="257.70000257343054" x="555.5000079199672">情绪 Emotion</text></g></g><g id="minder_node26"><g id="node_expander23" display="none" style="cursor: pointer;"><path id="kity_path_416" fill="white" stroke="gray" d="M578.5000081732869,300.50000312179327A6,6,0,1,1,566.5000081732869,300.50000312179327A6,6,0,1,1,578.5000081732869,300.50000312179327"></path><path id="kity_path_417" fill="none" stroke="gray"></path></g><path id="node_outline24" fill="none" stroke="none" d="M583.5000083371997,282.50000312179327h301a5,5,0,0,1,5,5v26a5,5,0,0,1,-5,5h-301a5,5,0,0,1,-5,-5v-26a5,5,0,0,1,5,-5z"></path><g id="node_text24" fill="black"><text id="kity_text_192" text-rendering="inherit" font-size="12" dy=".8em" y="283.7000030949712" x="583.5000083371997">情绪并不是人类天生就具有的，而是根据后天经验构建的</text><text id="kity_text_193" text-rendering="inherit" font-size="12" dy=".8em" y="301.7000030949712" x="583.5000083371997">&#xa0;处在对的情绪里，我们能完成任何事</text></g></g><g id="minder_node27"><g id="node_expander25" style="cursor: pointer;"><path id="kity_path_422" fill="white" stroke="gray" d="M578.5000081732869,335.5000036433339A6,6,0,1,1,566.5000081732869,335.5000036433339A6,6,0,1,1,578.5000081732869,335.5000036433339"></path><path id="kity_path_423" fill="none" stroke="gray" d="M568.0000081732869,335.5000036433339L577.0000081732869,335.5000036433339"></path></g><path id="node_outline26" fill="none" stroke="none" d="M583.5000083371997,326.5000036433339h73a5,5,0,0,1,5,5v8a5,5,0,0,1,-5,5h-73a5,5,0,0,1,-5,-5v-8a5,5,0,0,1,5,-5z"></path><g id="node_text26" fill="black"><text id="kity_text_198" text-rendering="inherit" font-size="12" dy=".8em" y="327.7000036165118" x="583.5000083371997">如何对待情绪</text></g></g><g id="minder_node28"><g id="node_expander24" display="none" style="cursor: pointer;"><path id="kity_path_419" fill="white" stroke="gray" d="M606.5000085905194,370.50000416487455A6,6,0,1,1,594.5000085905194,370.50000416487455A6,6,0,1,1,606.5000085905194,370.50000416487455"></path><path id="kity_path_420" fill="none" stroke="gray"></path></g><path id="node_outline25" fill="none" stroke="none" d="M611.5000087544322,352.50000416487455h310a5,5,0,0,1,5,5v26a5,5,0,0,1,-5,5h-310a5,5,0,0,1,-5,-5v-26a5,5,0,0,1,5,-5z"></path><g id="node_text25" fill="black"><text id="kity_text_195" text-rendering="inherit" font-size="12" dy=".8em" y="353.70000413805246" x="611.5000087544322">1.情绪没有好坏之分，我们要积极面对所谓的“坏情绪” </text><text id="kity_text_196" text-rendering="inherit" font-size="12" dy=".8em" y="371.70000413805246" x="611.5000087544322">2.我们要从情绪中挖掘出有价值的信息，而不是被情绪控制</text></g></g><g id="minder_node29"><g id="node_expander46" style="cursor: pointer;"><path id="kity_path_485" fill="white" stroke="gray" d="M996.0000143945217,83.49999988824129A6,6,0,1,1,984.0000143945217,83.49999988824129A6,6,0,1,1,996.0000143945217,83.49999988824129"></path><path id="kity_path_486" fill="none" stroke="gray" d="M985.5000143945217,83.49999988824129L994.5000143945217,83.49999988824129"></path></g><path id="node_outline47" fill="#e8c009" stroke="rgb(191, 147, 115)" d="M945.5000143572688,90.500000230968h89a3,3,0,0,1,3,3v26a3,3,0,0,1,-3,3h-89a3,3,0,0,1,-3,-3v-26a3,3,0,0,1,3,-3z" stroke-width="1"></path><g id="node_text47" fill="#ffffff"><text id="kity_text_242" text-rendering="inherit" font-size="14" dy=".8em" font-weight="bold" y="97.40000019967556" x="987.5000143572688">偏见</text></g><g id="node_priority3"><path id="kity_path_279" fill="#4720C4" stroke="none" d="M963.0000139921904,110.00000008940697c0,3.866,3.134,7,7,7h6c3.866,0,7,-3.134,7,-7V104.00000008940697H963.0000139921904V110.00000008940697z"></path><path id="kity_path_280" fill="#A464FF" stroke="none" d="M983.0000139921904,107.00000008940697c0,3.866,-3.134,7,-7,7H970.0000139921904c-3.866,0,-7,-3.134,-7,-7V104.00000008940697c0,-3.866,3.134,-7,7,-7h6c3.866,0,7,3.134,7,7V107.00000008940697z" opacity="0.8"></path><text id="kity_text_281" text-rendering="geometricPrecision" x="972.0000139847398" y="106.50000008195639" text-anchor="middle" font-style="italic" font-size="12" fill="white" dy="5">5</text></g></g><g id="minder_node30"><g id="node_expander32" style="cursor: pointer;"><path id="kity_path_443" fill="white" stroke="gray" d="M970.5000140145421,143.50000078231096A6,6,0,1,1,958.5000140145421,143.50000078231096A6,6,0,1,1,970.5000140145421,143.50000078231096"></path><path id="kity_path_444" fill="none" stroke="gray" d="M960.0000140145421,143.50000078231096L969.0000140145421,143.50000078231096"></path></g><path id="node_outline33" fill="#e8c009" stroke="none" d="M975.5000141784549,134.50000078231096h60a5,5,0,0,1,5,5v8a5,5,0,0,1,-5,5h-60a5,5,0,0,1,-5,-5v-8a5,5,0,0,1,5,-5z"></path><g id="node_text33" fill="#ffffff"><text id="kity_text_212" text-rendering="inherit" font-size="12" dy=".8em" font-weight="bold" y="135.70000075548887" x="975.5000141784549">编码 Code</text></g></g><g id="minder_node31"><g id="node_expander28" display="none" style="cursor: pointer;"><path id="kity_path_431" fill="white" stroke="gray" d="M998.5000144317746,169.50000116974115A6,6,0,1,1,986.5000144317746,169.50000116974115A6,6,0,1,1,998.5000144317746,169.50000116974115"></path><path id="kity_path_432" fill="none" stroke="gray"></path></g><path id="node_outline29" fill="none" stroke="none" d="M1003.5000145956874,160.50000116974115h253a5,5,0,0,1,5,5v8a5,5,0,0,1,-5,5h-253a5,5,0,0,1,-5,-5v-8a5,5,0,0,1,5,-5z"></path><g id="node_text29" fill="black"><text id="kity_text_204" text-rendering="inherit" font-size="12" dy=".8em" y="161.70000114291906" x="1003.5000145956874">写代码不分性别也并非无趣，是改变世界的方式</text></g></g><g id="minder_node32"><g id="node_expander29" display="none" style="cursor: pointer;"><path id="kity_path_434" fill="white" stroke="gray" d="M998.5000144317746,195.50000155717134A6,6,0,1,1,986.5000144317746,195.50000155717134A6,6,0,1,1,998.5000144317746,195.50000155717134"></path><path id="kity_path_435" fill="none" stroke="gray"></path></g><path id="node_outline30" fill="none" stroke="none" d="M1003.5000145956874,186.50000155717134h217a5,5,0,0,1,5,5v8a5,5,0,0,1,-5,5h-217a5,5,0,0,1,-5,-5v-8a5,5,0,0,1,5,-5z"></path><g id="node_text30" fill="black"><text id="kity_text_206" text-rendering="inherit" font-size="12" dy=".8em" y="187.70000153034925" x="1003.5000145956874">黑客编程一直是健康民主的重要组成部分</text></g></g><g id="minder_node33"><g id="node_expander31" style="cursor: pointer;"><path id="kity_path_440" fill="white" stroke="gray" d="M998.5000144317746,221.50000194460154A6,6,0,1,1,986.5000144317746,221.50000194460154A6,6,0,1,1,998.5000144317746,221.50000194460154"></path><path id="kity_path_441" fill="none" stroke="gray" d="M988.0000144317746,221.50000194460154L997.0000144317746,221.50000194460154"></path></g><path id="node_outline32" fill="none" stroke="none" d="M1003.5000145956874,212.50000194460154h145a5,5,0,0,1,5,5v8a5,5,0,0,1,-5,5h-145a5,5,0,0,1,-5,-5v-8a5,5,0,0,1,5,-5z"></path><g id="node_text32" fill="black"><text id="kity_text_210" text-rendering="inherit" font-size="12" dy=".8em" y="213.70000191777945" x="1003.5000145956874">好的骇客可以塑造好的公民</text></g></g><g id="minder_node34"><g id="node_expander30" display="none" style="cursor: pointer;"><path id="kity_path_437" fill="white" stroke="gray" d="M1026.5000148490071,247.50000233203173A6,6,0,1,1,1014.5000148490071,247.50000233203173A6,6,0,1,1,1026.5000148490071,247.50000233203173"></path><path id="kity_path_438" fill="none" stroke="gray"></path></g><path id="node_outline31" fill="none" stroke="none" d="M1031.50001501292,238.50000233203173h375a5,5,0,0,1,5,5v8a5,5,0,0,1,-5,5h-375a5,5,0,0,1,-5,-5v-8a5,5,0,0,1,5,-5z"></path><g id="node_text31" fill="black"><text id="kity_text_208" text-rendering="inherit" font-size="12" dy=".8em" y="239.70000230520964" x="1031.50001501292">eg：骇客帮助政府解决问题，公民因此而享受参与政府互动的新途径等</text></g></g><g id="minder_node35"><g id="node_expander37" style="cursor: pointer;"><path id="kity_path_458" fill="white" stroke="gray" d="M970.5000140145421,273.5000027194619A6,6,0,1,1,958.5000140145421,273.5000027194619A6,6,0,1,1,970.5000140145421,273.5000027194619"></path><path id="kity_path_459" fill="none" stroke="gray" d="M960.0000140145421,273.5000027194619L969.0000140145421,273.5000027194619"></path></g><path id="node_outline38" fill="#e8c009" stroke="none" d="M975.5000141784549,264.5000027194619h129a5,5,0,0,1,5,5v8a5,5,0,0,1,-5,5h-129a5,5,0,0,1,-5,-5v-8a5,5,0,0,1,5,-5z"></path><g id="node_text38" fill="#ffffff"><text id="kity_text_224" text-rendering="inherit" font-size="12" dy=".8em" font-weight="bold" y="265.7000026926398" x="975.5000141784549">过滤气泡&#xa0;Filter bubble</text></g></g><g id="minder_node36"><g id="node_expander33" display="none" style="cursor: pointer;"><path id="kity_path_446" fill="white" stroke="gray" d="M998.5000144317746,308.50000324100256A6,6,0,1,1,986.5000144317746,308.50000324100256A6,6,0,1,1,998.5000144317746,308.50000324100256"></path><path id="kity_path_447" fill="none" stroke="gray"></path></g><path id="node_outline34" fill="none" stroke="none" d="M1003.5000145956874,290.50000324100256h241a5,5,0,0,1,5,5v26a5,5,0,0,1,-5,5h-241a5,5,0,0,1,-5,-5v-26a5,5,0,0,1,5,-5z"></path><g id="node_text34" fill="black"><text id="kity_text_214" text-rendering="inherit" font-size="12" dy=".8em" y="291.70000321418047" x="1003.5000145956874">相同的观点会不断重复，异己观点会被过滤，</text><text id="kity_text_215" text-rendering="inherit" font-size="12" dy=".8em" y="309.70000321418047" x="1003.5000145956874">导致群体产生偏见</text></g></g><g id="minder_node37"><g id="node_expander36" style="cursor: pointer;"><path id="kity_path_455" fill="white" stroke="gray" d="M998.5000144317746,352.50000389665365A6,6,0,1,1,986.5000144317746,352.50000389665365A6,6,0,1,1,998.5000144317746,352.50000389665365"></path><path id="kity_path_456" fill="none" stroke="gray" d="M988.0000144317746,352.50000389665365L997.0000144317746,352.50000389665365"></path></g><path id="node_outline37" fill="#e8c009" stroke="none" d="M1003.5000145956874,334.50000389665365h152a5,5,0,0,1,5,5v26a5,5,0,0,1,-5,5h-152a5,5,0,0,1,-5,-5v-26a5,5,0,0,1,5,-5z"></path><g id="node_text37" fill="#ffffff"><text id="kity_text_221" text-rendering="inherit" font-size="12" dy=".8em" font-weight="bold" y="335.70000386983156" x="1003.5000145956874">信息可视化&#xa0;</text><text id="kity_text_222" text-rendering="inherit" font-size="12" dy=".8em" font-weight="bold" y="353.70000386983156" x="1003.5000145956874">Information visualization</text></g></g><g id="minder_node38"><g id="node_expander34" display="none" style="cursor: pointer;"><path id="kity_path_449" fill="white" stroke="gray" d="M1026.5000148490071,387.5000044181943A6,6,0,1,1,1014.5000148490071,387.5000044181943A6,6,0,1,1,1026.5000148490071,387.5000044181943"></path><path id="kity_path_450" fill="none" stroke="gray"></path></g><path id="node_outline35" fill="none" stroke="none" d="M1031.50001501292,378.5000044181943h146a5,5,0,0,1,5,5v8a5,5,0,0,1,-5,5h-146a5,5,0,0,1,-5,-5v-8a5,5,0,0,1,5,-5z"></path><g id="node_text35" fill="black"><text id="kity_text_217" text-rendering="inherit" font-size="12" dy=".8em" y="379.7000043913722" x="1031.50001501292">让公众易于读懂数据的意义</text></g></g><g id="minder_node39"><g id="node_expander35" display="none" style="cursor: pointer;"><path id="kity_path_452" fill="white" stroke="gray" d="M1026.5000148490071,413.5000048056245A6,6,0,1,1,1014.5000148490071,413.5000048056245A6,6,0,1,1,1026.5000148490071,413.5000048056245"></path><path id="kity_path_453" fill="none" stroke="gray"></path></g><path id="node_outline36" fill="none" stroke="none" d="M1031.50001501292,404.5000048056245h205a5,5,0,0,1,5,5v8a5,5,0,0,1,-5,5h-205a5,5,0,0,1,-5,-5v-8a5,5,0,0,1,5,-5z"></path><g id="node_text36" fill="black"><text id="kity_text_219" text-rendering="inherit" font-size="12" dy=".8em" y="405.7000047788024" x="1031.50001501292">打破偏见，让更多的人知道真实的情况</text></g></g><g id="minder_node40"><g id="node_expander45" style="cursor: pointer;"><path id="kity_path_482" fill="white" stroke="gray" d="M970.5000140145421,439.5000051930547A6,6,0,1,1,958.5000140145421,439.5000051930547A6,6,0,1,1,970.5000140145421,439.5000051930547"></path><path id="kity_path_483" fill="none" stroke="gray" d="M960.0000140145421,439.5000051930547L969.0000140145421,439.5000051930547"></path></g><path id="node_outline46" fill="#e8c009" stroke="none" d="M975.5000141784549,430.5000051930547h90a5,5,0,0,1,5,5v8a5,5,0,0,1,-5,5h-90a5,5,0,0,1,-5,-5v-8a5,5,0,0,1,5,-5z"></path><g id="node_text46" fill="#ffffff"><text id="kity_text_240" text-rendering="inherit" font-size="12" dy=".8em" font-weight="bold" y="431.7000051662326" x="975.5000141784549">大数据 Big data</text></g></g><g id="minder_node41"><g id="node_expander38" display="none" style="cursor: pointer;"><path id="kity_path_461" fill="white" stroke="gray" d="M998.5000144317746,465.50000558048487A6,6,0,1,1,986.5000144317746,465.50000558048487A6,6,0,1,1,998.5000144317746,465.50000558048487"></path><path id="kity_path_462" fill="none" stroke="gray"></path></g><path id="node_outline39" fill="none" stroke="none" d="M1003.5000145956874,456.50000558048487h133a5,5,0,0,1,5,5v8a5,5,0,0,1,-5,5h-133a5,5,0,0,1,-5,-5v-8a5,5,0,0,1,5,-5z"></path><g id="node_text39" fill="black"><text id="kity_text_226" text-rendering="inherit" font-size="12" dy=".8em" y="457.7000055536628" x="1003.5000145956874">数据本身并可能带有偏见</text></g></g><g id="minder_node42"><g id="node_expander41" style="cursor: pointer;"><path id="kity_path_470" fill="white" stroke="gray" d="M998.5000144317746,491.50000596791506A6,6,0,1,1,986.5000144317746,491.50000596791506A6,6,0,1,1,998.5000144317746,491.50000596791506"></path><path id="kity_path_471" fill="none" stroke="gray" d="M988.0000144317746,491.50000596791506L997.0000144317746,491.50000596791506"></path></g><path id="node_outline42" fill="none" stroke="none" d="M1003.5000145956874,482.50000596791506h160a5,5,0,0,1,5,5v8a5,5,0,0,1,-5,5h-160a5,5,0,0,1,-5,-5v-8a5,5,0,0,1,5,-5z"></path><g id="node_text42" fill="black"><text id="kity_text_232" text-rendering="inherit" font-size="12" dy=".8em" y="483.70000594109297" x="1003.5000145956874">作为公民， 如何应对大数据？</text></g></g><g id="minder_node43"><g id="node_expander39" display="none" style="cursor: pointer;"><path id="kity_path_464" fill="white" stroke="gray" d="M1026.5000148490071,517.5000063553452A6,6,0,1,1,1014.5000148490071,517.5000063553452A6,6,0,1,1,1026.5000148490071,517.5000063553452"></path><path id="kity_path_465" fill="none" stroke="gray"></path></g><path id="node_outline40" fill="none" stroke="none" d="M1031.50001501292,508.50000635534525h217a5,5,0,0,1,5,5v8a5,5,0,0,1,-5,5h-217a5,5,0,0,1,-5,-5v-8a5,5,0,0,1,5,-5z"></path><g id="node_text40" fill="black"><text id="kity_text_228" text-rendering="inherit" font-size="12" dy=".8em" y="509.70000632852316" x="1031.50001501292">有责任花更多时间来锻炼批判性思维能力</text></g></g><g id="minder_node44"><g id="node_expander40" display="none" style="cursor: pointer;"><path id="kity_path_467" fill="white" stroke="gray" d="M1026.5000148490071,543.5000067427754A6,6,0,1,1,1014.5000148490071,543.5000067427754A6,6,0,1,1,1026.5000148490071,543.5000067427754"></path><path id="kity_path_468" fill="none" stroke="gray"></path></g><path id="node_outline41" fill="none" stroke="none" d="M1031.50001501292,534.5000067427754h98a5,5,0,0,1,5,5v8a5,5,0,0,1,-5,5h-98a5,5,0,0,1,-5,-5v-8a5,5,0,0,1,5,-5z"></path><g id="node_text41" fill="black"><text id="kity_text_230" text-rendering="inherit" font-size="12" dy=".8em" y="535.7000067159534" x="1031.50001501292">利用数据了解自己</text></g></g><g id="minder_node45"><g id="node_expander44" style="cursor: pointer;"><path id="kity_path_479" fill="white" stroke="gray" d="M998.5000144317746,569.5000071302056A6,6,0,1,1,986.5000144317746,569.5000071302056A6,6,0,1,1,998.5000144317746,569.5000071302056"></path><path id="kity_path_480" fill="none" stroke="gray" d="M988.0000144317746,569.5000071302056L997.0000144317746,569.5000071302056"></path></g><path id="node_outline45" fill="none" stroke="none" d="M1003.5000145956874,560.5000071302056h73a5,5,0,0,1,5,5v8a5,5,0,0,1,-5,5h-73a5,5,0,0,1,-5,-5v-8a5,5,0,0,1,5,-5z"></path><g id="node_text45" fill="black"><text id="kity_text_238" text-rendering="inherit" font-size="12" dy=".8em" y="561.7000071033835" x="1003.5000145956874">防止数据独裁</text></g></g><g id="minder_node46"><g id="node_expander42" display="none" style="cursor: pointer;"><path id="kity_path_473" fill="white" stroke="gray" d="M1026.5000148490071,595.5000075176358A6,6,0,1,1,1014.5000148490071,595.5000075176358A6,6,0,1,1,1026.5000148490071,595.5000075176358"></path><path id="kity_path_474" fill="none" stroke="gray"></path></g><path id="node_outline43" fill="none" stroke="none" d="M1031.50001501292,586.5000075176358h86a5,5,0,0,1,5,5v8a5,5,0,0,1,-5,5h-86a5,5,0,0,1,-5,-5v-8a5,5,0,0,1,5,-5z"></path><g id="node_text43" fill="black"><text id="kity_text_234" text-rendering="inherit" font-size="12" dy=".8em" y="587.7000074908137" x="1031.50001501292">分布式数据处理</text></g></g><g id="minder_node47"><g id="node_expander43" display="none" style="cursor: pointer;"><path id="kity_path_476" fill="white" stroke="gray" d="M1026.5000148490071,621.500007905066A6,6,0,1,1,1014.5000148490071,621.500007905066A6,6,0,1,1,1026.5000148490071,621.500007905066"></path><path id="kity_path_477" fill="none" stroke="gray"></path></g><path id="node_outline44" fill="none" stroke="none" d="M1031.50001501292,612.500007905066h50a5,5,0,0,1,5,5v8a5,5,0,0,1,-5,5h-50a5,5,0,0,1,-5,-5v-8a5,5,0,0,1,5,-5z"></path><g id="node_text44" fill="black"><text id="kity_text_236" text-rendering="inherit" font-size="12" dy=".8em" y="613.7000078782439" x="1031.50001501292">分享数据</text></g></g><g id="minder_node48"><g id="node_expander51" style="cursor: pointer;"><path id="kity_path_500" fill="white" stroke="gray" d="M1516.5000221505761,83.49999988824129A6,6,0,1,1,1504.5000221505761,83.49999988824129A6,6,0,1,1,1516.5000221505761,83.49999988824129"></path><path id="kity_path_501" fill="none" stroke="gray" d="M1506.0000221505761,83.49999988824129L1515.0000221505761,83.49999988824129"></path></g><path id="node_outline52" fill="#e8c009" stroke="rgb(191, 147, 115)" d="M1430.500021584332,90.500000230968h160a3,3,0,0,1,3,3v26a3,3,0,0,1,-3,3h-160a3,3,0,0,1,-3,-3v-26a3,3,0,0,1,3,-3z" stroke-width="1"></path><g id="node_text52" fill="#ffffff"><text id="kity_text_253" text-rendering="inherit" font-size="14" dy=".8em" font-weight="bold" y="97.40000019967556" x="1472.500021584332">上瘾&#xa0;Addiction</text></g><g id="node_priority4"><path id="kity_path_284" fill="#4720C4" stroke="none" d="M1448.0000212192535,110.00000008940697c0,3.866,3.134,7,7,7h6c3.866,0,7,-3.134,7,-7V104.00000008940697H1448.0000212192535V110.00000008940697z"></path><path id="kity_path_285" fill="#A464FF" stroke="none" d="M1468.0000212192535,107.00000008940697c0,3.866,-3.134,7,-7,7H1455.0000212192535c-3.866,0,-7,-3.134,-7,-7V104.00000008940697c0,-3.866,3.134,-7,7,-7h6c3.866,0,7,3.134,7,7V107.00000008940697z" opacity="0.8"></path><text id="kity_text_286" text-rendering="geometricPrecision" x="1457.000021211803" y="106.50000008195639" text-anchor="middle" font-style="italic" font-size="12" fill="white" dy="5">5</text></g></g><g id="minder_node49"><g id="node_expander48" style="cursor: pointer;"><path id="kity_path_491" fill="white" stroke="gray" d="M1455.5000212416053,143.50000078231096A6,6,0,1,1,1443.5000212416053,143.50000078231096A6,6,0,1,1,1455.5000212416053,143.50000078231096"></path><path id="kity_path_492" fill="none" stroke="gray" d="M1445.0000212416053,143.50000078231096L1454.0000212416053,143.50000078231096"></path></g><path id="node_outline49" fill="#e8c009" stroke="none" d="M1460.500021405518,134.50000078231096h99a5,5,0,0,1,5,5v8a5,5,0,0,1,-5,5h-99a5,5,0,0,1,-5,-5v-8a5,5,0,0,1,5,-5z"></path><g id="node_text49" fill="#ffffff"><text id="kity_text_246" text-rendering="inherit" font-size="12" dy=".8em" font-weight="bold" y="135.70000075548887" x="1460.500021405518">注意力&#xa0;Attention</text></g></g><g id="minder_node50"><g id="node_expander47" display="none" style="cursor: pointer;"><path id="kity_path_488" fill="white" stroke="gray" d="M1483.5000216588378,169.50000116974115A6,6,0,1,1,1471.5000216588378,169.50000116974115A6,6,0,1,1,1483.5000216588378,169.50000116974115"></path><path id="kity_path_489" fill="none" stroke="gray"></path></g><path id="node_outline48" fill="none" stroke="none" d="M1488.5000218227506,160.50000116974115h193a5,5,0,0,1,5,5v8a5,5,0,0,1,-5,5h-193a5,5,0,0,1,-5,-5v-8a5,5,0,0,1,5,-5z"></path><g id="node_text48" fill="black"><text id="kity_text_244" text-rendering="inherit" font-size="12" dy=".8em" y="161.70000114291906" x="1488.5000218227506">用户的注意力成为被科技竞争的对象</text></g></g><g id="minder_node51"><g id="node_expander49" display="none" style="cursor: pointer;"><path id="kity_path_494" fill="white" stroke="gray" d="M1455.5000212416053,195.50000155717134A6,6,0,1,1,1443.5000212416053,195.50000155717134A6,6,0,1,1,1455.5000212416053,195.50000155717134"></path><path id="kity_path_495" fill="none" stroke="gray"></path></g><path id="node_outline50" fill="none" stroke="none" d="M1460.500021405518,186.50000155717134h109a5,5,0,0,1,5,5v8a5,5,0,0,1,-5,5h-109a5,5,0,0,1,-5,-5v-8a5,5,0,0,1,5,-5z"></path><g id="node_text50" fill="black"><text id="kity_text_248" text-rendering="inherit" font-size="12" dy=".8em" y="187.70000153034925" x="1460.500021405518">联系是上瘾的对立面</text></g></g><g id="minder_node52"><g id="node_expander50" display="none" style="cursor: pointer;"><path id="kity_path_497" fill="white" stroke="gray" d="M1455.5000212416053,230.500002078712A6,6,0,1,1,1443.5000212416053,230.500002078712A6,6,0,1,1,1455.5000212416053,230.500002078712"></path><path id="kity_path_498" fill="none" stroke="gray"></path></g><path id="node_outline51" fill="none" stroke="none" d="M1460.500021405518,212.500002078712h193a5,5,0,0,1,5,5v26a5,5,0,0,1,-5,5h-193a5,5,0,0,1,-5,-5v-26a5,5,0,0,1,5,-5z"></path><g id="node_text51" fill="black"><text id="kity_text_250" text-rendering="inherit" font-size="12" dy=".8em" y="213.7000020518899" x="1460.500021405518">与外界失联，缺少和外界健康的依赖</text><text id="kity_text_251" text-rendering="inherit" font-size="12" dy=".8em" y="231.7000020518899" x="1460.500021405518">是上瘾的导致因素。</text></g></g><g id="minder_node53"><g id="node_expander57" style="cursor: pointer;"><path id="kity_path_518" fill="white" stroke="gray" d="M1804.5000264421105,83.49999988824129A6,6,0,1,1,1792.5000264421105,83.49999988824129A6,6,0,1,1,1804.5000264421105,83.49999988824129"></path><path id="kity_path_519" fill="none" stroke="gray" d="M1794.0000264421105,83.49999988824129L1803.0000264421105,83.49999988824129"></path></g><path id="node_outline58" fill="#e8c009" stroke="rgb(191, 147, 115)" d="M1705.5000256821513,90.500000230968h186a3,3,0,0,1,3,3v26a3,3,0,0,1,-3,3h-186a3,3,0,0,1,-3,-3v-26a3,3,0,0,1,3,-3z" stroke-width="1"></path><g id="node_text58" fill="#ffffff"><text id="kity_text_265" text-rendering="inherit" font-size="14" dy=".8em" font-weight="bold" y="97.40000019967556" x="1747.5000256821513">环境与可持续化设计</text></g><g id="node_priority5"><path id="kity_path_289" fill="#4720C4" stroke="none" d="M1723.0000253170729,110.00000008940697c0,3.866,3.134,7,7,7h6c3.866,0,7,-3.134,7,-7V104.00000008940697H1723.0000253170729V110.00000008940697z"></path><path id="kity_path_290" fill="#A464FF" stroke="none" d="M1743.0000253170729,107.00000008940697c0,3.866,-3.134,7,-7,7H1730.0000253170729c-3.866,0,-7,-3.134,-7,-7V104.00000008940697c0,-3.866,3.134,-7,7,-7h6c3.866,0,7,3.134,7,7V107.00000008940697z" opacity="0.8"></path><text id="kity_text_291" text-rendering="geometricPrecision" x="1732.0000253096223" y="106.50000008195639" text-anchor="middle" font-style="italic" font-size="12" fill="white" dy="5">5</text></g></g><g id="minder_node54"><g id="node_expander56" style="cursor: pointer;"><path id="kity_path_515" fill="white" stroke="gray" d="M1730.5000253394246,143.50000078231096A6,6,0,1,1,1718.5000253394246,143.50000078231096A6,6,0,1,1,1730.5000253394246,143.50000078231096"></path><path id="kity_path_516" fill="none" stroke="gray" d="M1720.0000253394246,143.50000078231096L1729.0000253394246,143.50000078231096"></path></g><path id="node_outline57" fill="none" stroke="none" d="M1735.5000255033374,134.50000078231096h49a5,5,0,0,1,5,5v8a5,5,0,0,1,-5,5h-49a5,5,0,0,1,-5,-5v-8a5,5,0,0,1,5,-5z"></path><g id="node_text57" fill="black"><text id="kity_text_263" text-rendering="inherit" font-size="12" dy=".8em" y="135.70000075548887" x="1735.5000255033374">绿色城市</text></g></g><g id="minder_node55"><g id="node_expander52" display="none" style="cursor: pointer;"><path id="kity_path_503" fill="white" stroke="gray" d="M1758.5000257566571,169.50000116974115A6,6,0,1,1,1746.5000257566571,169.50000116974115A6,6,0,1,1,1758.5000257566571,169.50000116974115"></path><path id="kity_path_504" fill="none" stroke="gray"></path></g><path id="node_outline53" fill="none" stroke="none" d="M1763.50002592057,160.50000116974115h61a5,5,0,0,1,5,5v8a5,5,0,0,1,-5,5h-61a5,5,0,0,1,-5,-5v-8a5,5,0,0,1,5,-5z"></path><g id="node_text53" fill="black"><text id="kity_text_255" text-rendering="inherit" font-size="12" dy=".8em" y="161.70000114291906" x="1763.50002592057">蛙跳式发展</text></g></g><g id="minder_node56"><g id="node_expander53" display="none" style="cursor: pointer;"><path id="kity_path_506" fill="white" stroke="gray" d="M1758.5000257566571,195.50000155717134A6,6,0,1,1,1746.5000257566571,195.50000155717134A6,6,0,1,1,1758.5000257566571,195.50000155717134"></path><path id="kity_path_507" fill="none" stroke="gray"></path></g><path id="node_outline54" fill="none" stroke="none" d="M1763.50002592057,186.50000155717134h50a5,5,0,0,1,5,5v8a5,5,0,0,1,-5,5h-50a5,5,0,0,1,-5,-5v-8a5,5,0,0,1,5,-5z"></path><g id="node_text54" fill="black"><text id="kity_text_257" text-rendering="inherit" font-size="12" dy=".8em" y="187.70000153034925" x="1763.50002592057">合作工具</text></g></g><g id="minder_node57"><g id="node_expander54" display="none" style="cursor: pointer;"><path id="kity_path_509" fill="white" stroke="gray" d="M1758.5000257566571,221.50000194460154A6,6,0,1,1,1746.5000257566571,221.50000194460154A6,6,0,1,1,1758.5000257566571,221.50000194460154"></path><path id="kity_path_510" fill="none" stroke="gray"></path></g><path id="node_outline55" fill="none" stroke="none" d="M1763.50002592057,212.50000194460154h74a5,5,0,0,1,5,5v8a5,5,0,0,1,-5,5h-74a5,5,0,0,1,-5,-5v-8a5,5,0,0,1,5,-5z"></path><g id="node_text55" fill="black"><text id="kity_text_259" text-rendering="inherit" font-size="12" dy=".8em" y="213.70000191777945" x="1763.50002592057">重塑新的政治</text></g></g><g id="minder_node58"><g id="node_expander55" display="none" style="cursor: pointer;"><path id="kity_path_512" fill="white" stroke="gray" d="M1758.5000257566571,247.50000233203173A6,6,0,1,1,1746.5000257566571,247.50000233203173A6,6,0,1,1,1758.5000257566571,247.50000233203173"></path><path id="kity_path_513" fill="none" stroke="gray"></path></g><path id="node_outline56" fill="none" stroke="none" d="M1763.50002592057,238.50000233203173h72a5,5,0,0,1,5,5v8a5,5,0,0,1,-5,5h-72a5,5,0,0,1,-5,-5v-8a5,5,0,0,1,5,-5z"></path><g id="node_text56" fill="black"><text id="kity_text_261" text-rendering="inherit" font-size="12" dy=".8em" y="239.70000230520964" x="1763.50002592057">“严肃游戏”</text></g></g><g id="kity_g_12" display="none"><path id="kity_path_13" fill="none" stroke="rgb(112, 85, 66)" d="M555.5000114366412,204.49999933689833h70a5,5,0,0,1,5,5v8a5,5,0,0,1,-5,5h-70a5,5,0,0,1,-5,-5v-8a5,5,0,0,1,5,-5z" stroke-width="5"></path></g><g id="minder_node59"><g id="node_expander58" style="cursor: pointer;" display="none"><path id="kity_path_526" fill="white" stroke="gray" d="M75.50000067800283,195.50000155717134A6,6,0,1,1,63.500000678002834,195.50000155717134A6,6,0,1,1,75.50000067800283,195.50000155717134"></path><path id="kity_path_527" fill="none" stroke="gray"></path></g><path id="node_outline59" fill="none" stroke="none" d="M80.50000084191561,186.50000155717134h421a5,5,0,0,1,5,5v8a5,5,0,0,1,-5,5h-421a5,5,0,0,1,-5,-5v-8a5,5,0,0,1,5,-5z" stroke-width="3"></path><g id="node_text59" fill="black"><text id="kity_text_523" text-rendering="inherit" font-size="12" dy=".8em" y="187.70000153034925" x="80.50000084191561">区块链夺回我们资产的控制权，令我们拥有我们自己的身份并且进行负责的管理</text></g></g></g></g></svg>