<svg id="kity_svg_6" xmlns="http://www.w3.org/2000/svg" xmlns:xlink="http://www.w3.org/1999/xlink" version="1.1" width="988" height="315" style="background: rgb(251, 251, 251); visibility: visible;" viewBox="0 0 988 315"><defs id="kity_defs_7"><linearGradient id="kity_linearGradient_17" x1="0" y1="0" x2="0" y2="1"><stop id="kity_stop_18" offset="0" stop-color="rgb(255, 255, 255)"></stop><stop id="kity_stop_19" offset="1" stop-color="rgb(204, 204, 204)"></stop></linearGradient><marker id="kity_marker_2" orient="auto" refX="6" refY="0" viewBox="-7 -7 14 14" markerWidth="7" markerHeight="7" markerUnits="userSpaceOnUse"><path id="kity_path_3" fill="rgb(115, 161, 191)" stroke="none" d="M6,0A6,6,0,1,1,-6,0A6,6,0,1,1,6,0"></path></marker></defs><g id="kity_g_8"><g id="minder1" text-rendering="optimize-speed"><g id="minder_connect_group1"><path id="kity_path_31" fill="none" stroke="rgb(191, 147, 115)" stroke-width="1" d="M382.5000114366412,60.500003449618816v10h-279V78.50000344961882"></path><path id="kity_path_33" fill="none" stroke="rgb(191, 147, 115)" stroke-width="1" d="M40.500011436641216,110.50000344961882V132.50000344961882L48.500011436641216,132.50000344961882"></path><path id="kity_path_35" fill="none" stroke="rgb(191, 147, 115)" stroke-width="1" d="M68.50001143664122,141.50000344961882V158.50000344961882L76.50001143664122,158.50000344961882"></path><path id="kity_path_37" fill="none" stroke="rgb(191, 147, 115)" stroke-width="1" d="M40.500011436641216,110.50000344961882V183.50000344961882L48.500011436641216,183.50000344961882"></path><path id="kity_path_39" fill="none" stroke="rgb(191, 147, 115)" stroke-width="1" d="M40.500011436641216,110.50000344961882V218.50000344961882L48.500011436641216,218.50000344961882"></path><path id="kity_path_41" fill="none" stroke="rgb(191, 147, 115)" stroke-width="1" d="M382.5000114366412,60.500003449618816v10h-8.5V78.50000344961882"></path><path id="kity_path_43" fill="none" stroke="rgb(191, 147, 115)" stroke-width="1" d="M315.5000114366412,110.50000344961882V131.50000344961882L323.5000114366412,131.50000344961882"></path><path id="kity_path_45" fill="none" stroke="rgb(191, 147, 115)" stroke-width="1" d="M343.5000114366412,140.50000344961882V173.50000344961882L351.5000114366412,173.50000344961882"></path><path id="kity_path_47" fill="none" stroke="rgb(191, 147, 115)" stroke-width="1" d="M315.5000114366412,110.50000344961882V213.50000344961882L321.5000114366412,213.50000344961882"></path><path id="kity_path_49" fill="none" stroke="rgb(191, 147, 115)" stroke-width="1" d="M341.5000114366412,222.50000344961882V239.50000344961882L349.5000114366412,239.50000344961882"></path><path id="kity_path_51" fill="none" stroke="rgb(191, 147, 115)" stroke-width="1" d="M315.5000114366412,110.50000344961882V286.5000034496188L316.5000114366412,286.5000034496188"></path><path id="kity_path_53" fill="none" stroke="rgb(191, 147, 115)" stroke-width="1" d="M382.5000114366412,60.500003449618816v10h163V78.50000344961882"></path><path id="kity_path_55" fill="none" stroke="rgb(191, 147, 115)" stroke-width="1" d="M518.5000114366412,110.50000344961882V131.50000344961882L526.5000114366412,131.50000344961882"></path><path id="kity_path_57" fill="none" stroke="rgb(191, 147, 115)" stroke-width="1" d="M518.5000114366412,110.50000344961882V157.50000344961882L526.5000114366412,157.50000344961882"></path><path id="kity_path_59" fill="none" stroke="rgb(191, 147, 115)" stroke-width="1" d="M546.5000114366412,166.50000344961882V183.50000344961882L554.5000114366412,183.50000344961882"></path><path id="kity_path_61" fill="none" stroke="rgb(191, 147, 115)" stroke-width="1" d="M546.5000114366412,166.50000344961882V209.50000344961882L554.5000114366412,209.50000344961882"></path><path id="kity_path_63" fill="none" stroke="rgb(191, 147, 115)" stroke-width="1" d="M382.5000114366412,60.500003449618816v10h314.5V78.50000344961882"></path><path id="kity_path_65" fill="none" stroke="rgb(191, 147, 115)" stroke-width="1" d="M669.5000114366412,110.50000344961882V131.50000344961882L677.5000114366412,131.50000344961882"></path><path id="kity_path_67" fill="none" stroke="rgb(191, 147, 115)" stroke-width="1" d="M697.5000114366412,140.50000344961882V157.50000344961882L705.5000114366412,157.50000344961882"></path><path id="kity_path_69" fill="none" stroke="rgb(191, 147, 115)" stroke-width="1" d="M669.5000114366412,110.50000344961882V183.50000344961882L677.5000114366412,183.50000344961882"></path><path id="kity_path_71" fill="none" stroke="rgb(191, 147, 115)" stroke-width="1" d="M697.5000114366412,192.50000344961882V218.50000344961882L705.5000114366412,218.50000344961882"></path><path id="kity_path_73" fill="none" stroke="rgb(191, 147, 115)" stroke-width="1" d="M669.5000114366412,110.50000344961882V253.50000344961882L677.5000114366412,253.50000344961882"></path><path id="kity_path_75" fill="none" stroke="rgb(191, 147, 115)" stroke-width="1" d="M697.5000114366412,262.5000034496188V279.5000034496188L705.5000114366412,279.5000034496188"></path></g><g id="minder_node1"><path id="node_outline1" fill="#e8c009" stroke="rgb(96, 73, 57)" d="M311.5000114366412,20.500003449618816h345a5,5,0,0,1,5,5v42a5,5,0,0,1,-5,5h-345a5,5,0,0,1,-5,-5v-42a5,5,0,0,1,5,-5z" stroke-width="3"></path><g id="node_text1" fill="white"><text id="kity_text_22" text-rendering="inherit" font-size="16" dy=".8em" y="24.10000341385603" font-weight="bold" x="318.5000114366412">科技、娱乐、设计</text><text id="kity_text_237" text-rendering="inherit" font-size="16" dy=".8em" font-weight="bold" y="48.10000341385603" x="318.5000114366412">https://tumaorou.github.io/TED/TED.svg</text></g></g><g id="kity_g_12"><path id="kity_path_13" fill="none" stroke="none" d="M318.5000114366412,46.500003449618816h0v0h0z"></path></g><g id="kity_g_14"><path id="kity_path_15" fill="none" stroke="none" d="M318.5000114366412,46.500003449618816h0v0h0z"></path><path id="kity_path_16" fill="none" stroke="none"></path></g><g id="minder_node2"><g id="node_expander5" style="cursor: pointer;"><path id="kity_path_181" fill="white" stroke="gray" d="M109.50000823289156,71.50000382214785A6,6,0,1,1,97.50000823289156,71.50000382214785A6,6,0,1,1,109.50000823289156,71.50000382214785"></path><path id="kity_path_182" fill="none" stroke="gray" d="M99.00000823289156,71.50000382214785L108.00000823289156,71.50000382214785"></path></g><path id="node_outline6" fill="#e8c009" stroke="rgb(191, 147, 115)" d="M23.500007666647434,78.50000416487455h160a3,3,0,0,1,3,3v26a3,3,0,0,1,-3,3h-160a3,3,0,0,1,-3,-3v-26a3,3,0,0,1,3,-3z" stroke-width="1"></path><g id="node_text6" fill="#ffffff"><text id="kity_text_86" text-rendering="inherit" font-size="14" dy=".8em" font-weight="bold" y="85.40000413358212" x="65.50000766664743">上瘾&#xa0;Addiction</text></g><g id="node_priority1"><path id="kity_path_127" fill="#4720C4" stroke="none" d="M41.000007301568985,98.00000402331352c0,3.866,3.134,7,7,7h6c3.866,0,7,-3.134,7,-7V92.00000402331352H41.000007301568985V98.00000402331352z"></path><path id="kity_path_128" fill="#A464FF" stroke="none" d="M61.000007301568985,95.00000402331352c0,3.866,-3.134,7,-7,7H48.000007301568985c-3.866,0,-7,-3.134,-7,-7V92.00000402331352c0,-3.866,3.134,-7,7,-7h6c3.866,0,7,3.134,7,7V95.00000402331352z" opacity="0.8"></path><text id="kity_text_129" text-rendering="geometricPrecision" x="50.000007294118404" y="94.50000401586294" text-anchor="middle" font-style="italic" font-size="12" fill="white" dy="5">5</text></g></g><g id="minder_node3"><g id="node_expander2" style="cursor: pointer;"><path id="kity_path_172" fill="white" stroke="gray" d="M48.50000732392073,132.50000473111868A6,6,0,1,1,36.50000732392073,132.50000473111868A6,6,0,1,1,48.50000732392073,132.50000473111868"></path><path id="kity_path_173" fill="none" stroke="gray" d="M38.00000732392073,132.50000473111868L47.00000732392073,132.50000473111868"></path></g><path id="node_outline3" fill="#e8c009" stroke="none" d="M53.5000074878335,123.50000473111868h99a5,5,0,0,1,5,5v8a5,5,0,0,1,-5,5h-99a5,5,0,0,1,-5,-5v-8a5,5,0,0,1,5,-5z"></path><g id="node_text3" fill="#ffffff"><text id="kity_text_79" text-rendering="inherit" font-size="12" dy=".8em" font-weight="bold" y="124.70000470429659" x="53.5000074878335">注意力&#xa0;Attention</text></g></g><g id="minder_node4"><g id="node_expander1" style="cursor: pointer;" display="none"><path id="kity_path_169" fill="white" stroke="gray" d="M76.50000774115324,158.50000511854887A6,6,0,1,1,64.50000774115324,158.50000511854887A6,6,0,1,1,76.50000774115324,158.50000511854887"></path><path id="kity_path_170" fill="none" stroke="gray"></path></g><path id="node_outline2" fill="none" stroke="none" d="M81.50000790506601,149.50000511854887h193a5,5,0,0,1,5,5v8a5,5,0,0,1,-5,5h-193a5,5,0,0,1,-5,-5v-8a5,5,0,0,1,5,-5z"></path><g id="node_text2" fill="black"><text id="kity_text_77" text-rendering="inherit" font-size="12" dy=".8em" y="150.70000509172678" x="81.50000790506601">用户的注意力成为被科技竞争的对象</text></g></g><g id="minder_node5"><g id="node_expander3" style="cursor: pointer;" display="none"><path id="kity_path_175" fill="white" stroke="gray" d="M48.50000732392073,183.5000054910779A6,6,0,1,1,36.50000732392073,183.5000054910779A6,6,0,1,1,48.50000732392073,183.5000054910779"></path><path id="kity_path_176" fill="none" stroke="gray"></path></g><path id="node_outline4" fill="none" stroke="none" d="M53.5000074878335,174.5000054910779h109a5,5,0,0,1,5,5v8a5,5,0,0,1,-5,5h-109a5,5,0,0,1,-5,-5v-8a5,5,0,0,1,5,-5z"></path><g id="node_text4" fill="black"><text id="kity_text_81" text-rendering="inherit" font-size="12" dy=".8em" y="175.7000054642558" x="53.5000074878335">联系是上瘾的对立面</text></g></g><g id="minder_node6"><g id="node_expander4" style="cursor: pointer;" display="none"><path id="kity_path_178" fill="white" stroke="gray" d="M48.50000732392073,218.50000601261854A6,6,0,1,1,36.50000732392073,218.50000601261854A6,6,0,1,1,48.50000732392073,218.50000601261854"></path><path id="kity_path_179" fill="none" stroke="gray"></path></g><path id="node_outline5" fill="none" stroke="none" d="M53.5000074878335,200.50000601261854h193a5,5,0,0,1,5,5v26a5,5,0,0,1,-5,5h-193a5,5,0,0,1,-5,-5v-26a5,5,0,0,1,5,-5z"></path><g id="node_text5" fill="black"><text id="kity_text_83" text-rendering="inherit" font-size="12" dy=".8em" y="201.70000598579645" x="53.5000074878335">与外界失联，缺少和外界健康的依赖</text><text id="kity_text_84" text-rendering="inherit" font-size="12" dy=".8em" y="219.70000598579645" x="53.5000074878335">是上瘾的导致因素。</text></g></g><g id="minder_node7"><g id="node_expander11" style="cursor: pointer;"><path id="kity_path_199" fill="white" stroke="gray" d="M380.00001226365566,71.50000382214785A6,6,0,1,1,368.00001226365566,71.50000382214785A6,6,0,1,1,380.00001226365566,71.50000382214785"></path><path id="kity_path_200" fill="none" stroke="gray" d="M369.50001226365566,71.50000382214785L378.50001226365566,71.50000382214785"></path></g><path id="node_outline12" fill="#e8c009" stroke="rgb(191, 147, 115)" d="M298.50001176446676,78.50000416487455h151a3,3,0,0,1,3,3v26a3,3,0,0,1,-3,3h-151a3,3,0,0,1,-3,-3v-26a3,3,0,0,1,3,-3z" stroke-width="1"></path><g id="node_text12" fill="#ffffff"><text id="kity_text_99" text-rendering="inherit" font-size="14" dy=".8em" font-weight="bold" y="85.40000413358212" x="340.50001176446676">情感 Emotion</text></g><g id="node_priority2"><path id="kity_path_132" fill="#4720C4" stroke="none" d="M316.0000113993883,98.00000402331352c0,3.866,3.134,7,7,7h6c3.866,0,7,-3.134,7,-7V92.00000402331352H316.0000113993883V98.00000402331352z"></path><path id="kity_path_133" fill="#A464FF" stroke="none" d="M336.0000113993883,95.00000402331352c0,3.866,-3.134,7,-7,7H323.0000113993883c-3.866,0,-7,-3.134,-7,-7V92.00000402331352c0,-3.866,3.134,-7,7,-7h6c3.866,0,7,3.134,7,7V95.00000402331352z" opacity="0.8"></path><text id="kity_text_134" text-rendering="geometricPrecision" x="325.00001139193773" y="94.50000401586294" text-anchor="middle" font-style="italic" font-size="12" fill="white" dy="5">5</text></g></g><g id="minder_node8"><g id="node_expander7" style="cursor: pointer;"><path id="kity_path_187" fill="white" stroke="gray" d="M323.50001142174006,131.50000471621752A6,6,0,1,1,311.50001142174006,131.50000471621752A6,6,0,1,1,323.50001142174006,131.50000471621752"></path><path id="kity_path_188" fill="none" stroke="gray" d="M313.00001142174006,131.50000471621752L322.00001142174006,131.50000471621752"></path></g><path id="node_outline8" fill="#e8c009" stroke="none" d="M328.5000115856528,122.50000471621752h91a5,5,0,0,1,5,5v8a5,5,0,0,1,-5,5h-91a5,5,0,0,1,-5,-5v-8a5,5,0,0,1,5,-5z"></path><g id="node_text8" fill="#ffffff"><text id="kity_text_91" text-rendering="inherit" font-size="12" dy=".8em" font-weight="bold" y="123.70000468939543" x="328.5000115856528">幸福 Happiness</text></g></g><g id="minder_node9"><g id="node_expander6" style="cursor: pointer;" display="none"><path id="kity_path_184" fill="white" stroke="gray" d="M351.50001183897257,173.5000053420663A6,6,0,1,1,339.50001183897257,173.5000053420663A6,6,0,1,1,351.50001183897257,173.5000053420663"></path><path id="kity_path_185" fill="none" stroke="gray"></path></g><path id="node_outline7" fill="#e8c009" stroke="none" d="M356.50001200288534,155.5000053420663h121a5,5,0,0,1,5,5v26a5,5,0,0,1,-5,5h-121a5,5,0,0,1,-5,-5v-26a5,5,0,0,1,5,-5z"></path><g id="node_text7" fill="#ffffff"><text id="kity_text_88" text-rendering="inherit" font-size="12" dy=".8em" font-weight="bold" y="156.7000053152442" x="356.50001200288534">积极心理学&#xa0;</text><text id="kity_text_89" text-rendering="inherit" font-size="12" dy=".8em" font-weight="bold" y="174.7000053152442" x="356.50001200288534">Positive Psychology</text></g></g><g id="minder_node10"><g id="node_expander9" style="cursor: pointer;"><path id="kity_path_193" fill="white" stroke="gray" d="M321.50001139193773,213.50000593811274A6,6,0,1,1,309.50001139193773,213.50000593811274A6,6,0,1,1,321.50001139193773,213.50000593811274"></path><path id="kity_path_194" fill="none" stroke="gray" d="M311.00001139193773,213.50000593811274L320.00001139193773,213.50000593811274"></path></g><path id="node_outline10" fill="#e8c009" stroke="none" d="M326.5000115558505,204.50000593811274h70a5,5,0,0,1,5,5v8a5,5,0,0,1,-5,5h-70a5,5,0,0,1,-5,-5v-8a5,5,0,0,1,5,-5z"></path><g id="node_text10" fill="#ffffff"><text id="kity_text_95" text-rendering="inherit" font-size="12" dy=".8em" font-weight="bold" y="205.70000591129065" x="326.5000115558505">幽默&#xa0;Humor</text></g></g><g id="minder_node11"><g id="node_expander8" style="cursor: pointer;" display="none"><path id="kity_path_190" fill="white" stroke="gray" d="M349.50001180917025,239.50000632554293A6,6,0,1,1,337.50001180917025,239.50000632554293A6,6,0,1,1,349.50001180917025,239.50000632554293"></path><path id="kity_path_191" fill="none" stroke="gray"></path></g><path id="node_outline9" fill="none" stroke="none" d="M354.500011973083,230.50000632554293h84a5,5,0,0,1,5,5v8a5,5,0,0,1,-5,5h-84a5,5,0,0,1,-5,-5v-8a5,5,0,0,1,5,-5z"></path><g id="node_text9" fill="black"><text id="kity_text_93" text-rendering="inherit" font-size="12" dy=".8em" y="231.70000629872084" x="354.500011973083">用幽默揭示真相</text></g></g><g id="minder_node12"><g id="node_expander10" style="cursor: pointer;" display="none"><path id="kity_path_196" fill="white" stroke="gray" d="M316.5000113174319,286.5000070258975A6,6,0,1,1,304.5000113174319,286.5000070258975A6,6,0,1,1,316.5000113174319,286.5000070258975"></path><path id="kity_path_197" fill="none" stroke="gray"></path></g><path id="node_outline11" fill="#e8c009" stroke="none" d="M321.5000114813447,277.5000070258975h65a5,5,0,0,1,5,5v8a5,5,0,0,1,-5,5h-65a5,5,0,0,1,-5,-5v-8a5,5,0,0,1,5,-5z"></path><g id="node_text11" fill="#ffffff"><text id="kity_text_97" text-rendering="inherit" font-size="12" dy=".8em" font-weight="bold" y="278.7000069990754" x="321.5000114813447">人工智能 AI</text></g></g><g id="minder_node13"><g id="node_expander16" style="cursor: pointer;"><path id="kity_path_214" fill="white" stroke="gray" d="M551.5000148192048,71.50000382214785A6,6,0,1,1,539.5000148192048,71.50000382214785A6,6,0,1,1,551.5000148192048,71.50000382214785"></path><path id="kity_path_215" fill="none" stroke="gray" d="M541.0000148192048,71.50000382214785L550.0000148192048,71.50000382214785"></path></g><path id="node_outline17" fill="#e8c009" stroke="rgb(191, 147, 115)" d="M501.5000147894025,78.50000416487455h88a3,3,0,0,1,3,3v26a3,3,0,0,1,-3,3h-88a3,3,0,0,1,-3,-3v-26a3,3,0,0,1,3,-3z" stroke-width="1"></path><g id="node_text17" fill="#ffffff"><text id="kity_text_109" text-rendering="inherit" font-size="14" dy=".8em" font-weight="bold" y="85.40000413358212" x="543.5000147894025">道德</text></g><g id="node_priority3"><path id="kity_path_137" fill="#4720C4" stroke="none" d="M519.000014424324,98.00000402331352c0,3.866,3.134,7,7,7h6c3.866,0,7,-3.134,7,-7V92.00000402331352H519.000014424324V98.00000402331352z"></path><path id="kity_path_138" fill="#A464FF" stroke="none" d="M539.000014424324,95.00000402331352c0,3.866,-3.134,7,-7,7H526.000014424324c-3.866,0,-7,-3.134,-7,-7V92.00000402331352c0,-3.866,3.134,-7,7,-7h6c3.866,0,7,3.134,7,7V95.00000402331352z" opacity="0.8"></path><text id="kity_text_139" text-rendering="geometricPrecision" x="528.0000144168735" y="94.50000401586294" text-anchor="middle" font-style="italic" font-size="12" fill="white" dy="5">5</text></g></g><g id="minder_node14"><g id="node_expander12" style="cursor: pointer;" display="none"><path id="kity_path_202" fill="white" stroke="gray" d="M526.5000144466758,131.50000471621752A6,6,0,1,1,514.5000144466758,131.50000471621752A6,6,0,1,1,526.5000144466758,131.50000471621752"></path><path id="kity_path_203" fill="none" stroke="gray"></path></g><path id="node_outline13" fill="none" stroke="none" d="M531.5000146105886,122.50000471621752h97a5,5,0,0,1,5,5v8a5,5,0,0,1,-5,5h-97a5,5,0,0,1,-5,-5v-8a5,5,0,0,1,5,-5z"></path><g id="node_text13" fill="black"><text id="kity_text_101" text-rendering="inherit" font-size="12" dy=".8em" y="123.70000468939543" x="531.5000146105886">用户提高网络素养</text></g></g><g id="minder_node15"><g id="node_expander15" style="cursor: pointer;"><path id="kity_path_211" fill="white" stroke="gray" d="M526.5000144466758,157.5000051036477A6,6,0,1,1,514.5000144466758,157.5000051036477A6,6,0,1,1,526.5000144466758,157.5000051036477"></path><path id="kity_path_212" fill="none" stroke="gray" d="M516.0000144466758,157.5000051036477L525.0000144466758,157.5000051036477"></path></g><path id="node_outline16" fill="none" stroke="none" d="M531.5000146105886,148.5000051036477h85a5,5,0,0,1,5,5v8a5,5,0,0,1,-5,5h-85a5,5,0,0,1,-5,-5v-8a5,5,0,0,1,5,-5z"></path><g id="node_text16" fill="black"><text id="kity_text_107" text-rendering="inherit" font-size="12" dy=".8em" y="149.70000507682562" x="531.5000146105886">平台提升责任感</text></g></g><g id="minder_node16"><g id="node_expander13" style="cursor: pointer;" display="none"><path id="kity_path_205" fill="white" stroke="gray" d="M554.5000148639083,183.5000054910779A6,6,0,1,1,542.5000148639083,183.5000054910779A6,6,0,1,1,554.5000148639083,183.5000054910779"></path><path id="kity_path_206" fill="none" stroke="gray"></path></g><path id="node_outline14" fill="none" stroke="none" d="M559.5000150278211,174.5000054910779h49a5,5,0,0,1,5,5v8a5,5,0,0,1,-5,5h-49a5,5,0,0,1,-5,-5v-8a5,5,0,0,1,5,-5z"></path><g id="node_text14" fill="black"><text id="kity_text_103" text-rendering="inherit" font-size="12" dy=".8em" y="175.7000054642558" x="559.5000150278211">算法透明</text></g></g><g id="minder_node17"><g id="node_expander14" style="cursor: pointer;" display="none"><path id="kity_path_208" fill="white" stroke="gray" d="M554.5000148639083,209.5000058785081A6,6,0,1,1,542.5000148639083,209.5000058785081A6,6,0,1,1,554.5000148639083,209.5000058785081"></path><path id="kity_path_209" fill="none" stroke="gray"></path></g><path id="node_outline15" fill="none" stroke="none" d="M559.5000150278211,200.5000058785081h61a5,5,0,0,1,5,5v8a5,5,0,0,1,-5,5h-61a5,5,0,0,1,-5,-5v-8a5,5,0,0,1,5,-5z"></path><g id="node_text15" fill="black"><text id="kity_text_105" text-rendering="inherit" font-size="12" dy=".8em" y="201.700005851686" x="559.5000150278211">为用户服务</text></g></g><g id="minder_node18"><g id="node_expander23" style="cursor: pointer;"><path id="kity_path_235" fill="white" stroke="gray" d="M703.0000170767307,71.50000382214785A6,6,0,1,1,691.0000170767307,71.50000382214785A6,6,0,1,1,703.0000170767307,71.50000382214785"></path><path id="kity_path_236" fill="none" stroke="gray" d="M692.5000170767307,71.50000382214785L701.5000170767307,71.50000382214785"></path></g><path id="node_outline24" fill="#e8c009" stroke="rgb(191, 147, 115)" d="M652.5000170394778,78.50000416487455h89a3,3,0,0,1,3,3v26a3,3,0,0,1,-3,3h-89a3,3,0,0,1,-3,-3v-26a3,3,0,0,1,3,-3z" stroke-width="1"></path><g id="node_text24" fill="#ffffff"><text id="kity_text_124" text-rendering="inherit" font-size="14" dy=".8em" font-weight="bold" y="85.40000413358212" x="694.5000170394778">偏见</text></g><g id="node_priority4"><path id="kity_path_142" fill="#4720C4" stroke="none" d="M670.0000166743994,98.00000402331352c0,3.866,3.134,7,7,7h6c3.866,0,7,-3.134,7,-7V92.00000402331352H670.0000166743994V98.00000402331352z"></path><path id="kity_path_143" fill="#A464FF" stroke="none" d="M690.0000166743994,95.00000402331352c0,3.866,-3.134,7,-7,7H677.0000166743994c-3.866,0,-7,-3.134,-7,-7V92.00000402331352c0,-3.866,3.134,-7,7,-7h6c3.866,0,7,3.134,7,7V95.00000402331352z" opacity="0.8"></path><text id="kity_text_144" text-rendering="geometricPrecision" x="679.0000166669488" y="94.50000401586294" text-anchor="middle" font-style="italic" font-size="12" fill="white" dy="5">5</text></g></g><g id="minder_node19"><g id="node_expander18" style="cursor: pointer;"><path id="kity_path_220" fill="white" stroke="gray" d="M677.5000166967511,131.50000471621752A6,6,0,1,1,665.5000166967511,131.50000471621752A6,6,0,1,1,677.5000166967511,131.50000471621752"></path><path id="kity_path_221" fill="none" stroke="gray" d="M667.0000166967511,131.50000471621752L676.0000166967511,131.50000471621752"></path></g><path id="node_outline19" fill="#e8c009" stroke="none" d="M682.5000168606639,122.50000471621752h58a5,5,0,0,1,5,5v8a5,5,0,0,1,-5,5h-58a5,5,0,0,1,-5,-5v-8a5,5,0,0,1,5,-5z"></path><g id="node_text19" fill="#ffffff"><text id="kity_text_113" text-rendering="inherit" font-size="12" dy=".8em" font-weight="bold" y="123.70000468939543" x="682.5000168606639">编码 code</text></g></g><g id="minder_node20"><g id="node_expander17" style="cursor: pointer;" display="none"><path id="kity_path_217" fill="white" stroke="gray" d="M705.5000171139836,157.5000051036477A6,6,0,1,1,693.5000171139836,157.5000051036477A6,6,0,1,1,705.5000171139836,157.5000051036477"></path><path id="kity_path_218" fill="none" stroke="gray"></path></g><path id="node_outline18" fill="none" stroke="none" d="M710.5000172778964,148.5000051036477h253a5,5,0,0,1,5,5v8a5,5,0,0,1,-5,5h-253a5,5,0,0,1,-5,-5v-8a5,5,0,0,1,5,-5z"></path><g id="node_text18" fill="black"><text id="kity_text_111" text-rendering="inherit" font-size="12" dy=".8em" y="149.70000507682562" x="710.5000172778964">写代码不分性别也并非无趣，是改变世界的方式</text></g></g><g id="minder_node21"><g id="node_expander20" style="cursor: pointer;"><path id="kity_path_226" fill="white" stroke="gray" d="M677.5000166967511,183.5000054910779A6,6,0,1,1,665.5000166967511,183.5000054910779A6,6,0,1,1,677.5000166967511,183.5000054910779"></path><path id="kity_path_227" fill="none" stroke="gray" d="M667.0000166967511,183.5000054910779L676.0000166967511,183.5000054910779"></path></g><path id="node_outline21" fill="#e8c009" stroke="none" d="M682.5000168606639,174.5000054910779h129a5,5,0,0,1,5,5v8a5,5,0,0,1,-5,5h-129a5,5,0,0,1,-5,-5v-8a5,5,0,0,1,5,-5z"></path><g id="node_text21" fill="#ffffff"><text id="kity_text_118" text-rendering="inherit" font-size="12" dy=".8em" font-weight="bold" y="175.7000054642558" x="682.5000168606639">过滤气泡&#xa0;Filter bubble</text></g></g><g id="minder_node22"><g id="node_expander19" style="cursor: pointer;" display="none"><path id="kity_path_223" fill="white" stroke="gray" d="M705.5000171139836,218.50000601261854A6,6,0,1,1,693.5000171139836,218.50000601261854A6,6,0,1,1,705.5000171139836,218.50000601261854"></path><path id="kity_path_224" fill="none" stroke="gray"></path></g><path id="node_outline20" fill="none" stroke="none" d="M710.5000172778964,200.50000601261854h241a5,5,0,0,1,5,5v26a5,5,0,0,1,-5,5h-241a5,5,0,0,1,-5,-5v-26a5,5,0,0,1,5,-5z"></path><g id="node_text20" fill="black"><text id="kity_text_115" text-rendering="inherit" font-size="12" dy=".8em" y="201.70000598579645" x="710.5000172778964">相同的观点会不断重复，异己观点会被过滤，</text><text id="kity_text_116" text-rendering="inherit" font-size="12" dy=".8em" y="219.70000598579645" x="710.5000172778964">导致群体产生偏见</text></g></g><g id="minder_node23"><g id="node_expander22" style="cursor: pointer;"><path id="kity_path_232" fill="white" stroke="gray" d="M677.5000166967511,253.50000653415918A6,6,0,1,1,665.5000166967511,253.50000653415918A6,6,0,1,1,677.5000166967511,253.50000653415918"></path><path id="kity_path_233" fill="none" stroke="gray" d="M667.0000166967511,253.50000653415918L676.0000166967511,253.50000653415918"></path></g><path id="node_outline23" fill="#e8c009" stroke="none" d="M682.5000168606639,244.50000653415918h90a5,5,0,0,1,5,5v8a5,5,0,0,1,-5,5h-90a5,5,0,0,1,-5,-5v-8a5,5,0,0,1,5,-5z"></path><g id="node_text23" fill="#ffffff"><text id="kity_text_122" text-rendering="inherit" font-size="12" dy=".8em" font-weight="bold" y="245.7000065073371" x="682.5000168606639">大数据 Big data</text></g></g><g id="minder_node24"><g id="node_expander21" style="cursor: pointer;" display="none"><path id="kity_path_229" fill="white" stroke="gray" d="M705.5000171139836,279.5000069215894A6,6,0,1,1,693.5000171139836,279.5000069215894A6,6,0,1,1,705.5000171139836,279.5000069215894"></path><path id="kity_path_230" fill="none" stroke="gray"></path></g><path id="node_outline22" fill="none" stroke="none" d="M710.5000172778964,270.5000069215894h133a5,5,0,0,1,5,5v8a5,5,0,0,1,-5,5h-133a5,5,0,0,1,-5,-5v-8a5,5,0,0,1,5,-5z"></path><g id="node_text22" fill="black"><text id="kity_text_120" text-rendering="inherit" font-size="12" dy=".8em" y="271.7000068947673" x="710.5000172778964">数据本身并可能带有偏见</text></g></g></g></g></svg>